<?xml version="1.0" encoding="UTF-8" standalone="no"?>
<svg
   xmlns:dc="http://purl.org/dc/elements/1.1/"
   xmlns:cc="http://creativecommons.org/ns#"
   xmlns:rdf="http://www.w3.org/1999/02/22-rdf-syntax-ns#"
   xmlns:svg="http://www.w3.org/2000/svg"
   xmlns="http://www.w3.org/2000/svg"
   xmlns:sodipodi="http://sodipodi.sourceforge.net/DTD/sodipodi-0.dtd"
   xmlns:inkscape="http://www.inkscape.org/namespaces/inkscape"
   version="1.1"
   viewBox="0 -246 1889 1075"
   id="svg838"
   sodipodi:docname="dunland.svg"
   width="1889"
   height="1075"
   inkscape:version="0.92.5 (2060ec1f9f, 2020-04-08)">
  <metadata
     id="metadata844">
    <rdf:RDF>
      <cc:Work
         rdf:about="">
        <dc:format>image/svg+xml</dc:format>
        <dc:type
           rdf:resource="http://purl.org/dc/dcmitype/StillImage" />
        <dc:title></dc:title>
      </cc:Work>
    </rdf:RDF>
  </metadata>
  <defs
     id="defs842" />
  <sodipodi:namedview
     pagecolor="#ffffff"
     bordercolor="#666666"
     borderopacity="1"
     objecttolerance="10"
     gridtolerance="10"
     guidetolerance="10"
     inkscape:pageopacity="0"
     inkscape:pageshadow="2"
     inkscape:window-width="640"
     inkscape:window-height="480"
     id="namedview840"
     showgrid="false"
     fit-margin-top="50"
     fit-margin-left="50"
     fit-margin-right="50"
     fit-margin-bottom="50"
     inkscape:zoom="0.23046875"
     inkscape:cx="-585.30508"
     inkscape:cy="849"
     inkscape:current-layer="svg838" />
  <g
     transform="matrix(1,0,0,-1,11,533)"
     id="g836">
    <path
       d="m 1348,613 q 0,5 -6,7 -13,7 -80,14 -67,7 -91,7 -18,0 -49,-16.5 -31,-16.5 -28,-32.5 -14,-46 -35,-54 -5,1 -14.5,-2 -9.5,-3 -13.5,-3 -17,0 -50.5,28 -33.5,28 -33.5,43 0,19 22,31 9,9 45.5,20 36.5,11 58.5,14 -4,7 -13,10 -9,3 -16,3 -7,0 -19.5,-0.5 Q 1012,681 1009,681 h -21 q 28,22 84,13 -11,12 -22,17 -11,5 -18,6 -7,1 -23.5,-0.5 Q 992,715 984,715 q -6,0 -14,2 0,-1 -8.5,2 -8.5,3 -19.5,6.5 -11,3.5 -16,3.5 -42,0 -91.5,-37 -49.5,-37 -49.5,-77 0,-13 4.5,-37 4.5,-24 4.5,-37 0,-2 -3,-29 -2,0 -11,0.5 -9,0.5 -13.5,1 -4.5,0.5 -10.5,3 -6,2.5 -9,6.5 -21,30 -57,60.5 -36,30.5 -64,29.5 l -133,-1 q -47,0 -69.5,-7.5 Q 401,597 398,587.5 395,578 378.5,565.5 362,553 328,545 L 297,511 249,495 232,481 Q 216,467 193,448 170,429 142.5,404.5 115,380 92.5,357.5 70,335 54.5,314.5 39,294 39,283 q 0,-2 3,-2 7,0 64.5,41.5 57.5,41.5 128.5,83 71,41.5 113,41.5 12,0 12,-8 0,-17 -46,-55 Q 268,346 221.5,310.5 175,275 175,263 q 0,-7 7,-7 2,0 58,31 56,31 119,62.5 63,31.5 81,31.5 11,0 11,-8 0,-12 -28.5,-51.5 Q 394,282 394,268 q 0,-5 5,-5 6,0 57.5,38.5 51.5,38.5 73.5,38.5 10,0 14.5,-6.5 4.5,-6.5 8.5,-6.5 10,0 30,9 20,9 30,9 5,0 5,-4 0,-11 -38,-34.5 -38,-23.5 -38,-41.5 0,-7 12,-7 12,0 34,4.5 22,4.5 33,4.5 16,0 16,-7 0,-9 -11.5,-32 -11.5,-23 -11.5,-30 0,-6 10,-6 5,0 82.5,40.5 Q 784,273 811,273 q 22,0 22,-33 0,-11 -7,-44.5 Q 819,162 821,154 819,149 801,90 794,67 775.5,26 757,-15 751,-30 749,-34 740.5,-49 732,-64 730,-73 730,-77 727.5,-87.5 725,-98 725,-104 q 0,-8 8,-8 15,0 29,19 14,19 28,49.5 14,30.5 17,34.5 5,9 12.5,18.5 7.5,9.5 16.5,20 9,10.5 14,16.5 0,-20 -5.5,-63 -5.5,-43 -5.5,-66 0,-18 -6,-54.5 -6,-36.5 -6,-54.5 0,-10 3.5,-32 3.5,-22 9.5,-22 22,18 40,96.5 18,78.5 33.5,158 Q 929,88 945,106 v -2 Q 944,83 947.5,42.5 951,2 951,-15 q 0,-11 1,-28 1,-17 3,-40.5 2,-23.5 7.5,-39.5 5.5,-16 12.5,-16 11,0 17,20 6,20 9.5,46.5 3.5,26.5 5.5,32.5 -4,28 -4,42 V 10.5 24 38.5 q 0,0 1.5,15 l 3,13 q 0,0 5,10 5,10 7.5,3.5 15,-5 43.5,-55 28.5,-50 36.5,-50 5,0 5,14 0,31 -16,79 -4,11 -42,102 -38,91 -39,93 7,33 47,33 34,0 115.5,-41.5 Q 1252,213 1272,213 q 5,0 5,6 0,5 -30.5,21.5 -30.5,16.5 -61.5,38.5 -31,22 -31,40 0,13 20,13 35,0 89.5,-28 54.5,-28 64.5,-28 6,0 6,5 0,9 -17,34.5 -17,25.5 -17,32.5 0,10 22,10 43,0 65,-20 39,-17 52,-17 17,0 17,10 0,12 -56,36 -56,24 -56,38 0,10 16,14.5 16,4.5 27,4.5 33,0 131.5,-40.5 Q 1617,343 1642,322 q 12,-10 17,-10 7,0 7,10 0,22 -24.5,43 -24.5,21 -54,34.5 -29.5,13.5 -54.5,29.5 -25,16 -25,29 7,16 27,16 32,0 97.5,-38 65.5,-38 122,-76.5 56.5,-38.5 69.5,-38.5 4,0 4,7 0,10 -22,47 -22,37 -33,48 -6,6 -53,27 -47,21 -57,27 -3,2 -24.5,16 -21.5,14 -27.5,18 -6,4 -24,15 -18,11 -27.5,16.5 -9.5,5.5 -25,14 -15.5,8.5 -29,14.5 -13.5,6 -27.5,11 -9,3 -43.5,6 -34.5,3 -60.5,8.5 -26,5.5 -26,16.5 z"
       id="path834"
       inkscape:connector-curvature="0"
       style="fill:currentColor" />
  </g>
</svg>
