<?xml version="1.0" encoding="UTF-8" standalone="no"?>
<svg
   xmlns:dc="http://purl.org/dc/elements/1.1/"
   xmlns:cc="http://creativecommons.org/ns#"
   xmlns:rdf="http://www.w3.org/1999/02/22-rdf-syntax-ns#"
   xmlns:svg="http://www.w3.org/2000/svg"
   xmlns="http://www.w3.org/2000/svg"
   xmlns:sodipodi="http://sodipodi.sourceforge.net/DTD/sodipodi-0.dtd"
   xmlns:inkscape="http://www.inkscape.org/namespaces/inkscape"
   version="1.1"
   viewBox="0 -205 976.29633 890"
   id="svg6"
   sodipodi:docname="elven.svg"
   width="976.29633"
   height="890"
   inkscape:version="0.92.5 (2060ec1f9f, 2020-04-08)">
  <metadata
     id="metadata12">
    <rdf:RDF>
      <cc:Work
         rdf:about="">
        <dc:format>image/svg+xml</dc:format>
        <dc:type
           rdf:resource="http://purl.org/dc/dcmitype/StillImage" />
        <dc:title></dc:title>
      </cc:Work>
    </rdf:RDF>
  </metadata>
  <defs
     id="defs10" />
  <sodipodi:namedview
     pagecolor="#ffffff"
     bordercolor="#666666"
     borderopacity="1"
     objecttolerance="10"
     gridtolerance="10"
     guidetolerance="10"
     inkscape:pageopacity="0"
     inkscape:pageshadow="2"
     inkscape:window-width="640"
     inkscape:window-height="480"
     id="namedview8"
     showgrid="false"
     fit-margin-top="50"
     fit-margin-left="50"
     fit-margin-right="50"
     fit-margin-bottom="50"
     inkscape:zoom="0.23046875"
     inkscape:cx="-227.83553"
     inkscape:cy="652"
     inkscape:current-layer="svg6" />
  <g
     transform="matrix(1,0,0,-1,-6.2592593,545)"
     id="g4">
    <path
       d="m 444,700 h 102 q 14,-3 40,-7.5 26,-4.5 46.5,-9.5 20.5,-5 37.5,-12 150,-62 222,-203 19,-36 35,-93 1,-6 1,-19 0,-13 1,-19 8,-31 -2,-84 -2,-7 -3,-21 -1,-14 -2,-18 -13,-41 -35,-82 -1,-7 -5,-14 Q 808,-2 670,-60 656,-66 639,-71 622,-76 599.5,-80.5 577,-85 565,-88 h -19 q -8,-2 -49,-2 -91,0 -147,21 -7,2 -22.5,7 Q 312,-57 303,-53 181,0 105,122 99,132 92,151.5 85,171 83,176 45,271 61,337 v 22 q 23,84 25,90 32,73 90,129.5 58,56.5 132,88.5 12,5 89,26 5,2 24,3 19,1 23,4 z m 18,-24 q -6,-4 -20,-3.5 -14,0.5 -22,-1.5 l -72,-20 v -5 h -15 q -2,-1 -7,-5 -5,-4 -8,-4 h -7 q -28,-12 -80,-50 -4,-4 -12,-15 h -4 q 0,-1 2,-5 Q 151,515 116,429 110,414 104,383.5 98,353 96,347 v -30 q 0,-66 13,-103 3,-7 5.5,-22 2.5,-15 6.5,-23 47,-109 158,-178 4,-2 10,-3.5 6,-1.5 10,-3.5 23,-14 34,-20 h 13 l 7,-7 q 16,-4 25,-5 61,-20 116,-15 1,0 2.5,-1 1.5,-1 2.5,-2 9,0 27,0.5 18,0.5 27,2.5 10,3 47.5,11 37.5,8 56.5,16 69,28 126,83 57,55 86,122 29,67 25.5,147.5 Q 891,397 860,456 q -3,6 -8,18 -5,12 -9,19 -29,44 -63,69 -1,1 -2,5 l -2,5 h -5 q -5,4 -16,15 -11,11 -17,15 -105,74 -276,74 z M 860,160 q -2,0 -4,-1 l -4,-2 v -2 h -4 q 0,-1 -1,-2.5 -1,-1.5 -2,-2.5 h -5 q 0,-1 -2,-6 h -5 q -1,-1 -1.5,-2.5 -0.5,-1.5 -1.5,-2.5 -1,0 -5,-1 -4,-1 -5,-1 -2,-4 -2,-5 h -5 q 0,-1 -1,-2.5 -1,-1.5 -2,-2.5 h -4 q -1,-1 -3,-5 -3,0 -7,-2 V 60 q -3,-3 -9,-8 -6,-5 -9,-7 -2,-2 -2,-4 h -71 l -6,-5 v -5 q -1,-1 -4,-2.5 -3,-1.5 -4,-2.5 v -6 q -1,0 -3,-1.5 Q 686,17 684,16 V 11 Q 681,8 677,6 V 1 Q 676,0 673.5,-1.5 671,-3 670,-4 v -5 q -2,-1 -4,-2.5 -2,-1.5 -3,-1.5 v -5 q -7,-5 -9,-6 -2,-3 -3,-8 -2,-6 -11,-7 -4,3 -14,3.5 -10,0.5 -14,1.5 v 3 h -14 v 2 h -15 v 2 h -15 q -15,5 -27,5 -2,-4 -7,-6 -5,-2 -6,-3 -2,-2 -9,-10.5 -7,-8.5 -13,-14 -6,-5.5 -12,-7.5 -5,9 -22,22 -17,13 -22,23 -17,-4 -53,-11 h -14 v -2 h -12 v -3 h -16 v -2 h -7 v -3 q -1,0 -4,1.5 -3,1.5 -6,1.5 -1,8 -7,14 h -2 v 6 q -1,1 -4,2.5 -3,1.5 -4,2.5 v 5 q -1,1 -4,2.5 -3,1.5 -4,2.5 v 4 q -1,1 -5,3 v 5 q -4,2 -7,5 v 4 q -1,0 -2.5,1.5 L 296,24 q -2,4 -2,7 h -3 q -4,7 -4,10 h -70 q -6,8 -10,12 h -5 q -1,1 -2,3.5 -1,2.5 -2,3.5 h -3 v 62 q -1,1 -4,2 -3,1 -4,1 v 2 h -5 q -2,4 -2,5 h -5 q -2,4 -2,5 h -5 q -1,1 -3,5 -3,0 -9,2 0,1 -1,2.5 -1,1.5 -2,3.5 h -6 q 0,1 -1,2.5 -1,1.5 -1,2.5 -2,1 -6.5,3 -4.5,2 -7,4 -2.5,2 -3.5,7 3,4 3.5,14 0.5,10 1.5,14 h 2 l 12,71 q -6,1 -21,17.5 -15,16.5 -17,21.5 25,23 38,35 v 15 q -4,3 -4,13.5 V 384 q -12,36 -13,65 l 5,5 h 5 q 1,1 2,2.5 1,1.5 1,2.5 2,0 5.5,1 3.5,1 4.5,1 1,1 2,2.5 1,1.5 1,2.5 h 4 q 0,1 1,2.5 1,1.5 2,2.5 h 5 q 0,1 2,5 2,0 10,2 0,1 2,5 h 5 v 2 q 1,0 4,1 3,1 4,2 v 62 h 5 q 3,3 8.5,9.5 5.5,6.5 8.5,9.5 2,-2 70,-2 0,1 1.5,4.5 1.5,3.5 2.5,6.5 1,0 5,2 v 5 q 3,1 7,5 v 4 q 7,5 8,5 v 5 q 1,1 3.5,2.5 2.5,1.5 3.5,2.5 v 5 q 4,2 8,6 v 4 q 1,1 3.5,2.5 2.5,1.5 3.5,2.5 v 5 q 1,1 4,2.5 3,1.5 4,2.5 v 7 h 2 q 2,-1 12.5,-1 10.5,0 17.5,-1 v -3 l 82,-12 q 4,8 19,19.5 15,11.5 20,20.5 7,-3 24.5,-21 17.5,-18 32.5,-19 v 3 h 17 v 2 h 13 v 3 h 14 v 2 h 17 v 2 h 16 v 3 q 5,2 13,1.5 8,-0.5 8,0.5 h 3 v -7 q 1,-1 3.5,-2.5 2.5,-1.5 3.5,-2.5 v -5 q 3,-1 8,-5 v -4 q 4,-2 5,-4 v -5 q 2,-1 4,-2.5 2,-1.5 3,-1.5 v -5 q 1,-1 4,-2.5 3,-1.5 4,-2.5 v -5 q 1,-1 7,-5 v -4 q 3,-3 7,-5 v -6 h 4 q 0,-1 2,-5 h 66 v 2 h 3 v -2 q 17,-9 20,-30 3,-21 0,-49 14,-8 22,-12 0,-3 2,-5 h 5 q 2,-4 2,-5 h 6 q 1,-1 2,-2.5 1,-1.5 1,-2.5 h 4 q 1,-1 3,-5 h 5 q 0,-1 2,-5 3,-2 6,-2 3,0 4,-2.5 1,-2.5 2,-8.5 -3,-3 -3.5,-11.5 Q 858,418 857,414 h -2 v -13 h -3 v -12 h -2 v -12 h -2 q -2,-4 -2,-14 0,-10 -3,-14 h 2 l 27,-28 h 6 v -4 q 8,-6 12,-10 v -4 l -28,-25 q 0,-1 -1,-2.5 -1,-1.5 -1,-2.5 h -5 v -3 l -12,-9 v -10 q 3,-3 3.5,-12.5 0.5,-9.5 1.5,-12.5 11,-39 12,-66 z M 383,567 h 5 q 3,5 13,12.5 10,7.5 12,14.5 -8,2 -25,4 -17,2 -26,4 -1,-7 -9,-17 -4,-2 -5,-2 v -5 q -3,-3 -7,-6 v -7 q -4,-2 -5,-3 0,-1 -1,-3.5 -1,-2.5 -2,-3.5 H 210 V 443 q -2,0 -5,-0.5 -3,-0.5 -5,-1.5 -2,-4 -2,-5 -4,2 -5,2 l -16,-9 q 2,-9 5.5,-24.5 3.5,-15.5 4.5,-22.5 1,1 2.5,1 1.5,0 3.5,1 0,1 1,4 1,3 1,4 4,1 7,3.5 3,2.5 8,3.5 v -52 q -1,-1 -4,-2.5 -3,-1.5 -4,-2.5 v -2 h -4 v -3 q -4,2 -5,3 -4,-6 -6,-7 -20,-20 -29,-26 v -4 q 5,-4 14.5,-12.5 9.5,-8.5 14.5,-12.5 1,-1 6,-8 1,1 5,3 1,-1 2,-4 1,-3 2,-4 2,0 8,-2 v -54 h -3 v 2 q -10,5 -12,12 -3,1 -6,2.5 -3,1.5 -4,2.5 -2,-8 -4.5,-24 -2.5,-16 -3.5,-23 1,-1 4,-1 3,0 4,-1 0,-1 2,-5 h 6 v -2 q 3,0 7,2 2,-4 2,-5 1,-1 4,-1 3,0 4,-1 V 53 h 123 l 4,-6 q 0,0 1.5,-3 1.5,-3 -0.5,-6 1,0 8,-5 v -4 l 2,-1 q 2,-1 2,-2 8,-8 10,-18 8,0 27.5,3.5 19.5,3.5 22.5,6.5 -8,8 -18,15 0,3 -2,5 h -5 l -12,15 h 59 l 7,-10 h 3 q 0,-1 -1,-2.5 -1,-1.5 -2,-2.5 2,-2 8,-4.5 6,-2.5 8,-4.5 2,-2 11.5,-13.5 9.5,-11.5 17.5,-18 8,-6.5 15,-8.5 5,5 16,17 11,12 16,18 2,2 7.5,4.5 5.5,2.5 7.5,4.5 l 15,20 h 59 v -3 q -5,-2 -8,-9 h -5 q -2,-5 -12,-12 -10,-7 -12,-16 13,-1 45,-5 1,4 5,10 2,2 4,2 v 6 q 2,1 4,2.5 2,1.5 4,2.5 v 5 q 0,1 2,1 2,0 2,1 0,1 -2,5 h 2 q 4,6 5,10 h 124 v 111 q 26,13 35,15 -3,16 -7,42 h -5 q -8,-14 -23,-22 v 62 l 13,9 v 3 h 7 l 2,2 q 0,0 1,3 h 5 l 21,25 h 3 v 4 q -13,8 -27,23 -1,3 -5,7 -1,0 -5,-2 -8,10 -13,14 h -2 v 60 h 2 q 2,-3 8,-6.5 6,-3.5 8,-6.5 v -4 q 2,-2 10,-8 4,29 7,42 -1,1 -9.5,6 -8.5,5 -17.5,10 l -8,4 V 555 H 659 q 0,1 -3,4.5 -3,3.5 -4,5.5 h -3 l 1,2 q 1,2 2,2 l -24,33 q -14,-6 -47,-8 v -4 l 12,-7 v -5 q 6,-2 12,-9 v -2 q 4,-2 7,-2 0,-2 1,-4 l 2,-4 h 2 v -2 h -59 q -4,8 -11,15 -7,7 -16.5,14.5 -9.5,7.5 -14.5,12.5 -2,2 -6,7 -4,5 -7.5,8 -3.5,3 -8.5,4 -4,-6 -8,-9 h -5 q -1,-1 -11,-12.5 -10,-11.5 -15,-16.5 -3,-1 -8,-4 -3,-3 -8,-9.5 -5,-6.5 -7,-9.5 h -57 v 2 q 6,4 8,10 z m 131,-95 9,3 v 2 l 9,3 4,6 h 5 l 3,7 h 6 l 3,6 h 6 v 3 l 9,3 v -3 q -5,-4 -9,-12 -4,-8 -8,-18 -4,-10 -7,-15 -4,-2 -5,-3 -2,-2 0,-2 2,0 2,-1 v -2 l 24,-4 q 28,-9 41,-12 l -6,-3 v -3 h -14 q -5,-2 -22.5,-5 -17.5,-3 -24.5,-6 3,-4 29,-42 h -9 q -4,4 -19,10 -15,6 -23,7 -5,-16 -8,-29 h -3 l -9,-27 q -2,2 -3,6 h -4 l -3,15 h -3 v 9 h -2 q -6,18 -9,26 -9,-2 -24,-8.5 -15,-6.5 -24,-8.5 3,9 14.5,22.5 11.5,13.5 13.5,21.5 -16,0 -49,9 h -14 v 3 h -6 v 3 h 6 q 3,3 27,8.5 24,5.5 36,7.5 -2,9 -12.5,25 -10.5,16 -12.5,28 10,-3 24.5,-15.5 Q 467,474 476,472 v 3 q 4,5 4,18.5 0,13.5 2,19.5 h 2 v 18 h 3 v 4 h -3 v 17 l 6,3 q 2,4 2.5,15 0.5,11 4.5,15 v -6 h 3 v -21 h 3 v -6 h 3 v -33 h 3 v -20 h 2 q 1,-4 2,-14.5 1,-10.5 1,-12.5 z m 193,36 q 16,5 29,10 v -3 q -12,-9 -15,-22 h 3 q 5,-3 27,-8 -1,-1 -5,-2 v -3 q -2,-1 -13,-0.5 -11,0.5 -14,-3.5 6,-5 12,-15 h 3 v -5 q -6,1 -13.5,4 -7.5,3 -13.5,4 -2,-13 -8,-18 -2,-2 -5,-3 -1,3 -2.5,9 -1.5,6 -2.5,9 -4,2 -10,3 -5,-6 -20,-8 v 3 q 6,3 13,14 h 3 v 5 q -24,0 -33,7 h 5 q 7,7 28,8 v 3 q -11,8 -16,22 9,-4 28,-10 l 9,28 q 2,-2 3,-6 6,-4 8,-22 z m -411,24 h 5 q 1,-4 3.5,-12 2.5,-8 3.5,-12 7,1 15.5,5 8.5,4 12.5,5 -2,-6 -7.5,-13 -5.5,-7 -7.5,-12 h 3 q 4,-3 29,-8 v -2 q -5,-1 -16,-2.5 -11,-1.5 -16,-2.5 2,-5 7.5,-11.5 Q 334,460 336,456 h -7 q -6,6 -21,8 -1,-1 -0.5,-1.5 0.5,-0.5 -1.5,-1.5 -1,-4 -3,-9.5 -2,-5.5 -2,-10.5 h -5 q 0,12 -7,20 v 3 h -7 q -6,-6 -21,-8 2,5 7.5,12 5.5,7 7.5,10 -25,0 -31,7 h 4 v 3 h 10 q 1,0 1,0.5 0,0.5 1,1.5 3,1 7.5,2 4.5,1 7.5,4 -8,5 -17,22 h 5 v -3 h 7 q 13,-7 18,-7 1,4 3.5,12 2.5,8 3.5,12 z M 398,374 q -1,-4 -5.5,-15 -4.5,-11 -8,-19.5 Q 381,331 383,329 q 4,-5 15.5,-7.5 Q 410,319 413,317 v -3 q 14,-4 20,-6 v -6 q -6,-2 -53,-20 2,-8 9,-22.5 7,-14.5 9,-25.5 h -3 q -5,6 -20,16 -15,10 -22,11 0,-11 -5,-37.5 -5,-26.5 -9,-30.5 v 6 l -18,62 q -10,-2 -30,-13 -20,-11 -24,-14 v 7 q 4,3 7.5,7 3.5,4 6.5,9.5 3,5.5 5,9.5 4,2 5,2 l 3,10 h 3 l 3,9 q -27,0 -56,9 -5,1 -13.5,-1 -8.5,-2 -10.5,-2 v 3 h -12 v 3 q -5,0 -18,2 v 6 h 18 l 3,6 q 4,1 7,0.5 3,-0.5 7,-1.5 l 4,-2 v 3 h 18 v 3 l 53,7 v 3 q -2,2 -14,23 -6,4 -10,5 v 6 l -6,4 -3,9 h 6 q 4,-4 11,-8 7,-4 17,-7.5 10,-3.5 14,-5.5 2,-4 2,-6 h 4 v 3 h 3 q 1,7 3,24 9,28 12,41 2,-2 3,-5 h 3 v -19 h 2 v -11 q 1,-5 4,-16.5 3,-11.5 5,-16.5 3,2 17,13.5 14,11.5 25,13.5 z m 267,-25 q 12,2 28,12.5 16,10.5 25,12.5 -2,-11 -15,-26.5 -13,-15.5 -15,-24.5 12,-1 36,-4.5 24,-3.5 35,-4.5 v -3 h 3 v 3 h 21 v -6 h 15 v -6 q -10,0 -15,-3 v -3 h -18 v -3 l -21,3 q -33,-8 -56,-8 l 3,-9 h 3 v -7 q 1,0 2.5,-1 1.5,-1 2.5,-2 v -6 q 4,-2 7,-2 v -6 h 3 q 7,-8 9,-18 -10,2 -26.5,12 -16.5,10 -26.5,12 0,-11 -3,-22 -3,-11 -7,-23.5 -4,-12.5 -6,-19.5 -2,1 -3,6 -4,5 -8,29.5 -4,24.5 -6,29.5 h -6 Q 622,254 608.5,245 595,236 587,233 v 4 q 2,1 21,45 l -57,20 v 6 q 7,0 57,21 -17,38 -18,45 9,-2 22,-12.5 13,-10.5 23,-12.5 0,9 11,66 1,-1 3,-6 3,-3 9,-26.5 6,-23.5 7,-33.5 z m -148,-139 18,3 v 2 h 9 v 3 q 16,6 23,9 v -6 q -6,-4 -8,-6 v -5 l -9,-6 v -6 l -6,-3 v -7 q 0,-1 -2.5,-2 -2.5,-1 -3.5,-3 l 65,-12 v -6 q -14,-2 -42,-11 -4,-2 -11.5,-2.5 Q 542,151 538,147 q 4,-4 7,-12 3,-8 5,-11 l 6,-3 v -6 h 3 q 1,-3 2.5,-9 1.5,-6 2.5,-9 -10,2 -25,14.5 -15,12.5 -25,15.5 -6,-39 -6,-69 h -6 Q 503,47 500.5,30.5 498,14 494,11 l -7,47 h -3 l -6,69 q -9,-2 -14,-6 v -3 h -6 l -3,-6 h -6 q -2,-4 -3,-7 -12,-7 -21,-8 v 2 q 4,4 8.5,15.5 4.5,11.5 6.5,14.5 l 6,3 q 1,6 6,19 -6,0 -32,6 -26,6 -28,8 -1,1 -3,6 l 63,12 q -2,8 -13,21 -11,13 -14,23 h 3 q 3,-3 7.5,-3.5 4.5,-0.5 7.5,-2.5 v -3 h 6 v -3 q 2,0 7,-1 5,-1 8,-1 v -3 l 9,-3 q 2,8 21,56 l 3,-3 q 3,-3 10.5,-22.5 Q 515,218 517,210 Z M 296,167 h 5 q 1,-3 3.5,-11.5 Q 307,147 308,144 h 3 q 3,4 25,11 v -3 q -2,-1 -10,-13 h -2 q 0,-1 -1,-3.5 -1,-2.5 -2,-3.5 h 3 q 5,-5 26,-5 v -5 q -23,0 -29,-7 12,-10 15,-23 -6,1 -14.5,5 -8.5,4 -13.5,5 -1,-4 -3.5,-13 Q 302,80 301,75 h -5 q -1,6 -4,14 -3,8 -3,13 -5,-1 -14,-5 -9,-4 -16,-5 v 3 q 9,5 17,23 h -10 q -5,4 -21,4 v 5 l 28,3 2,2 q 0,0 1,2 -11,8 -15,21 5,-1 14.5,-5.5 9.5,-4.5 13.5,-5.5 1,3 3.5,11.5 2.5,8.5 3.5,11.5 z m 398,0 q 1,-1 3.5,-2 2.5,-1 3.5,-1 0,-4 1,-6 1,-2 2.5,-4.5 1.5,-2.5 2.5,-6.5 1,0 27,8 -2,-5 -8,-13 -6,-8 -7,-10 h 5 q 7,-5 27,-5 v -5 q -4,0 -14.5,-1.5 Q 726,119 721,118 q 2,-6 7,-13.5 5,-7.5 6,-12.5 -12,2 -25,10 v -2 q -7,-9 -10,-25 -2,1 -3,3 h -2 v 7 l -3,7 q -3,6 -4,10 -5,-1 -13,-5 -8,-4 -15,-5 2,6 8.5,13.5 6.5,7.5 7.5,12.5 -5,1 -16.5,2 -11.5,1 -16.5,2 v 5 q 17,0 33,5 l -3,2 q -1,5 -6.5,11.5 -5.5,6.5 -6.5,9.5 h 6 q 2,-2 11.5,-6 9.5,-4 10.5,-5 v 3 q 5,6 7,20 z"
       id="path2"
       inkscape:connector-curvature="0"
       style="fill:currentColor" />
  </g>
</svg>
