<?xml version="1.0" encoding="UTF-8" standalone="no"?>
<svg
   version="1.1"
   viewBox="0 -205 976.29633 890"
   id="svg6"
   sodipodi:docname="elven_fixed.svg"
   width="976.29633"
   height="890"
   inkscape:version="1.2.2 (732a01da63, 2022-12-09)"
   xmlns:inkscape="http://www.inkscape.org/namespaces/inkscape"
   xmlns:sodipodi="http://sodipodi.sourceforge.net/DTD/sodipodi-0.dtd"
   xmlns="http://www.w3.org/2000/svg"
   xmlns:svg="http://www.w3.org/2000/svg"
   xmlns:rdf="http://www.w3.org/1999/02/22-rdf-syntax-ns#"
   xmlns:cc="http://creativecommons.org/ns#"
   xmlns:dc="http://purl.org/dc/elements/1.1/">
  <metadata
     id="metadata12">
    <rdf:RDF>
      <cc:Work
         rdf:about="">
        <dc:format>image/svg+xml</dc:format>
        <dc:type
           rdf:resource="http://purl.org/dc/dcmitype/StillImage" />
      </cc:Work>
    </rdf:RDF>
  </metadata>
  <defs
     id="defs10" />
  <sodipodi:namedview
     pagecolor="#ffffff"
     bordercolor="#666666"
     borderopacity="1"
     objecttolerance="10"
     gridtolerance="10"
     guidetolerance="10"
     inkscape:pageopacity="0"
     inkscape:pageshadow="2"
     inkscape:window-width="640"
     inkscape:window-height="480"
     id="namedview8"
     showgrid="false"
     fit-margin-top="50"
     fit-margin-left="50"
     fit-margin-right="50"
     fit-margin-bottom="50"
     inkscape:zoom="0.92187499"
     inkscape:cx="564.0678"
     inkscape:cy="478.91526"
     inkscape:current-layer="svg6"
     inkscape:showpageshadow="0"
     inkscape:pagecheckerboard="0"
     inkscape:deskcolor="#d1d1d1"
     showguides="true" />
  <path
     id="path4867"
     style="stroke-width:0.975326"
     d="m 493.06217,-154.17493 c -14.42091,-0.30803 -26.96067,0.77052 -37.6047,3.23323 -4.1202,0.61571 -10.63745,0.92765 -19.56493,0.92765 -8.92701,0 -15.45366,0.30286 -19.57386,0.91861 -39.14255,9.85056 -71.07181,20.62557 -95.79345,32.32309 -96.82676,44.327566 -166.53667,112.6671957 -209.11294,205.016255 -4.807,10.466168 -8.92066,22.007555 -12.35423,34.628585 -3.433574,12.62107 -6.70137,26.94341 -9.791539,42.95056 -3.090216,16.00715 -6.430531,24.42314 -7.724858,36.93417 -0.576056,45.9613 -4.791672,94.35065 7.210457,137.60516 14.42101,47.40584 23.35084,74.80229 26.78436,82.19018 21.97488,45.55888 52.36494,86.19003 91.16427,121.8983 38.79943,35.70831 83.25905,63.41684 133.38894,83.11796 93.72982,28.13931 184.71693,36.62674 281.20875,2.76478 3.43358,-1.23127 11.85032,-4.0031 25.24084,-8.31272 13.39098,-4.30963 23.51816,-8.31122 30.38531,-12.00523 83.779,-46.79014 143.86583,-107.7415 180.26189,-182.85205 2.74695,-5.54094 5.84333,-13.08069 9.2769,-22.6234 3.43358,-9.54276 5.83722,-16.46756 7.21046,-20.77719 14.42091,-34.477 21.63137,-79.72469 21.63137,-135.74978 0,-25.24205 -0.6932,-40.33078 -2.06645,-45.25601 v -17.54396 c -2.06033,-7.38799 -4.63468,-18.01151 -7.72495,-31.86389 -3.09026,-13.85234 -6.34889,-26.00863 -9.78246,-36.47489 C 872.29778,106.40827 868.51713,96.86311 864.39694,88.243858 824.5673,3.2827893 763.4543,-61.973068 681.04855,-107.53194 c -4.80682,-2.46257 -9.61363,-4.00451 -14.42092,-4.62021 -28.15521,-13.54453 -56.31276,-24.31953 -84.46797,-32.32308 -2.74695,-0.61556 -8.93124,-1.23056 -18.54534,-1.84626 -9.61363,-0.61575 -16.82409,-1.54269 -21.63137,-2.774 -18.1978,-3.07827 -34.49986,-4.77163 -48.92078,-5.07944 z m 4.03225,34.75721 c 47.3566,0.30286 91.15594,8.26865 131.41448,23.891009 40.60232,15.755873 77.99493,38.230423 112.18017,67.410999 H 678.9821 c -8.73983,-21.797947 -28.9641,-36.387741 -40.16731,-55.405814 -0.68662,-1.231215 -1.02899,-2.461206 -1.02899,-3.692467 -18.5411,0.615701 -41.20805,4.305205 -67.98954,11.077447 -2.06034,0.61556 -6.34513,1.079123 -12.8685,1.386974 -6.52383,0.308039 -10.81803,1.386268 -12.87789,3.233231 h -10.3059 c -13.67786,-16.350083 -25.39555,-25.31114 -43.26274,-43.409799 h -4.11502 c -13.81941,13.35105 -24.6398,26.644875 -43.26321,41.563542 v 1.846257 c -32.69678,-12.170492 -66.88484,-10.64911 -100.4319,-15.697699 -16.31759,18.316545 -24.05618,37.608608 -42.54085,60.345344 -21.87122,1.069858 -43.86518,0.884095 -65.25816,1.150372 15.81865,-16.245067 35.7363,-31.521247 59.89735,-45.79797 4.80728,-2.462617 11.33347,-5.234401 19.57386,-8.312718 8.24085,-3.078318 14.41574,-5.538019 18.53593,-7.384981 40.51626,-19.085467 88.41463,-29.709087 143.69511,-31.863847 6.90995,-0.26948 13.75499,-0.38329 20.52008,-0.34002 z m -10.72821,59.90661 h 4.11502 c 12.7006,11.705142 27.03639,28.334575 43.26274,48.020834 h 63.86559 c -5.32178,-8.740633 -20.46458,-15.114777 -22.66036,-25.856674 17.85449,-2.462616 32.2754,-4.619451 43.26274,-6.466461 1.37372,5.540981 6.52243,16.315987 15.44991,32.323135 H 748.00064 V 103.02304 c 17.46791,6.46858 27.91865,13.76862 46.35817,24.01042 -2.74695,19.70107 -4.46632,33.55072 -5.15294,41.55432 -17.64098,-14.38578 -23.47631,-19.63801 -41.20523,-34.16934 v 54.48729 c 25.6434,17.24278 41.13986,40.3708 65.92263,57.26124 -1.37324,4.30958 -4.28997,8.92616 -8.75347,13.85144 -17.54927,19.15267 -38.97419,36.00672 -57.16916,48.02084 v 54.48729 c 16.06598,-11.52304 21.11405,-21.16625 36.05228,-34.16939 2.05986,1.84701 4.29232,8.77181 6.69596,20.77719 2.40365,12.00537 3.60993,20.47211 3.60993,25.39739 -18.13383,11.00855 -27.39569,16.95544 -46.35817,24.92898 V 513.05546 H 630.57535 c -3.48437,12.49381 -9.16357,18.14324 -14.42092,30.46771 -4.80681,-0.61575 -12.71047,-1.69412 -23.69828,-3.23323 -10.98734,-1.53912 -19.2235,-2.92035 -24.7174,-4.15175 5.76902,-8.04504 9.88733,-12.70709 17.50694,-20.31795 h 2.06692 v -2.76478 h -55.62615 c -5.9656,16.92741 -28.80514,31.68147 -41.20523,48.02083 h -4.11502 c -15.52327,-20.45165 -33.84334,-29.1049 -41.2057,-48.02083 h -53.56863 c 4.18838,11.39498 12.11415,13.17408 17.51635,21.23647 -4.80682,0.6157 -12.53036,1.99694 -23.17439,4.15175 -10.64403,2.15481 -19.06078,3.84822 -25.2413,5.07949 -7.56553,-12.05843 -7.48087,-17.47901 -13.90642,-25.85668 -0.34331,-1.84696 -0.5145,-3.37958 -0.5145,-4.61103 H 230.90403 V 399.46071 c -17.32207,-9.23537 -31.07287,-16.79737 -48.41578,-26.78441 1.37343,-5.54093 2.75095,-13.5442 4.12419,-24.01042 1.37348,-10.46621 2.75081,-18.1574 4.12424,-23.08268 18.33705,5.04873 23.04238,26.28977 38.10984,35.08792 h 2.05751 v -52.63187 c -2.06009,-1.23131 -5.31867,-3.38819 -9.78232,-6.46646 -19.67906,-13.60769 -35.43023,-35.0525 -53.05442,-50.79478 9.24168,-23.56153 45.23579,-41.9061 62.83674,-59.09833 v -54.4873 h -2.05751 c -8.72906,11.73896 -25.47494,23.7061 -38.10984,33.24166 -1.37348,-20.31678 -4.12814,-34.78138 -8.24843,-43.40058 17.93825,-11.69616 31.64009,-17.03972 43.77724,-25.85668 2.40336,-1.846915 3.95173,-2.773947 4.63854,-2.773947 V -11.490276 h 112.28109 l 4.11502,-7.384981 c 3.43358,-5.540934 6.87232,-10.933022 10.3059,-16.166152 3.43404,-5.233084 5.49531,-8.156301 6.18193,-8.772002 8.92748,1.84701 23.34793,4.003845 43.26274,6.466461 -7.31439,8.72977 -18.75273,12.97285 -25.75532,24.010417 v 1.846257 H 443.103 v -1.846257 c 16.00296,-15.764668 23.67665,-28.107707 43.26321,-46.174577 z m 0.58636,29.534169 C 473.62696,0.54207448 473.76334,32.355418 465.88131,69.408193 453.556,64.057678 434.07056,47.083947 413.8651,42.201275 c 5.73987,20.678614 18.44893,30.4599 26.23314,49.885432 -21.83406,5.613076 -38.8425,4.353551 -61.97315,14.788403 21.10465,10.62145 37.53416,10.24273 61.27524,15.85383 -6.0653,16.0523 -19.48403,29.02703 -27.60215,46.18375 17.57091,-4.92547 35.69393,-12.32028 52.19117,-18.07091 5.69001,12.58208 8.37394,29.70264 23.95506,54.95913 14.44302,-24.66807 18.09527,-42.90415 23.78529,-55.48614 16.49723,5.75064 33.79819,12.92846 51.3691,17.85392 -8.11812,-17.15676 -21.54578,-30.12228 -27.61109,-46.17457 23.74109,-5.6111 40.17013,-5.23233 61.27525,-15.85384 C 573.63231,95.705432 556.62387,96.964958 534.7898,91.351882 542.57354,71.92635 555.28308,62.135846 561.02294,41.457279 540.81749,46.339904 521.33157,63.322806 509.00626,68.673368 501.12423,31.620593 499.78391,1.2901618 486.95257,-29.976941 Z m -268.05372,19.50625 -1.38698,3.6006187 1.02881,60.9445393 C 193.86109,69.632584 164.88725,85.332587 137.168,104.86929 v 2.77395 c 4.75828,30.02122 12.30669,61.95138 17.5164,90.49373 -14.3516,20.78278 -27.54482,35.47858 -41.20533,52.64104 15.95993,14.03255 25.28015,22.94027 41.20533,36.0156 l -14.25571,77.88229 c -1.87019,8.06728 -3.26563,13.97739 -5.3183,20.93332 h -3.09543 l -20.60267,-66.49248 c -4.35345,-12.64745 -5.48666,-23.47593 -5.14377,-38.78042 0,-105.27785 25.40289,-190.248133 76.21973,-254.892474 2.74686,-3.693925 7.90503,-8.92541 15.45889,-15.6976995 7.55386,-6.7722424 12.70281,-11.6916439 15.44971,-14.7699618 2.7027,-2.181008 3.83704,-3.925353 5.502,-5.4468757 z m 541.98862,0.7255597 c 34.45237,33.4010823 60.71937,70.0663873 78.7916,109.9941313 5.4939,11.69752 10.98499,29.09451 16.47842,52.18175 5.49391,23.08729 9.27455,37.70328 11.33488,43.85987 1.37324,5.54098 2.22823,13.85628 2.57154,24.93815 0.52484,10.79537 1.95311,20.81886 -2.57154,29.54914 3.43358,33.86136 -1.71561,69.57306 -15.4499,107.12834 -0.68662,5.54093 -2.40599,13.23216 -5.15295,23.08267 l -5.15294,4.62026 h -2.05751 c 0,-30.62822 -16.84525,-58.09126 -18.54534,-94.19541 6.86714,-3.07832 14.77127,-9.85169 23.69828,-20.31795 8.92748,-10.46622 16.47984,-17.23959 22.66036,-20.31791 -9.92025,-18.69898 -31.17163,-25.98548 -42.23422,-43.40058 0.30569,-34.59731 11.44917,-60.72421 17.50742,-91.43063 -0.68709,-5.54094 -3.09027,-8.92753 -7.21046,-10.15893 -16.83725,-4.45993 -56.52016,-40.259484 -75.19107,-49.867094 z M 302.38434,13.585625 c -6.14808,10.458126 -5.59314,19.241132 -8.2117,28.299962 -8.57147,-4.017013 -13.71548,-11.029995 -24.39619,-12.730839 1.37324,9.859307 6.78014,14.223298 10.29648,23.09185 -8.43602,4.503855 -20.10152,5.290459 -27.81283,9.231238 7.44325,5.685359 18.53217,6.422959 27.81283,11.077494 -2.5974,9.322662 -8.72854,16.522302 -10.29648,25.856674 10.23017,-3.875691 14.39504,-10.301943 24.39619,-14.044354 2.0782,9.351961 5.04149,19.51564 8.79956,30.2289 3.6104,-10.54156 6.1255,-19.735879 8.65236,-30.394253 10.00115,3.742458 14.36824,10.480981 24.59842,14.356672 -1.56841,-9.334372 -7.70896,-16.534012 -10.30589,-25.856674 9.28019,-4.654535 20.36958,-5.392135 27.81283,-11.077447 -7.71131,-3.940826 -19.37728,-4.736601 -27.81283,-9.240456 3.51634,-8.868598 8.93265,-13.223372 10.30589,-23.082679 -10.68071,1.700844 -16.02742,8.401555 -24.59842,12.418521 -2.61903,-9.058783 -2.67688,-18.018477 -9.24022,-28.134609 z m 371.93156,0.551178 c -6.14808,10.458126 -5.60207,19.241132 -8.22063,28.299962 -8.57148,-4.017013 -13.70655,-11.029949 -24.38726,-12.73084 1.37324,9.859308 6.78014,14.223299 10.29695,23.091898 -8.43602,4.503807 -20.10152,5.290411 -27.8133,9.231237 7.44372,5.68536 18.53264,6.422913 27.8133,11.077495 -2.5974,9.322615 -8.72854,16.522255 -10.29695,25.856627 10.23017,-3.875691 14.38611,-10.301943 24.38726,-14.044354 2.07773,9.35196 5.04148,19.515642 8.79909,30.228892 3.61087,-10.54155 6.12597,-19.726701 8.65283,-30.385028 10.00114,3.742411 14.37717,10.471764 24.60735,14.347455 -1.56841,-9.334372 -7.70849,-16.534012 -10.30589,-25.856674 9.28066,-4.654535 20.36958,-5.392088 27.8133,-11.077448 -7.71178,-3.940826 -19.37728,-4.7366 -27.8133,-9.240455 3.51681,-8.868599 8.93265,-13.223372 10.30589,-23.08268 -10.68071,1.700844 -16.03635,8.410726 -24.60735,12.427739 -2.61904,-9.058783 -2.66748,-18.027647 -9.23129,-28.143826 z M 338.13877,141.0232 c -10.43522,23.13079 -9.17532,40.13904 -14.78868,61.97329 -19.42525,-7.78407 -29.21571,-20.49342 -49.89427,-26.23323 4.88253,20.20559 21.86557,39.69123 27.21604,52.0164 -37.05306,7.88217 -67.38335,9.22272 -98.65045,22.05397 30.51887,13.32547 62.33245,13.18895 99.38504,21.07111 -5.35047,12.32517 -22.32411,31.81081 -27.20664,52.01641 20.67857,-5.73982 30.45962,-18.44917 49.88534,-26.23324 5.61289,21.83426 4.35346,38.84251 14.78821,61.9733 10.62146,-21.10498 10.24287,-37.53435 15.85388,-61.2752 16.05234,6.0653 29.02712,19.48399 46.1837,27.60186 -4.92533,-17.57071 -11.9044,-35.90179 -17.65508,-52.39916 12.58208,-5.68983 32.78472,-10.81132 54.54354,-23.74711 -21.63655,-14.3419 -43.11225,-18.51105 -55.69434,-24.20079 5.75068,-16.49737 13.13656,-33.38274 18.06189,-50.95345 -17.15658,8.11787 -30.12243,21.54573 -46.1743,27.61103 -5.61148,-23.74084 -5.23242,-40.17022 -15.85388,-61.27519 z m 295.04527,0.85382 c -10.62146,21.10497 -10.24288,37.53435 -15.85389,61.27519 -16.05234,-6.0653 -29.02712,-19.48398 -46.1837,-27.60186 4.92533,17.57076 12.73587,34.44686 18.48656,50.94428 -12.58209,5.68978 -32.5176,11.1796 -55.38395,25.20199 22.48589,14.23491 43.95266,17.05613 56.53474,22.74591 -5.75068,16.49737 -13.96802,34.83762 -18.89335,52.40834 17.15658,-8.11793 30.12242,-21.54569 46.17476,-27.61109 5.61101,23.7409 5.23196,40.17022 15.85389,61.27525 10.43475,-23.13079 9.17485,-40.13904 14.7882,-61.9733 19.42525,7.78407 29.21618,20.49342 49.89475,26.23324 -4.883,-20.2056 -21.86558,-39.69124 -27.21604,-52.01645 37.05258,-7.88212 67.37394,-9.22268 98.64104,-22.05393 -30.51934,-13.32547 -62.32352,-13.18894 -99.3761,-21.07111 5.35046,-12.32517 22.3241,-31.8108 27.2071,-52.0164 -20.67856,5.73982 -30.46009,18.44916 -49.88581,26.23323 -5.61288,-21.83425 -4.35345,-38.8425 -14.7882,-61.97329 z M 488.06536,298.27536 c -14.23515,22.48575 -17.26427,43.53687 -22.95382,56.11882 -16.49723,-5.75063 -34.62966,-13.55196 -52.20057,-18.47743 8.11812,17.15677 21.54578,30.12228 27.61109,46.17458 -23.74061,5.6111 -40.17013,5.23238 -61.27525,15.85388 23.13065,10.43484 40.13909,9.17527 61.97316,14.78835 -7.78374,19.42553 -20.49328,29.21603 -26.23314,49.8946 20.20592,-4.88262 39.69137,-21.86553 52.01668,-27.21609 7.88203,37.05278 9.23175,67.37408 22.06309,98.64109 13.32515,-30.51897 13.17983,-62.32314 21.06186,-99.37591 12.32531,5.35051 31.81075,22.32429 52.01621,27.20691 -5.73987,-20.67861 -18.44893,-30.4599 -26.23314,-49.88543 21.83453,-5.61307 38.8425,-4.35355 61.97315,-14.78835 -21.10465,-10.6215 -37.53416,-10.24278 -61.27524,-15.85388 6.06577,-16.05229 19.48403,-29.02703 27.60215,-46.18375 -17.57091,4.92547 -34.86246,12.94384 -51.36017,18.69447 -5.68954,-12.58213 -10.66002,-32.82949 -24.78606,-55.59186 z m -185.68102,84.43129 c -6.14808,10.45813 -5.59314,19.2503 -8.2117,28.30918 -8.57147,-4.01701 -13.71548,-11.03917 -24.39619,-12.74006 1.37324,9.85931 6.78014,14.2233 10.29648,23.0919 -8.43602,4.50381 -20.10152,5.29041 -27.81283,9.23124 7.44325,5.68536 18.53217,6.42291 27.81283,11.07749 -2.5974,9.32262 -8.72854,16.52226 -10.29648,25.85663 10.23017,-3.87569 14.39504,-10.29272 24.39619,-14.03514 2.0782,9.35196 5.04149,19.51564 8.79956,30.22885 3.6104,-10.54151 6.1255,-19.73583 8.65236,-30.3942 10.00115,3.74241 14.36824,10.47176 24.59842,14.34746 -1.56841,-9.33433 -7.70896,-16.53402 -10.30589,-25.85663 9.28019,-4.65458 20.36958,-5.39214 27.81283,-11.0775 -7.71131,-3.94082 -19.37728,-4.7366 -27.81283,-9.24045 3.51634,-8.8686 8.93265,-13.22333 10.30589,-23.08268 -10.68071,1.70084 -16.02742,8.41072 -24.59842,12.42774 -2.61903,-9.05879 -2.67688,-18.02765 -9.24022,-28.14383 z m 372.44606,0 c -6.14808,10.45813 -5.59267,19.2503 -8.2117,28.30918 -8.57147,-4.01701 -13.71549,-11.03917 -24.3962,-12.74006 1.37324,9.85931 6.78015,14.2233 10.29649,23.0919 -8.43556,4.50381 -20.10152,5.29041 -27.81284,9.23124 7.44325,5.68536 18.53264,6.42291 27.81284,11.07749 -2.59693,9.32262 -8.72855,16.52226 -10.29649,25.85663 10.23018,-3.87569 14.39505,-10.29272 24.3962,-14.03514 2.0782,9.35196 5.04148,19.51564 8.79956,30.22885 3.61087,-10.54151 6.1255,-19.73583 8.65236,-30.3942 10.00114,3.74241 14.36824,10.47176 24.59841,14.34746 -1.56841,-9.33433 -7.70849,-16.53402 -10.30589,-25.85663 9.2802,-4.65458 20.36959,-5.39214 27.81284,-11.0775 -7.71132,-3.94082 -19.37728,-4.7366 -27.81284,-9.24045 3.51635,-8.8686 8.93265,-13.22333 10.30589,-23.08268 -10.68071,1.70084 -16.02694,8.41072 -24.59841,12.42774 -2.61904,-9.05879 -2.67688,-18.02765 -9.24022,-28.14383 z m -538.35137,7.51361 c 21.96555,17.72718 50.84214,32.3031 82.0616,51.72251 0,41.86491 -0.68399,63.41483 -2.05751,64.64623 0.08,0.0658 0.14203,0.13497 0.22056,0.20222 -3.26243,3.09257 -12.77697,-8.29442 -18.7564,-13.135 -26.09506,-32.01435 -43.27064,-56.63905 -51.51122,-73.87751 0,-12.4014 -10.53285,-17.58783 -9.95689,-29.55831 z m 703.20004,4.6202 v 4.62025 c -4.1202,6.77224 -10.98876,17.24438 -20.60238,31.40457 -1.37372,2.46266 -2.58,5.53727 -3.60994,9.23124 -1.0304,3.69392 -2.22728,6.76857 -3.60099,9.23124 -15.71562,22.66628 -32.97519,43.11808 -51.71288,61.44972 0.51544,-1.51457 0.65323,-2.94683 0.21163,-4.18848 v -64.64623 c 28.66124,-17.38659 51.61694,-31.76156 79.31503,-47.10231 z m -96.45515,131.58882 c -33.76997,29.34489 -71.99922,52.30346 -114.71502,68.81636 -5.4939,2.46266 -13.38816,4.45889 -23.68888,5.998 -10.30072,1.53912 -17.85355,3.23253 -22.66036,5.07949 -25.40825,8.0036 -60.77627,12.00523 -106.09934,12.00523 h -30.89981 c -4.12019,-1.23126 -16.65055,-3.69105 -37.5953,-7.38502 -20.94475,-3.69398 -36.57195,-7.3927 -46.87267,-11.08667 C 311.90767,582.05674 271.11395,557.73024 238.2615,526.9069 h 61.66088 c 12.35353,21.1403 24.90317,37.27771 40.16731,60.02602 29.07368,-1.08246 66.07171,-10.65292 94.77433,-15.6977 h 15.44944 c 8.24085,8.0036 20.25813,19.69642 36.05275,35.08791 3.43357,-1.2314 10.81475,-6.46279 22.1454,-15.6977 11.33065,-9.2349 17.33481,-15.69624 18.02191,-19.39021 36.05698,5.46362 69.858,10.86286 101.97538,17.54396 3.43357,-0.61571 5.83675,-1.69408 7.21046,-3.23323 15.50869,-22.14437 28.4971,-37.06816 41.20523,-58.63905 h 63.86559 c 0.71954,-0.009 1.55336,-0.19705 2.43374,-0.47762 z"
     sodipodi:nodetypes="scscccsscccsccsccscsccssccccscscscccccsccccccccccscssccccccccccccccccccscccccsccccccccccsccccccsccccccccccccccccsccccccccccccccccccccccccccccccccccccccsccccsccccccccscccccccccccccccccccccccccccccccccccccccccccccccccccccccccccccccccccccccccccccccccccccccccccccccccccccccccccccccccccccccccccccccccccccccscccccccccscscccccccsccccccccc" />
</svg>
