<?xml version="1.0" encoding="UTF-8" standalone="no"?>
<svg
   xmlns:dc="http://purl.org/dc/elements/1.1/"
   xmlns:cc="http://creativecommons.org/ns#"
   xmlns:rdf="http://www.w3.org/1999/02/22-rdf-syntax-ns#"
   xmlns:svg="http://www.w3.org/2000/svg"
   xmlns="http://www.w3.org/2000/svg"
   xmlns:sodipodi="http://sodipodi.sourceforge.net/DTD/sodipodi-0.dtd"
   xmlns:inkscape="http://www.inkscape.org/namespaces/inkscape"
   version="1.1"
   viewBox="0 -205 1372.5454 865"
   id="svg6"
   sodipodi:docname="gandalf.svg"
   width="1372.5454"
   height="865"
   inkscape:version="0.92.5 (2060ec1f9f, 2020-04-08)">
  <metadata
     id="metadata12">
    <rdf:RDF>
      <cc:Work
         rdf:about="">
        <dc:format>image/svg+xml</dc:format>
        <dc:type
           rdf:resource="http://purl.org/dc/dcmitype/StillImage" />
        <dc:title></dc:title>
      </cc:Work>
    </rdf:RDF>
  </metadata>
  <defs
     id="defs10" />
  <sodipodi:namedview
     pagecolor="#ffffff"
     bordercolor="#666666"
     borderopacity="1"
     objecttolerance="10"
     gridtolerance="10"
     guidetolerance="10"
     inkscape:pageopacity="0"
     inkscape:pageshadow="2"
     inkscape:window-width="640"
     inkscape:window-height="480"
     id="namedview8"
     showgrid="false"
     fit-margin-top="50"
     fit-margin-left="50"
     fit-margin-right="50"
     fit-margin-bottom="50"
     inkscape:zoom="0.30712891"
     inkscape:cx="517.71659"
     inkscape:cy="577.76403"
     inkscape:current-layer="svg6" />
  <g
     transform="matrix(1,0,0,-1,9,558)"
     id="g4">
    <path
       d="m 512,289 h 10 v 26 h -5 q -3,9 -8.5,15 -5.5,6 -14.5,11 -9,5 -14,10 -4,4 -33.5,46.5 Q 417,440 402,445 h -31 v -5 q -10,-2 -34,5.5 -24,7.5 -29,11.5 -5,6 -14.5,19 -9.5,13 -11.5,17 -14,4 -21,5 v 6 h -11 v 5 h -10 v 5 q -5,2 -15.5,5 -10.5,3 -15.5,5 v 5 h -16 v 6 h -11 v 5 h -15 l -22,26 q -2,1 -7,2.5 -5,1.5 -8,2.5 -4,5 -10,16 h -5 v 11 q -2,1 -27,20 -1,4 -4.5,15 -3.5,11 -5.5,17 -4,1 -10,5 l -7,21 q -2,5 -10,15.5 -8,10.5 -10,16.5 3,2 5,5 H 56 Q 61,706 66.5,700.5 72,695 84,688.5 96,682 98,681 v -5 h 11 v -5 h 11 v -5 h 10 l 15,-21 q 4,-2 11,-6 v -10 h 6 q 6,-10 10,-16 h 5 5 v -5 q 112,11 152,0 h 94 v -5 h 22 v -5 h 20 v -6 h 22 v -5 h 25 v -5 h 15 v -5 h 17 q 2,-5 5,-11 h 15 v -5 h 11 v -5 h 16 q 1,-2 2.5,-5.5 1.5,-3.5 2.5,-5.5 9,-1 21,-5 4,-6 5,-11 h 11 v -5 h 10 l 2.5,-5 2.5,-5 h 11 l 5,-10 h 11 q 5,-9 10,-17 h 10 l 16,-20 h 11 q 1,-2 21,-27 h 10 l 10,-10 v -10 l 27,-22 52,-57 q 3,-1 8,-2.5 5,-1.5 7,-2.5 1,-2 3,-5 2,-3 3,-5 h 11 q 1,-1 4.5,-7 3.5,-6 5.5,-10 h 10 l 22,-25 52,-47 v -11 q 4,-3 10,-8 6,-5 10,-8 4,-6 5,-10 h 12 v -5 q 10,-9 25,-21 v -11 q 4,-1 11,-5 v -5 q 23,-23 131,-63 h 21 v -5 h 10 v -5 l 31,-6 v -5 q 2,-1 26,-6 24,-5 37.5,-12 13.5,-7 10.5,-18 h -5 Q 1304,18 1295.5,14 1287,10 1266,11 V 6 q -17,-2 -52,-5 -35,-3 -53,-5 v -5 h -26 Q 1035,-41 931,-41 H 857 Q 795,-23 689.5,-17.5 584,-12 512,-31 495,-32 460,-36 441,-41 412,-46.5 383,-52 348.5,-52 314,-52 303,-41 h 5 q 5,6 22,15.5 17,9.5 20,11.5 l 5,10 h 11 q 1,2 5,7 4,5 5,8 h 10 q 11,12 32,37 h 10 q 4,5 10,15 l 47,42 v 11 q 9,5 12,5 v 11 h 5 q 9,20 -4.5,48.5 Q 484,209 492,226 l 10,5 v 11 h 5 q -4,20 -5,31 5,2 10,6 z"
       id="path2"
       inkscape:connector-curvature="0"
       style="fill:currentColor" />
  </g>
</svg>
