<?xml version="1.0" encoding="UTF-8" standalone="no"?>
<svg
   xmlns:dc="http://purl.org/dc/elements/1.1/"
   xmlns:cc="http://creativecommons.org/ns#"
   xmlns:rdf="http://www.w3.org/1999/02/22-rdf-syntax-ns#"
   xmlns:svg="http://www.w3.org/2000/svg"
   xmlns="http://www.w3.org/2000/svg"
   xmlns:sodipodi="http://sodipodi.sourceforge.net/DTD/sodipodi-0.dtd"
   xmlns:inkscape="http://www.inkscape.org/namespaces/inkscape"
   version="1.1"
   viewBox="0 -252 804 1095.225"
   id="svg6"
   sodipodi:docname="gollum.svg"
   width="804"
   height="1095.225"
   inkscape:version="0.92.5 (2060ec1f9f, 2020-04-08)">
  <metadata
     id="metadata12">
    <rdf:RDF>
      <cc:Work
         rdf:about="">
        <dc:format>image/svg+xml</dc:format>
        <dc:type
           rdf:resource="http://purl.org/dc/dcmitype/StillImage" />
        <dc:title></dc:title>
      </cc:Work>
    </rdf:RDF>
  </metadata>
  <defs
     id="defs10" />
  <sodipodi:namedview
     pagecolor="#ffffff"
     bordercolor="#666666"
     borderopacity="1"
     objecttolerance="10"
     gridtolerance="10"
     guidetolerance="10"
     inkscape:pageopacity="0"
     inkscape:pageshadow="2"
     inkscape:window-width="640"
     inkscape:window-height="480"
     id="namedview8"
     showgrid="false"
     fit-margin-top="50"
     fit-margin-left="50"
     fit-margin-right="50"
     fit-margin-bottom="50"
     inkscape:zoom="0.61425781"
     inkscape:cx="98.302862"
     inkscape:cy="584.24324"
     inkscape:current-layer="svg6" />
  <g
     transform="matrix(1,0,0,-1,-137,541.225)"
     id="g4">
    <path
       d="m 251,188 h -3 l -3,6 3,1 z m 178,164 q -13,6 -13,17 0,4 -2,5 -4,-2 -4,-18 l -13,-12 q -3,-4 -6,-12.5 -3,-8.5 -7,-13.5 0,-2 -3.5,-9 -3.5,-7 -2.5,-9 l -4,-4 -3,-3 v -1 q 1,-1 4.5,-5.5 3.5,-4.5 6.5,-4.5 h 10 q 8,0 12.5,5 4.5,5 7,14 2.5,9 4.5,12 -1,3 -1,9 0,8 9,8 -2,6 -2,9 0,5 3.5,8 3.5,3 3.5,5 z M 557,68 549,65 q -2,-1 -6,-5.5 -4,-4.5 -7,-6.5 v -7 q -4,-4 -7.5,-9.5 -3.5,-5.5 -5,-9 Q 522,24 517,21 q -5,-3 -12,-3 -3,0 -15,9 v 12 q 1,8 0.5,22 -0.5,14 -0.5,21 -5,8 -5,16 0,8 -3,10.5 -3,2.5 -19,2.5 -3,0 -16,20 h -13 q 0,-5 -7,-10 l 7,-5 v -3 q 0,-3 4,-7 4,-4 3,-11 3,-2 7,-8.5 4,-6.5 7,-8.5 l -1,-6 6,-7 1,-8 Q 470,49 480,22.5 490,-4 499,-9 v -6 q -1,-7 5,-18 6,-11 7,-16 5,-5 6,-12 5,-4 13,-14.5 8,-10.5 12,-14.5 l 4,9 7,-9 q 15,15 14,21 1,0 4,-4 9,-9 10,-4 l 3,1 q 2,0 9,-6 7,-6 8,-8 h 9 q 0,3 7,10 3,7 0,14 l 8,3 V 3 q -16,13 -14,25 -1,4 -6.5,8.5 -5.5,4.5 -5.5,8.5 0,15 13,29 -2,0 -5,4 -3,4 -6,4 -3,0 -8.5,-1 -5.5,-1 -8.5,-1 -6,4 -11,4 -1,0 -4.5,-3.5 Q 565,77 561.5,73 558,69 557,68 Z M 429,-8 q -7,4 -7,23 0,7 -5,12 -3,19 -14,30 -1,18 -11,25 -1,-1 -3,-4 -2,-3 -3,-5.5 -1,-2.5 -1,-4.5 l 6,-3 q -5,-5 -6.5,-13 -1.5,-8 -3.5,-11 3,-10 3,-23 0,-16 -12,-48 -12,-32 -13,-38 -9,-6 -6,-18 -2,-1 -6,-5.5 -4,-4.5 -7,-5.5 v -8 l 3,-4 q 4,1 10,0 v 11 q 2,2 63,68 v 6 q 3,2 7,8 4,6 6,8 z m 227,383 18,-80 9,-13 v -50 q -6,5 -7,-6 -1,-6 0,-9 l -9,-14 9,-10 -9,-9 8,-12 q -2,-9 8,-13 V 49 Q 676,43 674,32.5 672,22 673.5,2.5 675,-17 675,-18 l -6,-5 7,-4 q -2,-29 0,-87 l 41,-1 6,-5 q 13,-2 37.5,1 24.5,3 33.5,3 4,-8 11,-16.5 7,-8.5 12.5,-14 5.5,-5.5 17,-14 Q 846,-169 849,-172 l 8,-1 13,-18 -2,-9 q 17,-34 23,-42 l -8,-6 -65,2 q -4,-5 -23.5,-2.5 Q 775,-246 767,-251 l -17,5 -10,-6 q -53,0 -105,6 l -10,-6 q -17,0 -30,4 l -7,-4 h -35 q -2,5 -7.5,5 -5.5,0 -6.5,-5 l -43,4 -6,-4 H 187 v 19 h 7 l 7,18 15,5 q 3,4 9,13.5 6,9.5 10.5,14.5 4.5,5 11,11 6.5,6 13.5,10 l -10,6 q 22,13 19,45 l 10,9 -10,10 10,5 -3,13 q 12,17 8,76 11,13 21,30.5 10,17.5 15.5,31.5 5.5,14 14,36.5 Q 343,124 347,135 l -21,21 2,11 -7,2 q -13,-6 -26,-28 l 1,-6 -12,-13 -2,-8 -13,-11 V 90 l 10,-6 V 45 l -10,-7 10,-5 -10,-4 -5,-20 6,-7 1,-19 -7,-10 6,-34 -38,-33 -19,14 1,6 -20,32 q 0,7 2,25.5 2,18.5 2,32 0,13.5 -4,25.5 12,13 8,49 5,2 5,12 0,9 29.5,56 29.5,47 39.5,57 -1,13 10.5,42.5 11.5,29.5 20.5,42.5 16,23 14,26 2,18 12,23 v 13 q 10,9 33,58 l -7,4 1,21 q 4,5 11.5,18 7.5,13 12.5,18 l -6,11 h -28 l -51,-31 -5,7 -12,-9 -10,9 q -5,-4 -19.5,12.5 Q 238,497 239,507 l -16,33 q 7,26 -10,44 v 51 q 3,-3 4.5,2.5 1.5,5.5 1.5,9.5 3,13 25.5,41.5 22.5,28.5 34.5,34.5 3,2 12.5,5 9.5,3 16.5,7 7,4 8,8 40,3 74,-34 v -7 l 12,-18 q -4,-42 12.5,-73 16.5,-31 57.5,-25 l 1,4 13,3 q 2,-2 20,-8 17,-5 48,-48 v -3 q 6,-8 30.5,-29.5 Q 609,483 621,464 q 12,-19 8,-39 5,0 8,-4.5 3,-4.5 1,-9.5 13,-16 18,-36 z"
       id="path2"
       inkscape:connector-curvature="0"
       style="fill:currentColor" />
  </g>
</svg>
