<?xml version="1.0" encoding="UTF-8" standalone="no"?>
<svg
   xmlns:dc="http://purl.org/dc/elements/1.1/"
   xmlns:cc="http://creativecommons.org/ns#"
   xmlns:rdf="http://www.w3.org/1999/02/22-rdf-syntax-ns#"
   xmlns:svg="http://www.w3.org/2000/svg"
   xmlns="http://www.w3.org/2000/svg"
   xmlns:sodipodi="http://sodipodi.sourceforge.net/DTD/sodipodi-0.dtd"
   xmlns:inkscape="http://www.inkscape.org/namespaces/inkscape"
   version="1.1"
   viewBox="0 -205 761 900"
   id="svg6"
   sodipodi:docname="king_block.svg"
   width="761"
   height="900"
   inkscape:version="0.92.5 (2060ec1f9f, 2020-04-08)">
  <metadata
     id="metadata12">
    <rdf:RDF>
      <cc:Work
         rdf:about="">
        <dc:format>image/svg+xml</dc:format>
        <dc:type
           rdf:resource="http://purl.org/dc/dcmitype/StillImage" />
        <dc:title></dc:title>
      </cc:Work>
    </rdf:RDF>
  </metadata>
  <defs
     id="defs10" />
  <sodipodi:namedview
     pagecolor="#ffffff"
     bordercolor="#666666"
     borderopacity="1"
     objecttolerance="10"
     gridtolerance="10"
     guidetolerance="10"
     inkscape:pageopacity="0"
     inkscape:pageshadow="2"
     inkscape:window-width="640"
     inkscape:window-height="480"
     id="namedview8"
     showgrid="false"
     fit-margin-top="50"
     fit-margin-left="50"
     fit-margin-right="50"
     fit-margin-bottom="50"
     inkscape:zoom="0.61425781"
     inkscape:cx="-288.27424"
     inkscape:cy="644"
     inkscape:current-layer="svg6" />
  <g
     transform="matrix(1,0,0,-1,-3,563)"
     id="g4">
    <path
       d="m 435,599 q 0,-24 -6,-42 -2,-7 -11,-29.5 -9,-22.5 -11,-33.5 -2,-8 -2.5,-25 -0.5,-17 -3,-26 -2.5,-9 -9.5,-10 l -3,285 q 20,-17 33,-54.5 13,-37.5 13,-64.5 z m 46,-52 q 0,-27 -39,-90 -8,-14 -8,-61 -19,19 -19,40 0,20 15.5,65 15.5,45 18.5,63 1,8 -1,23 -2,15 -1.5,26 0.5,11 7.5,16 27,-62 27,-82 z M 380,444 q -5,-7 -10,-11 -4,4 -8,4 8,33 -11,84.5 -19,51.5 -19,77.5 0,29 16,70.5 16,41.5 32,48.5 z m 151,-26 q 0,-24 -21.5,-56 -21.5,-32 -25.5,-60 -4,1 -6.5,2.5 -2.5,1.5 -1.5,3.5 0,2 -2.5,9 -2.5,7 -2.5,11 0,30 20,66.5 20,36.5 20,46.5 v 13 l -4,5 q -7,-19 -42,-72 -3,-4 -5.5,-17 -2.5,-13 -4.5,-17 -10,20 -10,32 0,25 18.5,65.5 18.5,40.5 22.5,57.5 3,14 3,31 8,-7 12.5,-18.5 4.5,-11.5 5.5,-19.5 1,-8 2,-22 1,-14 1,-16 21,-18 21,-45 z m 183,91 q 0,-4 -10.5,-25.5 Q 693,462 691,454 683,424 675,372.5 667,321 667,312 q 0,-10 9,-73 1,-7 8,-30 7,-23 7,-27 0,-8 -3.5,-16.5 Q 684,157 677,145.5 670,134 666,125 q -5,-11 -5,-38 0,-19 5,-34 1,-3 6,-14 5,-11 5,-16 V 5 l -8,-7 -90,40 q -38,9 -130,24 l -7,7 q 8,21 27,40 l 5,1 q 4,2 10.5,4 6.5,2 10.5,4 5,3 16,10.5 11,7.5 19.5,13 8.5,5.5 12.5,5.5 3,0 15.5,-5 12.5,-5 17.5,-5 10,0 14,6 2,19 2.5,23 0.5,4 -2.5,23 -3,19 -4,23 -4,41 22,133 17,59 38.5,100.5 21.5,41.5 62.5,73.5 5,-5 5,-10 z M 352,439 q 0,-11 -0.5,-16 -0.5,-5 -5.5,-12 -5,-7 -15,-14 6,36 -20,83 -26,47 -26,71 0,13 14.5,43 14.5,30 19.5,35 1,-8 -1.5,-31 -2.5,-23 -0.5,-34 1,-7 18,-54.5 Q 352,462 352,439 Z M 544,262 q -2,-7 -5.5,-25.5 Q 535,218 532,206 529,194 522.5,178 516,162 505,149.5 494,137 478,128 v 17 q 0,3 4,14 4,11 4,16 0,9 -1.5,29.5 -1.5,20.5 -1.5,37 0,16.5 4,30.5 5,20 26.5,54 21.5,34 25.5,44 5,-5 5,-108 z M 325,381 q 0,-2 -13,-28 -1,9 -9,28 -5,12 -21.5,39.5 Q 265,448 260,463 l -4,-6 q 1,-3 2,-14.5 1,-11.5 3,-17.5 2,-7 12,-24.5 10,-17.5 13,-26.5 9,-22 9,-46 0,-10 -10,-28 -1,16 -25,56.5 -24,40.5 -24,61.5 0,25 22,47 -8,48 20,74 -2,-28 22.5,-78 Q 325,411 325,381 Z M 468,209 Q 468,175 453.5,125 439,75 420,68 q -2,2 -6,4 l -6,3 q 1,3 12.5,25 11.5,22 15.5,33 6,16 6,52 0,34 -9.5,60 -9.5,26 -40.5,66 -1,1 0.5,44.5 1.5,43.5 -0.5,47.5 32,-37 54,-92 22,-55 22,-102 z m -93,105 q 0,-3 -5,-10 -5,-7 -12.5,-17 -7.5,-10 -11.5,-16 -13,-20 -19,-59 0,-3 -1,-12 -1,-9 -1,-13 0,-67 33,-101 V 72 q -4,-1 -7,-4 -24,10 -38,60.5 -14,50.5 -14,80.5 0,97 76,194 z m 63,-133 q -4,0 -9,-1.5 -5,-1.5 -11.5,-4 -6.5,-2.5 -9.5,-3.5 4,-5 9,-15.5 5,-10.5 8,-15.5 -30,12 -34,13 -1,-8 -3.5,-32.5 Q 385,97 383,84 q -7,48 -8,64 -5,6 -10,6 -4,0 -14,-6 -10,-6 -12,-7 4,4 7,13.5 3,9.5 6,14.5 -1,4 -8,8.5 -7,4.5 -12,3.5 2,4 10,10 8,6 10,8 -7,22 -13,31 4,-1 15,-6.5 11,-5.5 15,-6.5 9,26 14,70 7,-70 12,-70 4,0 9,2.5 5,2.5 11,6 6,3.5 10,4.5 -6,-9 -13,-31 4,-3 13,-8.5 9,-5.5 13,-9.5 z M 288,124 Q 257,141 239.5,191.5 222,242 222,275 v 82 q 0,9 10,9 3,-10 22.5,-41 19.5,-31 25.5,-49 1,-4 1,-74 0,-16 1,-27 1,-11 2.5,-14.5 1.5,-3.5 2.5,-6 1,-2.5 1,-5.5 z m 37,-59 q -14,-7 -25,-7 -3,0 -9.5,-2 Q 284,54 280,54 h -19 q -4,0 -7,-3 -3,-3 -7,-3 h -16 q -4,0 -6.5,-3.5 Q 222,41 217,41 203,41 174,30.5 145,20 123.5,9.5 102,-1 101,-2 90,9 90,13 q 0,4 9.5,38 9.5,34 9.5,38 0,23 -16.5,51 -16.5,28 -16.5,40 0,4 6.5,25.5 6.5,21.5 7.5,29.5 10,57 10,73 0,31 -16,113 -3,12 -10.5,33 -7.5,21 -14,38 -6.5,17 -6.5,19 0,6 3.5,6.5 Q 60,518 62,515 94,492 120.5,441.5 147,391 157,356 q 10,-35 16,-67 3,-11 3,-20 3,-3 0,-126 4,-6 15,-6 4,0 16.5,5 12.5,5 16.5,5 4,0 10,-4 6,-4 16,-11.5 10,-7.5 15,-10.5 3,-2 16.5,-5.5 Q 295,112 298,109 322,85 325,65 Z m 345,-81 q 2,-10 -10,-15 -82,-31 -91,-31 h -16 q -3,0 -14.5,-3.5 Q 527,-69 523,-69 q -4,0 -8.5,-3 -4.5,-3 -8.5,-3 h -23 q -3,0 -13.5,-2.5 Q 459,-80 454,-80 q -29,-2 -127,-2 -3,0 -11,3.5 -8,3.5 -12,3.5 -4,0 -12,1.5 -8,1.5 -12,1.5 -4,0 -10,1.5 -6,1.5 -9,1.5 -5,0 -9,2 -4,2 -8,2 -4,0 -6.5,1.5 -2.5,1.5 -6.5,1.5 -5,0 -14,3.5 -9,3.5 -13,3.5 -7,0 -91,31 7,19 95.5,43.5 Q 297,44 340,44 348,44 366.5,28.5 385,13 390,4 q 3,6 25.5,23 22.5,17 31.5,17 4,0 14.5,-3 10.5,-3 14.5,-3 5,0 12.5,-2 7.5,-2 11.5,-2 4,0 10,-1.5 6,-1.5 10,-1.5 h 19 q 4,0 6.5,-3.5 2.5,-3.5 7.5,-3.5 4,0 6.5,-1.5 2.5,-1.5 6.5,-1.5 30,0 104,-37 z m -16,87 q 0,13 -12,20 -15,-17 -15,-25 0,-12 12,-18 2,2 6,4 l 6,3 q 0,1 1.5,6 1.5,5 1.5,10 z m -50,15 q 0,10 -8,18 -15,-12 -15,-23 0,-6 8,-20 15,3 15,25 z m -56,13 q 0,6 -12,18 -15,-15 -15,-25 0,-12 12,-18 15,15 15,25 z M 246,92 q 0,7 -5.5,15 -5.5,8 -10.5,10 -11,-11 -11,-18 0,-6 7.5,-14.5 Q 234,76 238,74 q 1,2 3,5.5 2,3.5 3.5,6.5 1.5,3 1.5,6 z M 189,79 q 0,9 -14,25 -12,-5 -12,-20 0,-4 7,-20 h 12 q 7,9 7,15 z M 139,55 v 18 q -2,5 -15,18 -11,-13 -11,-18 0,-9 8,-21 8,-4 11,-4 0,7 7,7 z"
       id="path2"
       inkscape:connector-curvature="0"
       style="fill:currentColor" />
  </g>
</svg>
