<?xml version="1.0" encoding="UTF-8" standalone="no"?>
<svg
   xmlns:dc="http://purl.org/dc/elements/1.1/"
   xmlns:cc="http://creativecommons.org/ns#"
   xmlns:rdf="http://www.w3.org/1999/02/22-rdf-syntax-ns#"
   xmlns:svg="http://www.w3.org/2000/svg"
   xmlns="http://www.w3.org/2000/svg"
   xmlns:sodipodi="http://sodipodi.sourceforge.net/DTD/sodipodi-0.dtd"
   xmlns:inkscape="http://www.inkscape.org/namespaces/inkscape"
   version="1.1"
   viewBox="0 -205 785.30682 754"
   id="svg6"
   sodipodi:docname="men.svg"
   width="785.30682"
   height="754"
   inkscape:version="0.92.5 (2060ec1f9f, 2020-04-08)">
  <metadata
     id="metadata12">
    <rdf:RDF>
      <cc:Work
         rdf:about="">
        <dc:format>image/svg+xml</dc:format>
        <dc:type
           rdf:resource="http://purl.org/dc/dcmitype/StillImage" />
        <dc:title></dc:title>
      </cc:Work>
    </rdf:RDF>
  </metadata>
  <defs
     id="defs10" />
  <sodipodi:namedview
     pagecolor="#ffffff"
     bordercolor="#666666"
     borderopacity="1"
     objecttolerance="10"
     gridtolerance="10"
     guidetolerance="10"
     inkscape:pageopacity="0"
     inkscape:pageshadow="2"
     inkscape:window-width="640"
     inkscape:window-height="480"
     id="namedview8"
     showgrid="false"
     fit-margin-top="50"
     fit-margin-left="50"
     fit-margin-right="50"
     fit-margin-bottom="50"
     inkscape:zoom="0.61425781"
     inkscape:cx="-263.09243"
     inkscape:cy="595"
     inkscape:current-layer="svg6" />
  <g
     transform="matrix(1,0,0,-1,40.681818,466)"
     id="g4">
    <path
       d="m 514,445 q 2,1 5.5,2.5 3.5,1.5 13,4 9.5,2.5 11.5,-0.5 4,-2 10.5,-8 6.5,-6 10.5,-8 18,-11 19,-20 0,-16 -6,-24 -12,-20 -22,-23 -34,-5 -39,-4 -12,2 -25,21 -14,24 -10,36 7,15 32,24 z M 361,621 q -15,0 -41,-5.5 Q 294,610 273,605 252,600 227.5,593 203,586 199,585 184,581 155,558 L 126,536 Q 118,531 92.5,510 67,489 51,479 39,471 32,457 25,443 19.5,421.5 14,400 13,398 4,375 17,269 q 5,-41 24,-54 27,-19 40,-33 36,-42 61,-58 34,-20 84,-27 24,-1 27.5,9 3.5,10 -1.5,17 -1,4 -5,10 -4,6 -12,15.5 -8,9.5 -12,16.5 -2,3 -6.5,10 -4.5,7 -6.5,10 -2,3 -5.5,8 -3.5,5 -7.5,8 -4,3 -10,5 -3,1 -6,3 -3,2 -5,4 -2,2 -4.5,5.5 -2.5,3.5 -4,5.5 -1.5,2 -4,7.5 -2.5,5.5 -3.5,7 -1,1.5 -4,8 -3,6.5 -4,8.5 -1,3 -9,17.5 -8,14.5 -10.5,21 -2.5,6.5 -5,19 -2.5,12.5 -1.5,23.5 3,22 25.5,42 22.5,20 42.5,30 18,8 58,3 24,-3 36,-12 3,-1 7,1 4,2 9.5,7 5.5,5 8.5,6 12,5 25,-4 10,-5 26,10 3,3 12.5,0 9.5,-3 13.5,-8 9,-13 35,-24 16,-5 16,-28 0,-12 23,-34 7,-7 24,-43 2,-4 8,-17.5 6,-13.5 10.5,-20 4.5,-6.5 8.5,-6.5 7,0 9,2 2,2 5,10 4,8 8,9 4,1 19,-1 28,-1 49,-28 13,-20 7,-45 -1,-6 1,-13.5 2,-7.5 4,-12.5 l 3,-5 q 15,-1 35,-3 9,0 13,2 4,2 5.5,10 1.5,8 2.5,11 3,9 -11,32 -3,4 -2.5,9 0.5,5 1.5,7 1,2 6,9 l 4,7 q 1,10 1.5,11.5 0.5,1.5 -4,16 -4.5,14.5 -4.5,16.5 -2,6 -6.5,13 -4.5,7 -6.5,12 -2,5 -1,10.5 1,5.5 8.5,11.5 7.5,6 17,12.5 9.5,6.5 12.5,8.5 3,2 3.5,5 0.5,3 -1,8 -1.5,5 -3,8 -1.5,3 -5.5,9 -4,6 -5,9 -10,23 -18,51 -1,5 -6,13.5 -5,8.5 -12.5,19.5 -7.5,11 -14,21 -6.5,10 -18,25.5 Q 600,535 593,545 570,576 496,598.5 422,621 361,621 Z m 90,-464 q 15,3 20,5 9,4 16,-6 3,-1 4,-1 1,0 5,2.5 4,2.5 6,3.5 3,1 3.5,3.5 0.5,2.5 0,7 -0.5,4.5 -0.5,7.5 1,10 -4,32 0,1 -1,3.5 -1,2.5 -1.5,3.5 l -1.5,3 q 0,0 -2.5,3 -2.5,3 -4,2.5 -1.5,-0.5 -5.5,2 -4,2.5 -7,0.5 -20,1 -23,-26 0,-3 -1.5,-19.5 Q 452,167 451,157 Z m 88,66 q -6,-3 -9,-17.5 -3,-14.5 -1,-24.5 1,-6 4.5,-14 3.5,-8 2.5,-12 0,-3 -14,-21 -7,-9 5,-29 4,-6 13,-27 2,-4 9,-4.5 7,-0.5 11,1.5 3,2 7.5,7.5 4.5,5.5 7.5,7.5 3,3 5.5,10.5 2.5,7.5 3.5,15.5 l 1,8 q 1,3 -3,11.5 -4,8.5 -7,10.5 -8,5 -5,12 3,5 13,17 5,6 3,27 -1,10 -17,22 -5,4 -15,3.5 -10,-0.5 -15,-4.5 z m -67,-72 q -5,0 -11,-4 -1,-1 -5.5,-1.5 -4.5,-0.5 -8,-1.5 -3.5,-1 -4.5,-4 -3,-8 8,-23 7,-13 9,-31 2,-11 10,-11 5,0 19,12 4,3 11,21 1,6 1,25 0,7 -1,9 -1,2 -7,1 -4,-1 -10.5,3.5 Q 476,151 472,151 Z m 165,-18 q -13,3 -14,4 -4,3 -8.5,-2.5 Q 610,129 609,122 q 0,-4 1,-20.5 1,-16.5 0,-21.5 -1,-7 5.5,-11 6.5,-4 13.5,-5.5 7,-1.5 13,-5 6,-3.5 4,-7.5 -5,-10 -28,-14 -10,-2 -21,17 -7,12 -16,8 -4,-2 -15.5,-4 Q 554,56 549,54 532,48 521,66 514,77 498,60 484,48 474,49 q -22,2 -32,13 -20,26 -20,49 0,5 -1,28.5 -1,23.5 -1.5,40 -0.5,16.5 0.5,26.5 4,19 1,27 -6,17 -7,29 -1,8 -22,43 -5,9 -17.5,16.5 -12.5,7.5 -21.5,8.5 -12,2 -30,-24 -8,-11 -29,5 -27,20 -40,26 -22,7 -30,-23 -3,-12 1.5,-32 4.5,-20 16.5,-29 36,-34 80,-92 24,-30 24,-55 1,-36 35,-79 24,-32 100,-46 43,-8 76,1 h 8.5 q 0,0 9,-4.5 9,-4.5 10.5,-6.5 9,-4 57,-4 16,0 20,25 0,2 7,22 3,9 0,34 -3,28 -3,29 0,13 11,29 4,5 0,19 -3,12 -17,10 -19,-3 -23,-2 z M 453,249 q -5,-5 -10,-3.5 -5,1.5 -6,5.5 -1,4 0,7 5,7 -1,15 -1,2 0,5.5 1,3.5 3,6.5 l 2,2 q -8,6 -10,15 -2,8 -20,27 -29,25 -38,31 -9,6 -24,5.5 -15,-0.5 -23,-7.5 -4,-3 -9.5,-8.5 -5.5,-5.5 -9.5,-9 -4,-3.5 -7,-3.5 -4,0 -17,17 -6,8 -49,6 -41,-2 -49,-24 -4,-11 0.5,-33 4.5,-22 11.5,-33 27,-39 48,-57 6,-5 13,-12.5 7,-7.5 11.5,-14 4.5,-6.5 9.5,-13 5,-6.5 6,-7.5 12,-12 11,-18 -1,-3 4,-9.5 5,-6.5 8,-8.5 7,-3 4,-15 -1,-2 -0.5,-6.5 0.5,-4.5 0,-8.5 -0.5,-4 -1.5,-5 -5,-6 -19,-9 -12,-2 -17,5 -5,11 -3,20 3,15 5,17 6,6 -7,23 -3,4 -15,21.5 -12,17.5 -17,23.5 -9,8 -55,58 -19,19 -19,49 0,28 12,54 8,17 44,29 20,6 59,-3 13,-3 25,-19 2,-2 4,-0.5 2,1.5 5.5,6 3.5,4.5 6.5,6.5 13,10 25,10 18,0 34,-8 23,-12 41,-29 23,-22 26,-34 3,-25 12,-27 13,-6 13,-9 1,-2 -1,-7 -5,-12 -16,-23 z"
       id="path2"
       inkscape:connector-curvature="0"
       style="fill:currentColor" />
  </g>
</svg>
