<?xml version="1.0" encoding="UTF-8" standalone="no"?>
<svg
   xmlns:dc="http://purl.org/dc/elements/1.1/"
   xmlns:cc="http://creativecommons.org/ns#"
   xmlns:rdf="http://www.w3.org/1999/02/22-rdf-syntax-ns#"
   xmlns:svg="http://www.w3.org/2000/svg"
   xmlns="http://www.w3.org/2000/svg"
   xmlns:sodipodi="http://sodipodi.sourceforge.net/DTD/sodipodi-0.dtd"
   xmlns:inkscape="http://www.inkscape.org/namespaces/inkscape"
   version="1.1"
   viewBox="0 -205 1102 984"
   id="svg6"
   sodipodi:docname="moria.svg"
   width="1102"
   height="984"
   inkscape:version="0.92.5 (2060ec1f9f, 2020-04-08)">
  <metadata
     id="metadata12">
    <rdf:RDF>
      <cc:Work
         rdf:about="">
        <dc:format>image/svg+xml</dc:format>
        <dc:type
           rdf:resource="http://purl.org/dc/dcmitype/StillImage" />
        <dc:title></dc:title>
      </cc:Work>
    </rdf:RDF>
  </metadata>
  <defs
     id="defs10" />
  <sodipodi:namedview
     pagecolor="#ffffff"
     bordercolor="#666666"
     borderopacity="1"
     objecttolerance="10"
     gridtolerance="10"
     guidetolerance="10"
     inkscape:pageopacity="0"
     inkscape:pageshadow="2"
     inkscape:window-width="640"
     inkscape:window-height="480"
     id="namedview8"
     showgrid="false"
     fit-margin-top="50"
     fit-margin-left="50"
     fit-margin-right="50"
     fit-margin-bottom="50"
     inkscape:zoom="0.61425781"
     inkscape:cx="111.44515"
     inkscape:cy="726"
     inkscape:current-layer="svg6" />
  <g
     transform="matrix(1,0,0,-1,14,565)"
     id="g4">
    <path
       d="m 815,198 q 4,-3 9,-10.5 5,-7.5 7,-9.5 4,1 19,11 l 1,-10 8,6 q 0,12 11,20 -1,5 -1,16 7,10 7,24 l 7,4 q 15,-43 1,-67 4,-15 0,-25 l 10,-1 q 5,4 17.5,9 12.5,5 19.5,12 2,2 7,8 5,6 9.5,10.5 4.5,4.5 9.5,6.5 5,13 21.5,35 16.5,22 21.5,34 12,31 20,73 l 10,-2 q -2,-8 1,-15 l -3,-8 q 4,-6 4,-36 l 6,-15 -3,-8 2,-6 q -2,-10 -8,-29.5 -6,-19.5 -8,-29.5 -1,-5 -7,-26.5 -6,-21.5 -7,-31.5 l -6,-7 1,-8 q -7,-9 -3,-24 -8,-8 -8.5,-29.5 Q 990,47 980,38 976,45 962,53 955,52 948,47 941,42 932.5,33.5 924,25 921,23 886,-2 884,-6 l -9,-2 -4,-7 q -9,-3 -22,-17 -13,-14 -22,-17 -24,-11 -47,-37 -21,-22 -42,-37 -3,-2 -8.5,-9.5 -5.5,-7.5 -7.5,-10.5 -2,-2 -11,-7 -9,-5 -11,-12 l -4,-2 q -1,7 -3,19 -5,3 -11,3 l -11,-5 q -11,2 -17,1 -4,30 -0.5,54 3.5,24 1.5,54 -2,30 -13,53 -2,2 -7.5,4 -5.5,2 -9,4.5 Q 622,26 620,30 h -8 q -6,6 -13,9 -3,12 -4,14 -1,2 3,15.5 4,13.5 4,14.5 -5,11 -15.5,27 -10.5,16 -13.5,22 l -9,4 q -3,5 -10,15 -7,10 -11,18.5 -4,8.5 -3,16.5 -6,4 -21,6 -15,2 -21,7 l -9,1 q -19,14 -49,17 l -4,12 q 26,18 57,56 6,7 21.5,28.5 15.5,21.5 26.5,31.5 5,23 3,32 -1,5 -16,31 l -7,5 -3,9 -8.5,8.5 q 0,0 -9.5,11 -9.5,11 -8,9.5 1.5,-1.5 -8,6.5 -9.5,8 -8.5,6.5 1,-1.5 -6.5,7.5 -7.5,9 -4,9.5 7,8 25.5,13.5 Q 509,500 521,498 505,508 483.5,508.5 462,509 437,506 q -25,-3 -39,-1 -13,8 -17,16 -9,2 -14,8 l -6,-2 q 2,-18 2,-27 -4,-3 -6.5,-7 -2.5,-4 -4.5,-9.5 -2,-5.5 -4,-8.5 -4,-1 -20.5,-8.5 Q 311,459 302,458 296,448 280,436.5 264,425 260,421 q 0,12 -4.5,23.5 -4.5,11.5 -12,25 Q 236,483 233,491 l -7,5 q -2,10 -10,20.5 -8,10.5 -25,25.5 l -17,16 q -4,4 -12.5,14 -8.5,10 -14.5,17 -6,7 -15,13.5 -9,6.5 -17,8.5 -13,23 -31,26 l -4,7 q -19,10 -31,24 -7,2 -13,7 l 3,5 q 14,-4 48,2 14,-6 41,-6 6,-5 21,-8 15,-3 23,-1 17,-6 19,-6 l 6,7 6,-5 h 7 q 6,-10 20,-15.5 14,-5.5 26,-3.5 13,-7 22,-6 9,-8 26,-14.5 17,-6.5 27,-5.5 l 8,-7 q 14,1 46,-15.5 32,-16.5 50,-10.5 -15,23 -30,27 l -4,9 q -7,3 -12.5,7 -5.5,4 -14,13.5 -8.5,9.5 -9.5,10.5 -5,1 -14,7 -9,6 -15,7 -10,15 -46,28.5 -36,13.5 -44,18.5 4,0 11.5,3.5 7.5,3.5 12.5,3.5 2,0 15.5,-2.5 13.5,-2.5 19.5,-1.5 11,0 32.5,-8 21.5,-8 33.5,-6 l 7,10 q 8,-14 22,-20 l 5,-8 q 20,-6 66,-31 5,-3 18,-12.5 13,-9.5 23.5,-15.5 10.5,-6 19.5,-7 l 5,-6 q 11,-1 23.5,-9 12.5,-8 20.5,-14.5 8,-6.5 20,-6 12,0.5 25,12.5 l 15,-9 q -6,-26 19,-52.5 25,-26.5 52,-30.5 l 5,7 q 2,13 -11.5,27 -13.5,14 -15.5,22 -5,16 -37,43 -1,15 -22,29 l 3,6 q 22,-6 57,-33 6,-4 18,-15.5 12,-11.5 22.5,-18.5 10.5,-7 21.5,-9 l 16,-16 q 16,-4 40,-21 l 7,1 2,-7 q -10,-22 -14,-26 l 2,-10 q 22,-22 49,-44 l 2,-8 q 7,-5 17.5,-17 10.5,-12 16.5,-17 l 4,-12 q 0,0 3,-14 l 8.5,-8.5 q 0,0 9.5,-10.5 9.5,-10.5 5,-11 l -8,-2 q -3,1 -13.5,7.5 -10.5,6.5 -18.5,4.5 2,-5 8.5,-14 6.5,-9 10,-17 3.5,-8 2.5,-16 h -3 q -6,6 -14,9 l -4,6 q -8,2 -18.5,12 -10.5,10 -17.5,12 l -3,7 q -34,18 -64,9 -11,5 -26.5,3 -15.5,-2 -25.5,-8 6,-45 24,-59 l 1,-8 q 7,6 16,4 4,2 12.5,8.5 8.5,6.5 13.5,9.5 v -10 q -3,-4 -14,-12.5 -11,-8.5 -14,-17.5 15,-9 15,-24 4,-3 8,-10 l 3,-1 q 7,10 5,21 l 7,7 q -1,9 6,18 -3,8 2,16 l 4,2 q 4,-14 5,-27.5 1,-13.5 0,-36.5 -1,-23 -1,-28 z m 33,141 Q 834,357 822.5,363.5 811,370 790,370 776,369 758.5,364.5 741,360 730,359 v -18.5 q 0,0 4,-16.5 11,0 29.5,4.5 18.5,4.5 31.5,3.5 4,-11 10,-35 l 3,-1 q 3,4 4,9 12,-5 12,-32 0,-19 19,-43 l 4,2 v 7.5 8.5 q 0,0 -0.5,7 -0.5,7 -3,7 -2.5,0 -5.5,5 -12,42 -13,54 l 7,5 q 3,12 3,13 7,1 13,0 z"
       id="path2"
       inkscape:connector-curvature="0"
       style="fill:currentColor" />
  </g>
</svg>
