<?xml version="1.0" encoding="UTF-8" standalone="no"?>
<svg
   xmlns:dc="http://purl.org/dc/elements/1.1/"
   xmlns:cc="http://creativecommons.org/ns#"
   xmlns:rdf="http://www.w3.org/1999/02/22-rdf-syntax-ns#"
   xmlns:svg="http://www.w3.org/2000/svg"
   xmlns="http://www.w3.org/2000/svg"
   xmlns:sodipodi="http://sodipodi.sourceforge.net/DTD/sodipodi-0.dtd"
   xmlns:inkscape="http://www.inkscape.org/namespaces/inkscape"
   version="1.1"
   viewBox="0 -218 707.39288 1052"
   id="svg6"
   sodipodi:docname="orc.svg"
   width="707.39288"
   height="1052"
   inkscape:version="0.92.5 (2060ec1f9f, 2020-04-08)">
  <metadata
     id="metadata12">
    <rdf:RDF>
      <cc:Work
         rdf:about="">
        <dc:format>image/svg+xml</dc:format>
        <dc:type
           rdf:resource="http://purl.org/dc/dcmitype/StillImage" />
        <dc:title></dc:title>
      </cc:Work>
    </rdf:RDF>
  </metadata>
  <defs
     id="defs10" />
  <sodipodi:namedview
     pagecolor="#ffffff"
     bordercolor="#666666"
     borderopacity="1"
     objecttolerance="10"
     gridtolerance="10"
     guidetolerance="10"
     inkscape:pageopacity="0"
     inkscape:pageshadow="2"
     inkscape:window-width="640"
     inkscape:window-height="480"
     id="namedview8"
     showgrid="false"
     fit-margin-top="50"
     fit-margin-left="50"
     fit-margin-right="50"
     fit-margin-bottom="50"
     inkscape:zoom="0.61425781"
     inkscape:cx="-309.27424"
     inkscape:cy="793"
     inkscape:current-layer="svg6" />
  <g
     transform="matrix(1,0,0,-1,28.5,566)"
     id="g4">
    <path
       d="m 302,-2 q 0,-4 3,-10 7,-9 5,-16 -4,-9 -5,-9 0,-6 -4,-14 -8,-10 -8,-36 -1,-2 -1,-7 l -1,-9 -5,8 q -1,5 -3,7 -3,1 -5,16 -1,8 -1.5,14.5 Q 276,-51 271,-38 v -5 q -1,-3 -1,-12 0,-2 -0.5,-6 -0.5,-4 -0.5,-5 -2,-15 0,-29 0,-5 0.5,-14 0.5,-9 1.5,-14 0,-16 2,-27 7,-37 9,-41 l 3,-12 q -14,17 -29,47 -6,13 -8,50 l -3,18 q -1,7 -1,26 -1,5 -1,15 l -3,-6 -1,-3 q -5,-12 -7,-13 -4,1 -7,14 -2,13 -7,71 v 12 l -1,7 q -2,33 -6,46 -2,6 -2,15 0,4 -2,4 -1,0 -5,-1 l -2,-1 -5,-3 v -4 q 0,-3 1,-5 l 2,-9 -8,8 q -4,4 -8,14 -7,19 -25,31 -46,31 -59,60 l -4,12 q -7,20 -2,50 l 1,6 4,-4 q 7,-11 8,-12 5,-1 14,-13 l 4,-8 q 0,0 3,-7 1,-6 15,-12 11,-7 29,-14 l 29,-12 q 11,-8 25,-6 7,2 8,6 2,4 5,6 h 2 q 0,2 -1.5,4.5 -1.5,2.5 -1.5,3.5 l -2,3 q -1,0 -2,3 v 0 q 0,5 -5,15 l -2,10 q -7,27 -11,35.5 -4,8.5 -12,14.5 -2,3 -7,9 -30,33 -65,48 -3,2 -5.5,3 -2.5,1 -3.5,1.5 -1,0.5 -2,0.5 -11,0 -21,7 -9,6 -9,11 -2,3 -9,8 -2,1 -5.5,4 -3.5,3 -4.5,4 -7,2 -13,18 -5,14 -16,31 l -7,9 q -9,13 -10,27 v 22 q -5,56 0,57 l 5,-7 q 0,-8 3,-13 2,-15 10,-32 7,-18 23,-23 3,-1 10,-6 1,-1 4.5,-6 3.5,-5 5.5,-7 v 3 l -6,26 q -1,1 -1.5,4 -0.5,3 -0.5,5 l -2,6 q -5,3 -4,27 1,11 9,37 5,19 3,23 -3,5 -7,5 -8,1 -7,20 2,16 5.5,40 3.5,24 4.5,29 2,9 2,16 0,8 5,16 7,19 14,31 l 4,9 6,-56 v 0 l 9,-52 q 1,-5 3,-12 3,-22 14,-37 8,-13 11,-21 2,-3 6.5,-10 4.5,-7 7.5,-11 5,-8 9.5,-20 4.5,-12 7,-21 2.5,-9 2.5,-10 v -1 -17 -13 -6 q 0,-2 -2,-14 -2,-3 -2,-6 l 3,3 q 2,7 8,10 l 3.5,7 4.5,9 q 2,1 5,8 0,3 7,14 l 7,3 -3,-7 q -2,-6 -4,-11 -3,-6 -7,-24 -2,-16 -2,-25 v -13 q 0,-18 6,-36 1,-1 5,-18 3,-11 4,-12 1,-3 4,-18 2,-11 3,-12 0,-8 7,-15 2,-1 6.5,-3 4.5,-2 6.5,-4 15,-5 11,-15 -1,-2 1,-3 l 9,-9 q 6,-6 8,-7 4,-1 5.5,-2 1.5,-1 3,-4.5 1.5,-3.5 1.5,-11.5 0,-16 3,-23 0,-2 0.5,-6.5 0.5,-4.5 0.5,-7.5 1,-4 6,-14 6,-6 5,-16 0,-6 -2,-18.5 -2,-12.5 -1,-16.5 1,-12 -1,-18.5 Q 288,104 276,92 272,87 269,83.5 266,80 264.5,77 263,74 262,73 q 0,-5 -1,-6 -1,-2 -1,-10 0,-12 -1,-16 -1,-6 -5,-10 -5,-7 -3,-14 1,-4 5,-10 2,-9 4,-14 9,0 13,16 1,5 3,9 l 3,4 q 4,3 4,6 0,5 3.5,9 3.5,4 7.5,3 8,0 8,-10 z m -68,390 q 0,5 -2,7 -1,5 1,21 1,9 1,20 l 3,23 q 3,9 7,13 2,1 1,16 l -2,55 v 9 l 3,-7 q 11,-15 8,-36 v -5 q 0,-19 3,-33 v -10 q 0,-12 4,-21 7,-6 7,-8 8,-5 10,-18 v -7 q 0,-7 4,-13 v -2 q 0,0 2,-3 3,-3 5,-10 4,-9 8,-14.5 4,-5.5 7,-4.5 6,2 9,2 2,1 7.5,3.5 5.5,2.5 8,3.5 2.5,1 5.5,3 3,2 4.5,4 1.5,2 1.5,5 2,7 0,11 0,6 7,22 13,30 20,50 l 3,10 q 5,31 11,31 4,0 4,-7 2,-18 2,-27 v -15 q 2,-3 2,-9 2,-14 2,-23 0,-19 -6,-26 v -11 -16 q 0,-8 1,-11 2,-10 -12,-15 -10,-3 -13,-8 l -4,-4 q -1,-4 -5,-7 -7,-10 -14,-16 -6,-3 -18.5,-21.5 Q 307,270 305,260 l -1,-11 -3,15 q -7,26 -15,31 l -4,8 q 0,6 -6,14 -2,4 -4,7.5 -2,3.5 -2,4.5 -2,8 -11,13 -25,6 -25,18 0,7 9,8 1,1 2,1 l -1,2 q 0,2 -4,6 -4,3 -6,11 z m 394,45 q 5,-13 -18,-31 -14,-11 -33,-32 -29,-27 -40,-33 -10,-4 -30,-22 -24,-20 -31,-17 h -2 q -6,1 -14,0 l -7,-3 q -13,-2 -27,-19 l -3,-6 q -4,-9 -26,-20 -22,-10 -21,-27 v -1 q -7,-17 -12,-22 -6,-11 -4,-19 0,-3 4,-11 4,-1 7,-8 1,-9 9,-11 7,-4 23,5 l 14,8 q 10,5 26,18 6,6 10,6 h 3 l 2,-1 q 1,0 11,16 6,10 15,22 18,27 23,45 l 1,-10 q 2,-30 -9,-58 l -6,-22 q -3,-23 -21,-43 -9,-6 -15,-15 -28,-22 -34,-34 l -5,-7 v 9 q 0,13 -3,13 -1,0 -2,-4 -8,-17 -9,-33 0,-26 -7,-39 -2,-6 -2,-20 1,-9 0,-22 v -5 q -2,-8 -5,-23.5 -3,-15.5 -5,-27.5 -3,-10 -3,-25 0,-17 -8,-22 -8,-7 -23,-53 v 0 q -1,-1 -10,-19.5 -9,-18.5 -13,-21.5 l -6,-6 3,9 2,11 2,8 q 0,0 3,12.5 3,12.5 4,18.5 3,24 8,31 0,3 1.5,13 1.5,10 2.5,19 l 4,23 q 4,10 1,23 -3,14 -5,15 v -2 q -1,-2 -2,-3 v -4 q -1,-7 -12,-33 l -5,-4 -1,7 v 14 q 2,14 -1,21 -1,3 -4,4 -4,7 -7,18 -1,3 -2,5 -1,2 -1,3 0,1 -0.5,6 -0.5,5 -0.5,15 -2,30 5,30 6,1 10,-8 2,-3 3,-6 1,-3 2,-4.5 1,-1.5 2,-3.5 0,-2 4,-13 7,-8 13,-16 9,27 9,34 0,2 0.5,6.5 0.5,4.5 1.5,6.5 2,25 -6,35 -5,4 -10,14 -10,13 -12,14 -12,10 -9,28 v 8 q 0,5 -1,11 -1,6 -1,7 -3,12 -4,18 0,13 10,32 1,3 3.5,10 2.5,7 3.5,10 0,3 0.5,7.5 0.5,4.5 0.5,6.5 0,18 13,28 6,5 14,9.5 8,4.5 9,5.5 6,2 13,8 5,2 14,2 l 6,1.5 q 0,0 4.5,4 4.5,4 2.5,10.5 l 2,18 q 5,53 5,64 0,5 0.5,12 0.5,7 0.5,10 4,12 0,29 -1,10 -4,16 -4,15 12,37 13,16 26,23 22,19 29,39 5,10 12,29 5,14 8,22 2,3 4,6.5 2,3.5 3,4.5 5,8 5,26 0,14 2,39 1,8 2.5,14 1.5,6 2.5,9 1,3 2,5 l 2,4 q 1,-4 2,-9 v -1 l 1,-7 q 2,-9 9,-18 l 3,-6 q 11,-20 8,-25 -4,-2 -6,-2 h -1 q 0,-1 1,-3 1,-2 1.5,-4.5 0.5,-2.5 1.5,-4.5 l 7,-49 q 1,-10 -1,-36 -2,-28 -2,-33 v -4 l -4,3 -4,1 q -4,0 -5,-12 -2,-10 -2,-11 -5,-11 1,-21 l 6,-15 q 9,-17 7,-23 l -5,-5 q 0,-2 2,-3 v -4 l 7,-19 q 1,-1 7,-1 3,1 11,1 15,2 21,9 3,4 10,10 15,12 23,29 v -12 q -2,-2 2,-7 z M 205,-10 q 10,-44 10,-67 0,-52 8,-69 l -8,11 -1,3 q -8,14 -16,45 -4,14 -8,31 0,8 -6,13 l -1,5 q -3,4 -3,10 0,1 0.5,5.5 0.5,4.5 0.5,7.5 0,8 -2,22 -2,15 0,17 l 3,3 h 7 q 7,2 12,0 3,-3 3,-11 0,-3 -0.5,-4.5 Q 203,10 202,9 V 8 h -1 l 3,-12 z m 230,45 1,-2 q 1,-2 1,-3 2,-12 2,-29 0,-22 -9,-41 l -4,-11 q -4,-16 -8,-21 0,-2 -5,-19 -6,-19 -13,-30 -3,-3 -6,-9 l -5,-9 q 0,29 6,43 1,1 3,14 2,4 5,13 2,6 5,46 v 3 q 1,24 10,59 4,5 11,5 6,-2 6,-9 z m -14,3 q 3,5 8,4 5,-1 5,-7 l 2,-10 q 2,-10 1,-24 0,-17 -12,-51 -5,-13 -9,-22 -4,-9 -7,-19 -2,-9 -5,-16 -3,-7 -7,-13 -4,-6 -6,-10 0,13 6,32 2,3 9,29 1,4 3,21.5 2,17.5 3,27.5 2,39 9,58 z"
       id="path2"
       inkscape:connector-curvature="0"
       style="fill:currentColor" />
  </g>
</svg>
