<?xml version="1.0" encoding="UTF-8" standalone="no"?>
<svg
   xmlns:dc="http://purl.org/dc/elements/1.1/"
   xmlns:cc="http://creativecommons.org/ns#"
   xmlns:rdf="http://www.w3.org/1999/02/22-rdf-syntax-ns#"
   xmlns:svg="http://www.w3.org/2000/svg"
   xmlns="http://www.w3.org/2000/svg"
   xmlns:sodipodi="http://sodipodi.sourceforge.net/DTD/sodipodi-0.dtd"
   xmlns:inkscape="http://www.inkscape.org/namespaces/inkscape"
   version="1.1"
   viewBox="0 -205 1073 854"
   id="svg6"
   sodipodi:docname="ringwraith.svg"
   width="1073"
   height="854"
   inkscape:version="0.92.5 (2060ec1f9f, 2020-04-08)">
  <metadata
     id="metadata12">
    <rdf:RDF>
      <cc:Work
         rdf:about="">
        <dc:format>image/svg+xml</dc:format>
        <dc:type
           rdf:resource="http://purl.org/dc/dcmitype/StillImage" />
        <dc:title></dc:title>
      </cc:Work>
    </rdf:RDF>
  </metadata>
  <defs
     id="defs10" />
  <sodipodi:namedview
     pagecolor="#ffffff"
     bordercolor="#666666"
     borderopacity="1"
     objecttolerance="10"
     gridtolerance="10"
     guidetolerance="10"
     inkscape:pageopacity="0"
     inkscape:pageshadow="2"
     inkscape:window-width="640"
     inkscape:window-height="480"
     id="namedview8"
     showgrid="false"
     fit-margin-top="50"
     fit-margin-left="50"
     fit-margin-right="50"
     fit-margin-bottom="50"
     inkscape:zoom="0.61425781"
     inkscape:cx="-142.27424"
     inkscape:cy="603"
     inkscape:current-layer="svg6" />
  <g
     transform="matrix(1,0,0,-1,-12,558)"
     id="g4">
    <path
       d="m 881,713 q 4,0 5,-1 1,-1 2.5,-3 1.5,-2 2.5,-3 l 9,-16 q 3,-5 9,-13 2,-4 4,-5 0,-1 2.5,-3 2.5,-2 2.5,-3 3,-5 7,-15.5 4,-10.5 6,-14.5 1,-2 3,-6.5 2,-4.5 3,-6.5 1,-2 2.5,-7 1.5,-5 2.5,-7 l 3,-6 q 9,-22 10,-23 0,-3 2,-6 0,-1 1,-2 v -2 l 3,-3 2,-2 q 1,-2 7,-19 1,-3 1,-9.5 0,-6.5 1,-9.5 l 9,-37 q 0,-6 1,-6 l 1,-2 q 0,-1 1,-1 -1,-1 0,-1 0,-1 0.5,-3 0.5,-2 0.5,-3 0,-2 1,-5.5 1,-3.5 2,-5.5 0,-5 2,-13 2,-9 8,-30 0,-2 1.5,-9.5 1.5,-7.5 2.5,-11.5 1,-5 4,-16.5 3,-11.5 4,-17.5 1,-8 7,-23 0,-1 3,-5.5 3,-4.5 3,-7.5 h 1 q 0,-1 1,-3.5 1,-2.5 2,-3.5 2,-8 2,-15 -2,-1 -2,-8 -1,-1 -1,-6 -3,-15 -3,-18 0,-1 0.5,-2.5 0.5,-1.5 0.5,-2.5 v -13 q 2,-11 0,-21 v -11 l -1,-2 q -1,-2 0,-3 1,-5 3.5,-12.5 L 1030,197 v -10 q 0,-1 -0.5,-4 -0.5,-3 -0.5,-4 0,-3 0.5,-8.5 0.5,-5.5 0.5,-7.5 1,-4 1,-13 1,-2 1,-10 0,1 1,1 v -8 q 1,-1 1,-4 0,1 1,1 v -8 q -1,0 -1,-2 -1,-1 -1,-16 v -6 0 q -1,-2 -1,-5 0,-3 -1,-4 -3,-5 -4,-8 0,-1 0.5,-4 0.5,-3 0.5,-4 -2,-4 -2,-5 -1,-1 -1,-6 l -2,-2 q -3,-3 -9,-7 l -1,-1 q 0,-1 -1,-2 l -10,-3 q -5,0 -7,-1 -4,-1 -11,-4.5 -7,-3.5 -10,-4.5 -3,-1 -7,-2 l -8,-2 q -1,0 -5,-1.5 -4,-1.5 -6,-1.5 -2,-1 -6,-2 -4,-1 -6,-2 -5,-1 -15,-6 -2,-1 -6,-2.5 -4,-1.5 -7,-2.5 -3,-1 -6,-1 -9,-3 -55,-13 -3,-1 -10.5,-3 -7.5,-2 -11.5,-2 -5,-2 -19,-4 -6,-2 -8,-3 -23,-2 -35,-4 h -5 -21 q -2,-1 -7,-1 -5,0 -8,-1 -2,-1 -6,-2 -4,-1 -6,-3 -2,0 -8.5,2 -6.5,2 -9.5,1 -3,0 -7,-3.5 -4,-3.5 -6,-3.5 h -8 q -1,0 -4,0.5 -3,0.5 -5.5,0.5 -2.5,0 -5,-1 -2.5,-1 -5,-1.5 -2.5,-0.5 -5.5,-0.5 -5,0 -7,1 -6,2 -7,2 -3,1 -7.5,-2 -4.5,-3 -7.5,-3 -1,0 -11,5 h -10 q -5,0 -11,-4 l -12,-6 q -12,-6 -16,-6 -9,0 -15,3 l -13,6 h -11 q -12,0 -18,1 -2,0 -6.5,2.5 -4.5,2.5 -7.5,2.5 -4,0 -7,-3 -8,-2 -11,-2 -3,0 -7.5,2.5 -4.5,2.5 -7.5,2.5 -3,0 -5.5,-0.5 -2.5,-0.5 -4.5,-1.5 -2,-1 -4,-1 -3,0 -7,2 -4,2 -6,2 -3,1 -9,-1 h -8 q -2,0 -6,1.5 -4,1.5 -6,1.5 -4,1 -12,1 -2,1 -4,1.5 -2,0.5 -4,1.5 h -32 q -5,0 -13,2 -8,2 -11,2 -10,2 -17,2 -3,1 -9.5,2 -6.5,1 -9.5,2 l -36,3 h -9 q -14,2 -25,4 -12,4 -21,4 -1,0 -4.5,0.5 Q 186,3 184,3 179,3 169,5 167,5 158.5,5.5 150,6 146,7 q -4,2 -10,2 -7,1 -16,6 l -1,1 v -1 l -1,1 h -1 v 1 q -4,0 -4,3 l -3,3 -1,1 q -2,0 -7,2 0,1 -2,2 l -2,1 h -3.5 q 0,0 -2.5,1 l -2,2 -1,2 q -1,1 -2,1 -3,1 -3,2 -1,1 -2,3 -1,2 -2,3 l -1,4 q -1,1 -1,4 h -1 q -2,2 -2,3 v 26 q -1,2 -1,5 0,2 -2,8 -1,3 -1,10 v 7 5 -1 q 1,1 1,4 0,3 1,5 0,3 1,4 -1,0 -1,1 h 1 v 1 h 1 v 4 q 0,6 -2,17 v 4 q 0,2 -1.5,6 -1.5,4 -1.5,7 v 4 l 2,2 h -1 l 1,1 q 2,12 4,31 0,2 -1,7 -1,5 -1,8 0,30 -4,43 l -3,9 q -4,13 -5,17 0,2 1,2 v 1 q 1,0 2,1 h -2 q 3,3 4,7 v 1 l 3,3 h -1 l 2,2 1,3 q 1,3 1,4 l 1,2 1,1 q -1,0 -1,1 1,1 1,4 l 1,1 q 1,0 1,1 h -1 l 1,1 v 1 h 1 q -1,3 3,11 v 6 q 1,1 1.5,4.5 0.5,3.5 0.5,4.5 l 3,16 q 6,27 8,40 1,7 5,23 2,13 10.5,38 8.5,25 9.5,30 20,70 29,104 l 10,20 q 4,8 5,12 3,3 7,9 4,6 7,9 3,6 8,12 3,2 6,5 h 2 1 l 1,1 q 0,1 1,1 v -1 q 0,1 1,1 l 3,1 h 1 v 0 1 q 1,-1 1,0 v 0 q 1,1 1,0 0,1 1,1 v -1 h 1 v 2 q 1,-1 1,0 v 0 h 1 q 2,-2 2,-3 -1,-3 -5,-9 l -5,-11 q -11,-28 -19,-53 -6,-17 -6,-19 -5,-20 -14,-48 -1,-2 -2.5,-5.5 -1.5,-3.5 -2.5,-6.5 -1,-3 -1,-6 -2,-6 -8,-43 -7,-49 -10,-60 -3,-17 -7,-29 v -6 q 0,-1 -0.5,-4 -0.5,-3 -1.5,-4 0,-3 -1,-7.5 -1,-4.5 -1,-6.5 0,-3 -1,-8.5 -1,-5.5 -1,-8.5 0,-4 -1,-6 v -24 q 1,-2 3,-5.5 2,-3.5 2,-5.5 0,-1 1,-6 1,-5 2,-7 0,-1 2,-5.5 2,-4.5 2,-6.5 -3,-2 -13,-15 -1,-2 -5.5,-9 -4.5,-7 -6.5,-11 -3,-6 -6,-23 -2,-10 -2,-16 -1,-2 -1,-8 3,-2 3,-12 2,-5 5,-15 2,-6 2,-10 1,-1 1,-6 6,-10 12,-16 l 3,-2 3,-2 10,-5 q 3,-1 8.5,-4 5.5,-3 6.5,-4 10,-3 20,-5 2,-1 6,-2 6,-2 10,-2 h 6 q 1,0 2.5,0.5 1.5,0.5 2.5,0.5 4,0 9.5,-1.5 5.5,-1.5 8.5,-1.5 2,0 4,-1 2,-1 4,-1 2,0 8.5,-1 6.5,-1 8.5,-2 1,0 3,-0.5 2,-0.5 4,-0.5 3,-1 4,-1 h 11 10 q 3,0 6,1 1,0 3,1 2,1 3,1 13,11 16,12 h 8 l 2,2 3,3 q 1,1 8,4 h 9 q 1,1 3,1 3,2 11,2 h 1 q 4,2 6,2 l 5,5 q 2,3 12,3 3,0 3,-2 2,1 8,1.5 6,0.5 8,2.5 2,1 7,8 2,4 13,4 1,1 1,3 0,2 1,3 v 5 q 2,10 2,15 0,2 -0.5,6 -0.5,4 -0.5,6 v 5 q 0,6 -4,13 -3,10 -12,18 l -2,2 -2,1 -3,3 q -16,12 -16,16 0,1 4,5 1,1 4,2.5 3,1.5 4,2.5 1,1 6,8 l 4,4 q 4,6 5,9 6,10 8,16 1,1 2,6 2,8 2,12 1,2 1,7 2,2 3,4 3,5 3,12 0,1 2,14.5 2,13.5 4,21.5 0,1 1,2 v 2 q 1,2 4,10 0,1 1.5,3.5 1.5,2.5 1.5,4.5 1,3 3,7 2,4 3,7 3,10 4,14 0,1 1,1 -1,3 3,9 4,6 4,9 7,11 8,12 h 1 v 2 q 15,18 16,23 h -1 q 2,2 7,18 1,1 2,4.5 1,3.5 2,5.5 5,7 6,8 l 1,2 1,2 q 4,8 6,11 l 8,14 6,12 q 0,3 -2,7 -7,13 -35,44 l -9,9 -11,15 q -1,1 -3,2 -2,1 -3,2 -1,2 -4,5 -4,4 -7,5 l -4,4 q -4,2 -6,4 -2,1 -2,2 -6,3 -10,9 -1,1 -2,3 l -1,2 -28,18 q -2,2 -8,4.5 -6,2.5 -9,5.5 -2,2 -1,4.5 1,2.5 3,2.5 h 12 q 2,0 7.5,-0.5 5.5,-0.5 7.5,-1.5 l 6,-3 6,-3 15,-9 q 20,-10 31,-16 2,-2 5,-5.5 3,-3.5 5,-4.5 2,-2 6.5,-4 4.5,-2 5.5,-3 l 23,-22 q 5,-5 13,-12 5,-3 15,-11 l 4,-3 q 2,-2 10,-8 1,0 2.5,-1.5 1.5,-1.5 3.5,-2.5 6,-2 11,3 l 3,3 2,2 q 0,0 2,1 2,4 5,4 v 2 -1 q 3,0 4,3 l 1,1 q 1,1 2,0 v 1 h 1 v 1 1 h 1 l 2,-1 5,5 q 4,4 6,8 h 1 v 1 l 8,7 v 1 q 1,2 8.5,5.5 7.5,3.5 8.5,6.5 2,2 2,0 v 2 h 1 v -1 q 0,1 1,1 6,6 10,6 0,1 1,1 1,1 3,2 h 1 v 1 h 1 v 1 q 0,-1 2,-1 v 1 l 2,2 q 10,5 11,6 v 1 h 1 v 1 q 4,2 8,2 -1,1 0,1 l 12,6 v 0 h 1 v 1 q 1,-1 1,0 v 1 l 1,-1 v 1 h 1 q 0,1 1,1 h 3 v 1 q 1,1 3,1 h 1 -1 v 1 h 2 -1 1 1 q 1,0 1,0.5 0,0.5 1,0.5 0,1 1,1 2,0 2,1 h 2 v 1 q 2,0 2,1 1,0 1,-1 h 2 v 1 h 1 l 1,1 q 2,1 3,0 h 4 v 1 h 2 q -1,1 0,1 1,-1 1,0 h 1 1 q 0,1 1,1 v -1 q 1,0 1,1 h 1 3 q 2,-2 3,-2 v -2 h -1 q -2,-2 -3,-2 -1,0 -3.5,-1 -2.5,-1 -3.5,-2 v 0 -1 q -2,0 -12,-5 -10,-5 -10,-6 -1,0 -7,-5.5 -6,-5.5 -7,-5.5 -1,-1 -2.5,-3 -1.5,-2 -2.5,-3 -2,-2 -4.5,-4 -2.5,-2 -3.5,-3 -4,-4 -5,-6 -1,0 -4,-2 l -1,-2 -1,-2 -1,-1 q -1,-1 -2,-1 -8,-4 -8,-11 -1,0 -1,-1 -3,-1 -5,-7 l -14,-14 q 0,-5 -2,-5 -1,-1 -6.5,-6 -5.5,-5 -6.5,-5 -1,-1 -2.5,-4 -1.5,-3 -2.5,-4 -5,-7 -10,-16 -1,-1 -2,-4 -1,-3 -2,-4 h -1 q 3,-7 6,-11 1,-1 4.5,-6.5 3.5,-5.5 3.5,-7.5 1,-1 2.5,-4 1.5,-3 3.5,-5 l 1,-2 v -1 -1 -1 h 2 q 0,-4 3,-7 l 1,-1 h -1 q 0,-1 1,-1 v -1 q 0,-3 2,-3 1,-1 1,-2 2,-6 4,-10 0,-2 1,-2 l 1,-1 h -1 q 0,-1 1,-1 2,-4 3,-5 7,-15 9,-19 0,-1 2,-6 2,-5 2,-7 h 1 q 5,-7 5,-10 h 1 q 0,-1 1,-2.5 1,-1.5 1,-2.5 l 2,-2 1,-3 v -1 h 1 q 0,-1 1,-3 l 1,-2 q 0,-1 2,-4.5 2,-3.5 2,-5.5 h 1 v -1 q 1,-3 5,-10 1,-2 2.5,-6.5 1.5,-4.5 2.5,-6.5 0,-3 1,-3 v -1 l 3,-6 q 2,-4 2,-8 0,-1 1,-1 l 1,-2 -1,-1 v -1 h 1 l 3,-9 q 1,-2 3,-8 l 2,-4 v -6 q 1,-3 2,-7 1,-4 1,-8 0,-2 2,-4 0,-2 2,-6.5 2,-4.5 2,-6.5 1,-7 3,-19 1,-1 2.5,-4.5 1.5,-3.5 1.5,-4.5 v -2 q 1,-2 1,-3 0,-1 1,-3 1,-2 1,-3 3,-6 8,-11 1,-1 5,-2.5 4,-1.5 6.5,-3.5 2.5,-2 2.5,-3 0,-2 -5,-8 -14,-11 -24,-31 -3,-3 -3,-4 -4,-7 -6,-17 v -7 q -2,-3 0,-7 1,-5 7,-5 6,2 14,-5 l 3,-6 q 3,-6 7,-10 2,-2 8.5,-4 6.5,-2 7.5,-9 l 1,-2 q -1,-1 0,-1 l 4,-1 q 4,-1 6,-2 l 2,-2 q 3,-2 5,-2 2,-2 9,1 2,0 7.5,-3.5 5.5,-3.5 5.5,-4.5 h 1 v 0 q 2,3 11,3 6,0 9,-1 1,0 2.5,-1 1.5,-1 2.5,-1 1,-1 3,-1 2,0 3,-1 8,-2 10,-2 2,1 6,1 2,1 8,1 h 18 2 l 2,1 h 5 q 3,3 17,5 2,0 6,2 2,0 2,1 5,-1 13,3 30,11 66,42 1,2 5,5 4,3 5,4 1,1 2.5,2 1.5,1 2.5,1 l 3,3 q 0,1 1,1 0,3 5,3 0,1 1,3 0,1 1,3 1,2 1,4 v 13 q 0,3 1,8.5 1,5.5 2,8.5 0,1 0.5,3 0.5,2 0.5,3 4,10 2,18 0,2 -2,5.5 -2,3.5 -2,5.5 -1,2 -2,6 -1,4 -2,5 -1,2 -3.5,6.5 -2.5,4.5 -3.5,6.5 -3,4 -7,12 -8,8 -8,10 h -1 2 q 0,3 1,7 1,4 1,7 l 3,25 q 1,6 -2,30 v 8 l -3,22 q -1,4 -2.5,11.5 -1.5,7.5 -2.5,11.5 0,6 -1,8 -2,14 -7,26 -2,6 -4,9 v 2 q -1,2 -1,3 -2,2 -6,12 -1,1 -1,4 -4,8 -5,13 -1,2 -3.5,8.5 -2.5,6.5 -3.5,10.5 -1,2 -1,5 -1,6 -3,17 0,3 -2,11 -1,5 -2.5,15.5 -1.5,10.5 -2.5,15.5 -2,8 -7,22 -3,10 -9,27 -6,17 -8,25 0,1 -0.5,3.5 -0.5,2.5 -0.5,3.5 0,2 -2,6 -2,4 -2,6 -2,4 -2,8 -4,6 -5,9 0,2 -2,9 0,1 -1.5,3.5 Q 881,711 881,713 Z M 547,487 q -6,-8 -8,-18 h -1 q 0,-2 -3.5,-8 -3.5,-6 -2.5,-9 0,-2 -1,-2 v 1 l -2,-5 q -2,-3 -4,-9 0,-1 -1,-1 0,-1 -2,-5 l -1,-1 q -1,-2 -2.5,-6 -1.5,-4 -1.5,-5 l -3,-9 q -3,-4 -3,-11 -1,0 -2,-3 l -2,-6 -1,-3 q 0,-2 -2,-4.5 -2,-2.5 -2,-3.5 0,-2 -1,-5 -1,-3 -1,-4 -14,-47 -16,-60 v -15 q 0,-15 2,-19 1,-2 8,-11 4,-4 4,-8 5,0 7,-5 3,-3 7,-3 v -2 q -7,-6 -10,-25 v -20 q 1,-3 3,-7.5 2,-4.5 3,-7.5 l 4,-4 6,-9 q 9,-10 22,-12 h 3 q 0,0 3,-1 h 5 5 3 l 1,1 q 1,0 2.5,0.5 1.5,0.5 2.5,0.5 9,3 12,3 v 1 q 1,1 3,2 2,1 3,2 3,4 11,12 l 2,2 q 9,6 11,16 0,3 -5,19 -2,6 -4,10 l -1,2 q -1,2 0,3.5 1,1.5 1,2.5 1,2 1,3 l 3,12 q 3,7 11,23 1,3 7,25 l 3,9 q 1,2 -0.5,4.5 -1.5,2.5 -1.5,3.5 v 4 l -4,6 q -4,7 -7,19 -1,1 -2.5,4 l -2.5,5 v 3 q -2,7 -4,18 l -2,4 q 0,0 -1,4 -1,4 -3,10 l -9,21 -1,2 q -2,6 -3,8 -2,4 -2,5 l -1,2 -2,4 -2,2 -1,3 q -2,2 -2,3 l -5,11 q -2,2 -2,4 -3,5 -9,17 l -3,6 q -3,4 -6,4 z"
       id="path2"
       inkscape:connector-curvature="0"
       style="fill:currentColor" />
  </g>
</svg>
