<?xml version="1.0" encoding="UTF-8" standalone="no"?>
<svg
   xmlns:dc="http://purl.org/dc/elements/1.1/"
   xmlns:cc="http://creativecommons.org/ns#"
   xmlns:rdf="http://www.w3.org/1999/02/22-rdf-syntax-ns#"
   xmlns:svg="http://www.w3.org/2000/svg"
   xmlns="http://www.w3.org/2000/svg"
   xmlns:sodipodi="http://sodipodi.sourceforge.net/DTD/sodipodi-0.dtd"
   xmlns:inkscape="http://www.inkscape.org/namespaces/inkscape"
   version="1.1"
   viewBox="0 -217 1409.408 1094.7822"
   id="svg6"
   sodipodi:docname="rohan.svg"
   width="1409.408"
   height="1094.7822"
   inkscape:version="0.92.5 (2060ec1f9f, 2020-04-08)">
  <metadata
     id="metadata12">
    <rdf:RDF>
      <cc:Work
         rdf:about="">
        <dc:format>image/svg+xml</dc:format>
        <dc:type
           rdf:resource="http://purl.org/dc/dcmitype/StillImage" />
        <dc:title></dc:title>
      </cc:Work>
    </rdf:RDF>
  </metadata>
  <defs
     id="defs10" />
  <sodipodi:namedview
     pagecolor="#ffffff"
     bordercolor="#666666"
     borderopacity="1"
     objecttolerance="10"
     gridtolerance="10"
     guidetolerance="10"
     inkscape:pageopacity="0"
     inkscape:pageshadow="2"
     inkscape:window-width="640"
     inkscape:window-height="480"
     id="namedview8"
     showgrid="false"
     fit-margin-top="50"
     fit-margin-left="50"
     fit-margin-right="50"
     fit-margin-bottom="50"
     inkscape:zoom="0.61425781"
     inkscape:cx="748.40041"
     inkscape:cy="417.97455"
     inkscape:current-layer="svg6" />
  <g
     transform="matrix(1,0,0,-1,12.142857,611)"
     id="g4">
    <path
       d="m 1154,579 -7,6 55,123 -12,17 67,53 q 10,-13 40,-57 z m 2,-23 v -1 l -7,8 150,146 4,-8 q 12,-31 18,-39 l 2,-4 -134,-127 5,-8 131,118 q 10,-46 5,-56 -1,-3 -113,-102 l 4,-6 108,91 -1,-11 -3,-64 -83,-68 3,-10 76,58 -1,-12 -6,-50 -57,-41 1,-6 54,31 -2,-12 -6,-46 -37,-22 1,-8 31,14 -2,-12 -10,-47 -18,-6 v -9 l 16,3 -2,-8 -6,-23 q 108,-139 50,-278 -23,-55 -69,-91.5 -46,-36.5 -81,-44.5 -95,-18 -171,32 -41,-29 -95,-43 -121,-33 -248,35 -5,1 -10,6 l -31,-4 q 11,-23 -9,-33 -8,-5 -21,-6.5 -13,-1.5 -37.5,4 -24.5,5.5 -51,20.5 -26.5,15 -61.5,48.5 -35,33.5 -70,81.5 l -165,-124 -63,-13 q -10,-7 -44.5,-8.5 Q 65,-201 44,-188 l -6,5 q -1,3 5,5 90,79 107,79 1,0 7,-5 6,-5 12,-4 23,3 34,45 2,8 5,11 5,5 11,1 1,-1 2,-4 1,-3 1,-4 4,-6 10,-10 15,-6 36,10 27,19 58,67 12,22 19,31 9,13 17,13 14,1 27,-16 4,-5 10.5,-14.5 Q 406,12 410,7 q -17,56 17,88 19,20 43.5,18 24.5,-2 43,-14.5 Q 532,86 550,66 q 0,4 0.5,16.5 0.5,12.5 1.5,18.5 16,74 65.5,124 49.5,50 111.5,51 2,0 5,1 3,1 14.5,2 11.5,1 22.5,-1 52,-6 96,-35 9,56 47,94 2,1 29,9 18,6 31,12 15,7 20,13 -1,0 -4.5,2 -3.5,2 -4.5,2 -18,-17 -58,-24 -20,-3 -47,-3 -5,-13 -17,-29 -10,-16 -26,-16 -19,1 -33,23 l -1,1 v 1 h 1 v -2 q -1,0 -1,1 v 1 q 9,25 0,70 l 7,5 87,74 256,197 15,11 22,15 -10,-21 -50,-105 q 10,-10 25.5,-31.5 15.5,-21.5 39,-62 23.5,-40.5 39,-99.5 15.5,-59 15.5,-122 1,-72 -15.5,-135 Q 1217,61 1189.5,18 1162,-25 1141,-49.5 1120,-74 1099,-91 l 4,-2 q 85,68 125,194 19,60 25,119 8,43 -1,108 -16,125 -96,228 z m 99,208 -51,-41 9,-14 -46,-103 117,116 q -3,4 -14.5,20.5 Q 1258,759 1255,764 Z m 40,-73 -130,-127 q 6,-7 19,-23 l 126,119 q -7,13 -15,31 z m 23,-70 -118,-106 q 8,-14 11,-21 93,80 110,96 0,11 -3,31 z m -93,-154 q 6,-13 13,-32 l 77,63 3,48 z m 23,-63 q 2,-5 7,-23 l 49,35 4,35 z m -130,152 v -1 h 1 z m -5,-13 q 7,-7 5.5,-12.5 -1.5,-5.5 -8.5,-7.5 -6,-2 -12.5,5 -6.5,7 0.5,17 0,1 2,5 l 1,-2 50,102 -178,-138 21,-2 q 28,24 60,19 0,12 32,50 l 39,44 q 5,6 11,6 l -50,-73 q -9,-11 -4,-28 5,-17 21,-15 10,2 14.5,8 4.5,6 4,12 -0.5,6 -2.5,8 -3,2 -6,2 z m 153,-215 26,17 3,26 -33,-21 q 0,-4 2,-11 2,-7 2,-11 z m 3,-34 q 0,-4 0.5,-12.5 0.5,-8.5 0.5,-11.5 l 7,2 5,28 z m -119,134 q -13,32 -41,54 9,-11 8.5,-36 -0.5,-25 -15.5,-43 42,-66 45,-135 14,42 14,86 1,46 -11,74 z m 117,-203 -1,-7 v -6 -1 h -3 z m 0,0 4,12 h -3 V 227 Z M 954,499 921,473 q 26,-8 51,-1 1,8 11,25 z m 140,-108 q -8,-8 -20,-15 -25,-15 -48,-12 17,-31 30,-72 16,7 43,9 h 28 q -9,50 -33,90 z m -23,114 q -17,11 -42,5 -41,-11 -43,-47 -1,-17 10,-23 10,-4 17,2 4,3 4,8 -6,-3 -9.5,0.5 -3.5,3.5 -3,9 0.5,5.5 4.5,8.5 18,7 21,-15 l -1,2 q 2,-15 -10,-26 -13,-7 -29,-1 -16,7 -18,31 -4,-2 -7,-3 l -38,-21 -36,-16 q -1,1 0,2.5 1,1.5 8.5,7.5 7.5,6 22.5,15 l 14,14 q -14,0 -27,6 l -52,-40 q 1,-15 -6.5,-35.5 Q 843,368 820,358 q 0,-10 -1,-15 33,20 41,13 5,-4 -1,-15 -8,0 -16,-2 -15,-4 -24,-12 8,-10 18,-11 17,-1 27,33 3,9 5,10.5 2,1.5 12,2.5 2,1 7.5,2 5.5,1 8.5,1 24,2 44,10 17,7 28,13 l 16,6 q 3,0 11,-4 45,-15 66,-2 41,26 39,65 -3,33 -30,52 z m 57,-221 q -14,0 -27,-1 -24,-2 -41,-7 8,-28 8,-61 38,11 61,6 0,1 2,11.5 2,10.5 2,18.5 -1,15 -5,33 z m -44,-368 q 15,12 30,27 15,15 39,47.5 24,32.5 40.5,67.5 16.5,35 29,89 12.5,54 11.5,112 -1,154 -99,279 3,-15 -7,-30 -5,-8 -10,-9 30,-27 45,-63 7,-16 12,-45 5,-29 -0.5,-75 -5.5,-46 -25.5,-87 -38,-75 -45,-92 48,14 72,87 3,6 3,10 l 1,2 h -1 q 27,129 -15,205 -14,30 -39,53 -3,2 -5,4 -4,4 2,4 23,0 53,-55 43,-84 17,-215 -6,-31 -24,-59 -37,-59 -101,-58 -30,0 -42,6 -10,3 -18.5,13.5 -8.5,10.5 1.5,22.5 6,5 10,3.5 4,-1.5 5,-4.5 4,-12 -5,-13 l -3,-1 q 6,-9 17,-10 51,77 -20,224 -22,-23 -67,-27 h -13 q -4,0 -10,-2 -31,-33 -42,-102 l 1,-1 q 6,4 47,24 32,16 31,18 0,1 -1,2 l -3,2 q -10,9 -4,29 l 1,5 q 2,6 6,9 -11,-3 -25,-15 -7,-4 -13,-9.5 -6,-5.5 -9,-9.5 l -2,-4 q -8,-12 -22,-50 0,15 3,29 3,14 6,20 l 3,7 q 6,8 13,14 4,4 13,10 32,29 56,27 10,0 19,-6 h 1 l 3,-1 q 18,-46 11,-93 -7,-47 -33,-88 -15,-2 -15,4 0,4 5,11 24,44 29,71 -8,-25 -36,-83 v -31 l -1,1 1,-5 2,-1 6,-5 q 2,-1 16,-10 9,-7 30,-27 7,-9 35.5,-31 28.5,-22 43.5,-23 26,0 34,16 4,8 4,10 2,11 -4,21 -11,14 -20,10 2,-6 -4.5,-10 -6.5,-4 -11.5,4 -4,6 2.5,11.5 6.5,5.5 15.5,5.5 11,1 26,-14 v -1 q 13,-24 2,-42 -14,-25 -43,-25 -17,0 -32,9 l -32,-40 q 9,-20 17,-27 12,-14 32,-27 z m -14,283 q -2,-38 -20,-69 22,0 32,3 l 40,72 q -27,2 -52,-6 z M 818,394 q 1,-9 1,-21 23,9 26,41 z m 172,-83 q -19,0 -24,-9 -2,-2 -2,-5 -1,-10 5,-18 7,-10 7,-12 0,-6 -76,-48 l 14,-14 q 49,44 82,66 2,26 -6,40 z m 128,-408 q 44,-8 90,25 63,47 32,168 -43,-125 -122,-193 z m 154,303 -3,-8 -19,-82 q 4,-12 8,-28.5 4,-16.5 7.5,-51.5 3.5,-35 -8.5,-67 -12,-32 -39,-53 -98,-71 -179,12 -31,32 -66,160 -6,3 -21,9 L 915,47 q 4,-36 16,-69 12,-33 26,-54.5 14,-21.5 27,-38 13,-16.5 22,-23.5 l 9,-7 q 63,-49 161,-32 31,5 72.5,38.5 41.5,33.5 64.5,87.5 49,117 -41,257 z M 1013,51 q -1,0 -1,1 0,1 -1,2 h -1 l -1,1 -5,4 2,-8 q 0,-3 4,-14 l 8,9 z m 26,-23 q -2,1 -5,4 l -5,5 -14,-19 q 6,-17 12,-31 l 23,31 q -5,4 -11,10 z m -88,103 1,22 q 7,12 17,30 15,33 23,63 Q 976,236 954,219.5 932,203 897.5,168 863,133 840,98 h -1 v -1 l -8,-9 Q 823,79 810.5,64 798,49 784,36 q -56,-58 -94,-69 32,-26 80,-34 22,13 83,82 61,69 98,116 z m -154,-202 5,1 12,3 74,99 Q 873,12 856,-6 821,-51 797,-71 Z M 908,8 q -1,5 -2.5,13.5 Q 904,30 904,31 l -69,-94 q 47,8 84,31 -7,20 -11,40 z M 741,184 Q 711,182 678,152.5 645,123 643,80 q -2,-56 30,-91 24,2 63,31.5 39,29.5 62,53 23,23.5 30,31.5 14,22 18,26 -53,56 -105,53 z M 951,-95 q -61,-32 -121,-34.5 -60,-2.5 -102,16.5 -42,19 -68,53 -3,4 -7,10 -4,6 -13,26.5 -9,20.5 -13.5,41 Q 622,38 624,66 q 2,28 14,54 37,74 103,78 57,3 113,-57 18,23 46,48 -3,1 -4,5 l -13,13 -18,-7 -3,10 v 2 q 1,2 1.5,5 0.5,3 0.5,6 -45,29 -93,35 -23,2 -29,1 l -10,-1 Q 665,252 622,206 579,160 565,99 555,52 566,-1 q 11,-53 39,-96 17,-20 33,-35 16,-15 24,-20 l 7,-5 q 48,-26 96,-35 48,-9 76.5,-6.5 28.5,2.5 65.5,11.5 59,12 89,39 -25,20 -45,53 z m -24,49 q -71,-44 -133,-41 -68,2 -116,40 -18,15 -31,42 9,-29 24,-47 41,-53 127,-62 79,-5 146,30 -11,20 -17,38 z M 476,26 q -2,0 -3,-2 1,-1 3,-1 3,3 0,3 z m 131,-176 25,2 q -14,12 -18,16 -2,2 -6,8 l -20,3 q 9,-17 19,-29 z m -56,64 q -7,15 -11,34 -3,11 -8,32 l -3,25 q -1,11 -5,23 -7,17 -13,24 -10,12 -25,13 h -3 Q 472,61 469,58.5 466,56 462.5,51.5 459,47 456,39 q -3,-8 1,-17 4,-10 12,-11 4,0 5,1 -6,0 -8.5,5.5 Q 463,23 465,28 q 2,5 7,5 7,1 10.5,-2.5 Q 486,27 485.5,22 485,17 485,16 482,3 474,3 q -5,-1 -11,0 -10,2 -14,14 -11,30 12,49 9,8 22,8 9,2 19,-3 19,-7 34,-38 4,-10 6,-24 2,-18 4,-26 8,-38 26,-77 l 13,-2 Q 542,-27 545,45 531,67 513,79.5 495,92 484,94 l -10,2 Q 454,98 439,84 426,72 423,52 420,32 426,12.5 432,-7 437,-19 q 5,-12 9,-19 5,-6 33,-35 28,-29 31,-31 5,-11 6.5,-18.5 1.5,-7.5 1,-9 -0.5,-1.5 -1.5,-1.5 -3,-3 -40,35 -68,72 -111,130 -43,-69 -90,-103 -29,-20 -48,-13 -8,3 -13,10 -2,-9 -6,-19 -16,-27 -36,-30 -9,-2 -24,6 l -4,2 q -1,-1 -19,-15 -29,-26 -45,-39 48,-12 120,35 57,38 112,99 8,8 20,22.5 12,14.5 16,18.5 1,1 4.5,5.5 3.5,4.5 7.5,8.5 4,4 5,4 8,0 10,-8 0,-4 -22.5,-30.5 Q 330,-41 288.5,-80 247,-119 207,-145 126,-198 65,-176 l -6,-4 q 20,-6 46.5,-4.5 26.5,1.5 32.5,5.5 8,5 27,9.5 19,4.5 30,3.5 l 86,61 q 82,57 92,69 2,0 7,-6 35,-44 67.5,-76 32.5,-32 56,-47.5 23.5,-15.5 44.5,-23 21,-7.5 34,-7 13,0.5 22,6.5 10,8 7,15 -42,46 -60,88 z"
       id="path2"
       inkscape:connector-curvature="0"
       style="fill:currentColor" />
  </g>
</svg>
