<?xml version="1.0" encoding="UTF-8" standalone="no"?>
<svg
   xmlns:dc="http://purl.org/dc/elements/1.1/"
   xmlns:cc="http://creativecommons.org/ns#"
   xmlns:rdf="http://www.w3.org/1999/02/22-rdf-syntax-ns#"
   xmlns:svg="http://www.w3.org/2000/svg"
   xmlns="http://www.w3.org/2000/svg"
   xmlns:sodipodi="http://sodipodi.sourceforge.net/DTD/sodipodi-0.dtd"
   xmlns:inkscape="http://www.inkscape.org/namespaces/inkscape"
   version="1.1"
   viewBox="0 -205 2111.7561 865.23773"
   id="svg6"
   sodipodi:docname="shire.svg"
   width="2111.7561"
   height="865.23773"
   inkscape:version="0.92.5 (2060ec1f9f, 2020-04-08)">
  <metadata
     id="metadata12">
    <rdf:RDF>
      <cc:Work
         rdf:about="">
        <dc:format>image/svg+xml</dc:format>
        <dc:type
           rdf:resource="http://purl.org/dc/dcmitype/StillImage" />
        <dc:title></dc:title>
      </cc:Work>
    </rdf:RDF>
  </metadata>
  <defs
     id="defs10" />
  <sodipodi:namedview
     pagecolor="#ffffff"
     bordercolor="#666666"
     borderopacity="1"
     objecttolerance="10"
     gridtolerance="10"
     guidetolerance="10"
     inkscape:pageopacity="0"
     inkscape:pageshadow="2"
     inkscape:window-width="640"
     inkscape:window-height="480"
     id="namedview8"
     showgrid="false"
     fit-margin-top="50"
     fit-margin-left="50"
     fit-margin-right="50"
     fit-margin-bottom="50"
     inkscape:zoom="0.61425781"
     inkscape:cx="378.22576"
     inkscape:cy="627.54545"
     inkscape:current-layer="svg6" />
  <g
     transform="matrix(1,0,0,-1,-11,544.69231)"
     id="g4">
    <path
       d="m 61,469 q 45,-22 135,-32.5 90,-10.5 193,-2 103,8.5 163,41.5 25,13 56.5,33.5 31.5,20.5 57.5,38.5 26,18 59,39 33,21 59,35 26,14 59.5,25 33.5,11 59.5,11 26,0 59,-7 47,-14 71.5,-43 24.5,-29 26.5,-61 2,-32 -4.5,-59 -6.5,-27 -19.5,-44 -41,8 -112,5.5 Q 853,447 798,421 795,420 766.5,405.5 738,391 713.5,380.5 689,370 650,354 q -39,-16 -74,-24 -35,-8 -74,-14 -39,-6 -76,0.5 -37,6.5 -66,22.5 35,-23 82,-30 47,-7 80.5,-6 33.5,1 89.5,15 56,14 69.5,18.5 13.5,4.5 59.5,20.5 66,24 95,33 29,9 68,16.5 39,7.5 65,1.5 26,-6 54,-22 6,-3 12.5,-17.5 6.5,-14.5 10.5,-36 4,-21.5 2.5,-47 Q 1047,260 1033.5,233 1020,206 997,182 974,158 929,139 884,120 823,111 599,78 391,174 183,270 61,469 Z M 1864,312 q -2,0 -2,-1 h -2 q -1,0 -2,-1 -47,-14 -34,-60 8,-26 37.5,-29.5 29.5,-3.5 35.5,10.5 3,5 3.5,21 0.5,16 13.5,23 54,-1 85.5,-40.5 Q 2031,195 2029,132 2028,74 1992,34.5 1956,-5 1897,-18 1745,-53 1541,94 q -86,60 -172,156 -9,10 -53.5,63.5 -44.5,53.5 -73.5,76.5 -133,114 -351,97 -13,-1 -18.5,-12 -5.5,-11 0,-21.5 5.5,-10.5 18.5,-9.5 172,13 302,-70 31,-19 60.5,-51 29.5,-32 62.5,-73 33,-41 52,-62 206,-217 416,-249 97,-15 175,19.5 78,34.5 104,123.5 20,69 -1,128 -21,59 -75,88.5 -54,29.5 -123,13.5 z M 1507,122 q -39,23 -58,63 -19,40 -22.5,88 -3.5,48 -1,101 2.5,53 3.5,103.5 1,50.5 -7.5,94 -8.5,43.5 -37.5,76 -29,32.5 -80,44.5 -13,10 -28.5,7 -15.5,-3 -25.5,-18 -10,-18 3.5,-35.5 13.5,-17.5 26.5,-14.5 4,1 12,8.5 8,7.5 17,5.5 49,-19 67.5,-73.5 Q 1395,517 1394,448 q -1,-69 -1.5,-138.5 -0.5,-69.5 20.5,-132 21,-62.5 73,-92.5 11,-6 21.5,0.5 10.5,6.5 10,18 Q 1517,115 1507,122 Z m 215,495 q -8,38 -49,27 -77,4 -141.5,-53 -64.5,-57 -60.5,-134 0,-13 11.5,-18.5 11.5,-5.5 22.5,-0.5 11,5 9,19 -3,55 40.5,97 43.5,42 101.5,47 8,-1 13.5,-10.5 5.5,-9.5 9.5,-11.5 11,-7 29.5,5.5 18.5,12.5 13.5,32.5 z"
       id="path2"
       inkscape:connector-curvature="0"
       style="fill:currentColor" />
  </g>
</svg>
