<?xml version="1.0" encoding="UTF-8" standalone="no"?>
<svg
   xmlns:dc="http://purl.org/dc/elements/1.1/"
   xmlns:cc="http://creativecommons.org/ns#"
   xmlns:rdf="http://www.w3.org/1999/02/22-rdf-syntax-ns#"
   xmlns:svg="http://www.w3.org/2000/svg"
   xmlns="http://www.w3.org/2000/svg"
   xmlns:sodipodi="http://sodipodi.sourceforge.net/DTD/sodipodi-0.dtd"
   xmlns:inkscape="http://www.inkscape.org/namespaces/inkscape"
   version="1.1"
   viewBox="0 -205 378 912"
   id="svg6"
   sodipodi:docname="tower_block.svg"
   width="378"
   height="912"
   inkscape:version="0.92.5 (2060ec1f9f, 2020-04-08)">
  <metadata
     id="metadata12">
    <rdf:RDF>
      <cc:Work
         rdf:about="">
        <dc:format>image/svg+xml</dc:format>
        <dc:type
           rdf:resource="http://purl.org/dc/dcmitype/StillImage" />
        <dc:title></dc:title>
      </cc:Work>
    </rdf:RDF>
  </metadata>
  <defs
     id="defs10" />
  <sodipodi:namedview
     pagecolor="#ffffff"
     bordercolor="#666666"
     borderopacity="1"
     objecttolerance="10"
     gridtolerance="10"
     guidetolerance="10"
     inkscape:pageopacity="0"
     inkscape:pageshadow="2"
     inkscape:window-width="640"
     inkscape:window-height="480"
     id="namedview8"
     showgrid="false"
     fit-margin-top="50"
     fit-margin-left="50"
     fit-margin-right="50"
     fit-margin-bottom="50"
     inkscape:zoom="0.61425781"
     inkscape:cx="-152.75994"
     inkscape:cy="473.94595"
     inkscape:current-layer="g4" />
  <g
     transform="matrix(1,0,0,-1,40,579)"
     id="g4">
    <path
       d="m 284,-74 -267,1 -7,10 q 23,32 16,127 l -3,2 Q 45,129 35.5,154.5 26,180 33,206 l 6,-11 4,11 4,-7 6,10 8,-14 h 1 Q 61,210 50.5,240 40,270 41,286 l 2,54 2,1 6,-3 v -9 q 0,-18 22,-46 l 1,10 q 0,13 -10.5,38 -10.5,25 -10.5,39 0,2 1.5,7 1.5,5 1.5,7 l 6,1 -20,18 1,261 5,3 2,-5 q 6,-15 7.5,-45 1.5,-30 4.5,-41 0,105 2,158 l 9,-2 q 4,-120 52,-180 1,-12 1,-37 0,-25 1,-38 l 4,-2 h 45 q 4,16 -1,67 19,16 29,42.5 10,26.5 11.5,45.5 1.5,19 2.5,52 l 7,3 q 2,-42 4,-50 14,28 6,90 l 9,2 q 10,-34 10,-84 V 539 Q 254,512 240.5,462.5 227,413 227,387 v -16 q 9,11 17,35 h 4 l 3,-3 q 0,-15 -9,-46 -9,-31 -9,-48 0,-9 4,-25 2,6 4.5,29 2.5,23 12.5,33 8,-11 8,-34 0,-18 -6,-51.5 -6,-33.5 -6,-50.5 0,-7 2,-19 2,-12 2,-16 l 7,22 4,-27 8,25 2,1 1,-22 q 1,-9 -5.5,-25 -6.5,-16 -6.5,-24 0,-29 12,-45 l -8,-9 -1,-41 Q 266,12 276.5,-21 287,-54 288,-69 Z M 76,616 73,605 v -2 l 12,2 -8,-32 4,-1 11,-15 -15,-15 6,-5 10,7 2,-1 12,-14 -3,-2 1,-6 -10,12 -5,-4 h -7 l -9,-19 5,-11 q -2,6 5,13 7,7 8,10 9,-15 15,-19 l 3,-6 -11,4 -5,-5 q 0,-10 15,-29 l 2,1 8,-1 -8,-14 -16,16 -6,-14 3,-13 4,11 q 5,-5 10,-19 5,-14 11,-19 l -2,-2 -13,11 -11,-12 q 10,-18 14,-27 -9,-11 -7,-36 H 79 l -1,-1 11,-36 h 1 l 17,-7 -5,-4 -1,-20 -12,-18 q 1,-10 1,-27 v -27 l 6,-6 q 15,21 23,22 l 13,39 -5,9 q 4,9 11,42 l 2,-12 q 0,-12 -13,-77 l 3,-3 11,11 7,-11 -1,-2 -11,2 -4,-3 v -19 l 1,-19 8,1 2,-3 8,22 5,-1 1,1 2,-11 9,41 h 1 v -13 l 1,-18 13,7 v 6 l 11,-11 1,1 -1,11 1,18 q 7,-21 10,-65.5 3,-44.5 11,-65.5 -4,-2 -15.5,-7.5 Q 189,89 180.5,86 172,83 163,83 150,83 126,91.5 102,100 88,100 75,100 56,86.5 37,73 31,71 35,85 43,95 v 3 q 0,6 1.5,22.5 Q 46,137 45,146 l 3,2 q 1,-10 0,-29 -1,-19 -1,-24 l 3,-3 q 9,15 5,57 h 5 v -47 l 2,-2 q 13,15 8,59 l 3,1 q 4,-7 4,-40 v -10 l 4,3 v 35 h 6 v -17 q 0,-9 4,-29 l 3,3 8,-1 -2,26 1,12 q 1,-7 1.5,-21 0.5,-14 1.5,-21 l 11,4 1,49 q 1,-4 1,-36 0,-6 2,-16 l 7,3 q -3,27 -3,52 h 2 l 1,-3 v -15 l 1,-44 20,-5 10,3 q -3,33 -3,67 l -10,7 h -5 l -5,-6 -6,3 -9,1 q 3,21 3,23 0,2 -3,17 -6,-7 -10,-27 l 2,22 q 0,2 -3,8 -12,0 -12,-50 l -4,-1 q -3,10 0,26 l -5,1 q -17,34 -11,42 l -8,13 4,6 -5,-2 q -20,38 -20,60 v 31 q 2,-24 32,-74 l 8,-2 2,3 Q 89,277 74,309.5 59,342 61,360 l 1,12 q 8,-11 19,-18 0,1 2.5,6 2.5,5 4.5,10 l 2,4 q 0,26 -23,47 v 8 l 3,126 5,3 q 0,1 -3,6.5 -3,5.5 -3,6.5 0,14 1,58 1,44 0,68 v -25 q 0,0 1,-31.5 1,-31.5 5,-24.5 z m 166,-64 -7,8 v -3 q 10,-26 10,-59 l -1,-58 Q 224,434 214.5,415.5 205,397 207,375 l 1,-14 2,-1 q 2,-1 3,-1 22,0 31,33 l 2,-13 q 0,-24 -17,-39 l -3,7 1,-11 -5,-11 -4,2 -1,-2 3,-7 q -4,-25 -1,-54 h 4 l 10,-7 q 16,34 19,76 5,-15 5,-28 0,-19 -13,-67 -13,-48 -23,-68 0,6 -0.5,18.5 -0.5,12.5 -0.5,18.5 0,6 3.5,16.5 3.5,10.5 3.5,14.5 l -7,12 h -2 q -4,6 -5.5,13.5 -1.5,7.5 -2.5,18 -1,10.5 -2,15.5 l -6,-2 v -5 q -2,10 -2,17 l 1,21 q 11,8 19,19 l -5,7 -11,-4 -3,5 3,1 -5,24 q 5,11 7,43 l -10,-1 q 22,22 27,26 l 1,-7 q 2,4 4.5,10.5 2.5,6.5 5,12 2.5,5.5 5.5,10.5 l -12,16 -6,-5 3,-7 -7,-13 -6,5 q 1,5 5.5,13 4.5,8 4.5,9 l -1,1 -4,-2 -7,3 -7,-5 -1,5 q 0,11 12,23 -7,-14 -7,-18 l 6,2 4,-5 8,7 1,12 -5,10 6,2 2,-2 4,4 1,12 -11,15 q 1,1 4,4.5 3,3.5 4,5.5 1,2 2,5.5 1,3.5 -1,5.5 1,4 -0.5,12.5 -1.5,8.5 -1.5,11.5 0,7 4.5,20 4.5,13 5.5,18 4,-30 4,-44 z m -20,60 1,26 q 2,-10 2,-14 0,-6 -3,-12 z m -141,6 -2,-1 -2,13 z m 147,-6 -2,-7 z M 79,610 v 1 h 1 z m 145,-35 q -1,-2 -6,-3.5 -5,-1.5 -6,-4.5 h -1 l 11,20 q 1,-1 1,-5.5 0,-4.5 1,-6.5 z m -18,-19 2,4 q 0,-2 -2,-4 z m 6,-17 q 0,-1 -1,-3 -1,-2 -1,-3 h -2 q 2,4 4,6 z m -95,-9 -1,7 z m 89,-5 -2,-3 v 4 z m -89,-14 -1,2 1,-1 z m -29,-24 4,-7 -2,-8 q -10,8 -10,21 l 2,7 q 7,6 8,7 l 3,-3 q -5,-8 -5,-17 z m 99,18 h 1 v -1 h -1 z m -102,-14 -1,3 4,7 z m 23,0 2,-2 z m -56,-9 1,-2 z m 24,-10 q -2,-4 -2,-13 v 11 z m -17,-6 -1,4 h 1 z m 94,2 q -6,0 -15,-7 l 7,1 q 14,-5 14,-6 h -1 q -3,0 -8.5,-1.5 Q 144,453 142,453 l 7,-4 q 9,0 16,-4 h -11 l -5,-4 q 22,-12 26,-17 h -2 q -4,0 -9.5,2.5 -5.5,2.5 -8.5,2.5 -2,0 -4,-1 l -2,-1 q 3,-3 11.5,-8 8.5,-5 12.5,-8 l 1,-4 q -4,2 -13,2 -9,0 -12,1 l -2,-4 h 2 q 4,-2 21,-8 l -9,-1 q 2,-2 7,-3.5 5,-1.5 7,-4.5 -8,2 -14,2 -5,0 -15.5,-1 -10.5,-1 -15.5,-1 l -3,3 v 38 q 0,11 2,35 15,3 16,3 z m 23,-3 v -2 l -4,3 h 1 z m 31,-17 -9,-10 2,6 q -4,6 -6,15 l 5,3 q 2,-2 4.5,-7 z m -150,3 1,4 q 0,-3 -0.5,-9 -0.5,-6 -0.5,-9 0,-7 2,-19 8,-3 13,-15.5 5,-12.5 5,-22.5 v -6 q -9,30 -27,31 v 27 q 0,4 2,10 -3,4 -3,9 v 6 z m 36,-24 h -5 q -5,5 -5,15 v 9 q 1,-5 5,-13.5 4,-8.5 5,-10.5 z m 11,-21 q -1,1 -3,8 l 3,-7 z m 96,3 h 1 v -5 h -1 z m -23,-36 h -3 q -2,0 -5,1 -3,1 -5,1 -6,0 -15.5,-2 -9.5,-2 -13.5,-2 l -2,8 3,1 -2,-3 q 10,5 20,5 11,0 21,-5 z m -62,5 v 3 -2 z m -10,-5 v 4 h 1 z m 71,-8 -10,1 h 4 q 4,0 6,-1 z m -1,-7 1,-10 h -6 q -4,0 -11.5,1.5 -7.5,1.5 -10.5,1.5 -4,0 -8,-2 l -6,2 1,9 q 6,3 13,3 4,0 27,-5 z m 27,-13 -6,-9 -4,1 -4,-3 v 3 l 1,3 q 2,4 4,12 z m -96,-3 h -1 v 1 l 3,8 z m 53,4 h -1 -2 q -3,0 -5,1 z m -35,-47 h -1 v 3 6 31 l 2,5 q 5,-8 5,-21 0,-9 -6,-24 z m 45,35 q -1,-1 -1.5,-5.5 -0.5,-4.5 -2,-7 -1.5,-2.5 -4.5,-2.5 -6,-15 -4,-41 l -9,-2 -4,2 q 3,12 3,24 0,18 -4,33 5,4 14,4 11,-5 12,-5 z M 99,212 h -1 l -1,40 v 8 q 13,20 19,66 2,-8 2,-23 0,-27 -7,-51 -7,-21 -7,-27 0,-9 -5,-13 z m 105,45 v -28 q -23,37 -23,87 8,-35 23,-59 z m -30,48 -2,6 h 1 l 1,-2 z m 19,-68 q -2,-6 -2,-20 -26,44 -26,91 2,-6 8,-18 4,-8 9.5,-26 5.5,-18 10.5,-27 z m -53,12 v 2 z m 100,-44 -1,4 q 1,-1 1,-4 z m -51,-18 q 1,-3 3,-8 2,-5 4,-7 l 4,2 q 1,-4 1,-13 v -14 l -7,-1 v -23 q 0,-3 -0.5,-8 -0.5,-5 -0.5,-7 -3,5 -5,15 -2,10 -4,14 -2,-14 0,-28 l -4,-2 q -5,18 -5,35 h -3 q -3,0 -3,-30 0,-5 -4,-13 -2,6 -2,37 v 8 q -8,11 -8,26 0,11 4,19 l 9,-13 1,6 q 1,6 3,10.5 2,4.5 4,4.5 l -1,-4 5,-9 q 1,3 1.5,10 0.5,7 2.5,10 8,-1 5,-17 z m 50,15 1,-2 z M 87,172 84,160 q -12,14 -12,32 v 5 q 8,-18 15,-25 z m -24,9 5,-5 v -1 l -4,-13 q -1,6 -5.5,17 -4.5,11 -5.5,16 9,-9 10,-14 z m -9,-15 h -1 q -8,16 -8,26 3,-2 9,-26 z m -7,-9 -5,2 q -8,16 -8,19 0,9 1,14 5,-6 7.5,-18.5 Q 45,161 47,157 Z m 70,25 h -1 l 1,5 v -4 z m 116,1 q -1,-5 -2,-19.5 -1,-14.5 -4,-21.5 l -6,-4 q 1,-4 1,-10 v -20 q -4,4 -4,18 v 21 11 q 4,3 14,26 z m 23,-41 -6,-2 -3,5 q 0,8 2,13.5 2,5.5 6,11 4,5.5 6,10.5 v -6 q 0,-5 -3,-15.5 -3,-10.5 -2,-16.5 z m -108,32 -8,-4 -4,1 -2,5 7,2 z m 93,-32 -3,3 q -1,-2 -1,-6 0,-34 10,-40 l 3,3 v 11 q 0,3 -0.5,11 -0.5,8 -0.5,12 h 1 q 5,0 5,-28 v -6 l -1,-2 q 1,-2 6.5,-4 5.5,-2 5.5,-8 l -1,-2 q -2,0 -40,12 l -3,7 q 3,-1 8,-1 l 3,1 q 3,1 4,1 -2,20 -2,30 0,25 11,37 1,-2 1,-6 0,-4 -3,-12.5 -3,-8.5 -3,-12.5 z m 22,-5 h -4 q 6,25 6,26 1,1 3.5,4 2.5,3 3.5,5 v -5 z m -156,31 v -3 -12 l -3,-2 h -6 q 1,2 1.5,6.5 0.5,4.5 2,7.5 1.5,3 5.5,3 z m -51,-12 1,5 1,-3 z m 85,-53 -1,-1 v 3 z m -60,-78 -2,1 1,-4 2,-4 -1,-35 -24,32 -5,1 Q 48,11 43,-1.5 38,-14 33,-20 q 4,56 4,83 l 8,2 v -9 q 0,-7 -2,-23 l 5,-1 q 2,2 2,13 0,10 2,28 l 2,1 V 39 l 6,-4 3,43 4,-3 h 1 V 39 l 6,4 q 0,1 1,5 1,4 1,5 -3,5 -3,10 0,4 5,24 l 4,2 z m 126,61 q 3,-37 5,-111 -6,5 -15,18 -9,13 -15,19 -5,-4 -7.5,-10.5 -2.5,-6.5 -4.5,-15 -2,-8.5 -4,-12.5 1,16 0.5,48 -0.5,32 0.5,48 l 3,1 q 1,-6 2,-18 1,-12 3,-18 l 6,4 q 0,3 -0.5,8 -0.5,5 -0.5,8 0,7 2,21 l 4,-1 q 0,-1 -0.5,-5 -0.5,-4 -0.5,-6 0,-2 1,-7 1,-5 1,-8 l 3,-6 3,4 q -1,5 -1,16 v 17 l 3,1 q 0,-20 4,-36 l 2,4 -2,32 z m 11,-1 q 4,-40 4,-88 l 4,-2 q 1,3 3,7 2,4 3,7 -1,8 -1,25 v 47 q 6,-5 6,-61 l 3,-3 V 12 Q 240,7 236.5,1 233,-5 227,-12.5 221,-20 220,-22 219,12 215,85 Z M 114,73 q 0,-8 -1,-22 -1,-14 -1,-21 0,-7 2,-21 l -8,-5 3,7 q 0,4 -1,11.5 -1,7.5 -1,10.5 0,2 3,50 z m -22,-88 -1,3 3,93 q 3,-9 3,-25 V 46 q 0,-48 -5,-61 z m 176,95 h 2 z M 155,76 q 3,-17 3,-50 0,-33 1,-42 -3,5 -12,7 l -8,-4 -1,1 v 39.5 q 0,0 -2,48.5 4,2 7,2 4,0 12,-2 z m 97,-4 V 44.5 q 0,0 2,-34.5 l 2,-1 4,10 q 2,-9 2,-28 l -15,23 v 53 q 0,6 1,9 z m -125,4 q 0,-6 1,-16 1,-10 1,-15 V 14 -10 q -5,12 -5,16 0,1 1,3.5 1,2.5 1,3.5 0,2 -0.5,8 -0.5,6 -0.5,9 v 30 q 0,10 1,16 z M 87,64 v 10 z m 172,9 h 1 v -6 h -1 z M 151,69 q -1,-5 -1,-17 0,-1 3,-49 l -6,-3 q -4,4 -4,58 v 10 l 5,2 z m 108,-5 h 1 v -2 h -1 z m 2,-42 q -2,18 -2,27 v 8 4 q 0,-5 1,-14 1,-9 1,-13 v -8 z m 12,-61 9,-22 q -9,3 -27.5,7 -18.5,4 -27.5,6 6,2 9,2 6,0 17.5,-3.5 Q 265,-53 269,-54 l 2,2 q -17,32 -22,45 l -5,1 q -2,-5 -9,-17.5 Q 228,-36 225,-43 l -2,3 21,45 q 4,-4 14,-22.5 10,-18.5 15,-21.5 z m -196,4 h 9 v -6 q 5,1 7,13 2,6 10,16 8,10 10,13 6,-6 13.5,-20.5 7.5,-14.5 9.5,-18.5 -3,-7 -1,-21 L 81,-42 Q 50,-54 22,-60 l -1,1 q 0,9 8,13 l -1,-4 3,-3 q 16,7 16,22 l 7,9 8,-17 10,3 q -3,4 -22,33 l 7,4 q 6,-9 20,-36 z m 138,-12 -47,-18 -4,4 2,9 2,-5 8,3 14,22 q 2,-1 4.5,-5 2.5,-4 5.5,-5 l 3,2 q 0,5 -5,9.5 -5,4.5 -6,6.5 -7,1 -9,11 l -4,-3 v -2 q 0,-6 -4.5,-15 -4.5,-9 -5.5,-12 l -1,-1 v 10 q 0,6 5.5,16.5 Q 179,-9 180,-5 l 3,2 v 2 q 26,-36 32,-46 z m -84,-2 -6,-2 q -2,3 -6.5,13 -4.5,10 -7.5,15 -3,-2 -6.5,-9 -3.5,-7 -7.5,-9 l -1,2 q 2,3 9,14 7,11 10,17 16,-34 16,-41 z m -97,15 q 1,5 8,17 0,-1 -8,-17 z m 127,1 -2,-1 q -11,8 -13,8 -3,0 -4,-1 l 3,6 5,3 q 5,-2 11,-15 z m -3,-17 -1,-1 1,12 z m 0,-28 h -7 z"
       id="path2"
       inkscape:connector-curvature="0"
       style="fill:currentColor" />
  </g>
</svg>
