<?xml version="1.0" encoding="UTF-8" standalone="no"?>
<svg
   xmlns:dc="http://purl.org/dc/elements/1.1/"
   xmlns:cc="http://creativecommons.org/ns#"
   xmlns:rdf="http://www.w3.org/1999/02/22-rdf-syntax-ns#"
   xmlns:svg="http://www.w3.org/2000/svg"
   xmlns="http://www.w3.org/2000/svg"
   xmlns:sodipodi="http://sodipodi.sourceforge.net/DTD/sodipodi-0.dtd"
   xmlns:inkscape="http://www.inkscape.org/namespaces/inkscape"
   viewBox="0 -200 823 823"
   id="svg2"
   version="1.1"
   inkscape:version="0.92.5 (2060ec1f9f, 2020-04-08)"
   width="823"
   height="823"
   sodipodi:docname="twilight_4.svg">
  <metadata
     id="metadata12">
    <rdf:RDF>
      <cc:Work
         rdf:about="">
        <dc:format>image/svg+xml</dc:format>
        <dc:type
           rdf:resource="http://purl.org/dc/dcmitype/StillImage" />
        <dc:title></dc:title>
      </cc:Work>
    </rdf:RDF>
  </metadata>
  <defs
     id="defs10">
    <inkscape:perspective
       sodipodi:type="inkscape:persp3d"
       inkscape:vp_x="0 : 0.5 : 1"
       inkscape:vp_y="0 : 1 : 0"
       inkscape:vp_z="1 : 0.5 : 1"
       inkscape:persp3d-origin="0.5 : 0.33333333 : 1"
       id="perspective14" />
  </defs>
  <sodipodi:namedview
     pagecolor="#ffffff"
     bordercolor="#666666"
     borderopacity="1"
     objecttolerance="10"
     gridtolerance="10"
     guidetolerance="10"
     inkscape:pageopacity="0"
     inkscape:pageshadow="2"
     inkscape:window-width="1600"
     inkscape:window-height="1174"
     id="namedview8"
     showgrid="false"
     inkscape:zoom="0.8359833"
     inkscape:cx="172.02704"
     inkscape:cy="410.31997"
     inkscape:window-x="-4"
     inkscape:window-y="-4"
     inkscape:window-maximized="1"
     inkscape:current-layer="svg2"
     fit-margin-top="50"
     fit-margin-left="50"
     fit-margin-right="50"
     fit-margin-bottom="50" />
  <g
     transform="matrix(1,0,0,-1,-5,545)"
     id="g4">
    <path
       d="M 416,305 C 317,305 231,341 161,411 90,482 55,567 55,667 c 0,100 35,184 106,255 71,71 156,106 255,106 100,0 185,-35 256,-106 C 743,851 778,767 778,667 778,567 743,482 672,411 602,341 516,305 416,305 Z m 65,24 h 27 c 15,0 22,6 9,24 L 247,727 c -9,12 -9,19 19,19 h 111 c 19,0 21,-2 21,-26 V 594 c 0,-21 5,-26 20,-32 23,-10 72,-28 87,-28 8,0 12,6 12,15 v 171 c 0,24 1,26 20,26 h 60 c 13,7 13,43 0,51 h -60 c -19,0 -20,2 -20,26 v 25 c 0,74 5,81 45,85 l 18,2 c 9,6 8,29 -1,32 -33,-2 -80,-3 -122,-3 -59,0 -113,1 -144,3 -9,-3 -10,-26 -2,-32 l 37,-2 c 44,-2 50,-11 50,-85 v -25 c 0,-24 -2,-26 -21,-26 H 169 c -11,-5 -13,-17 -10,-29 L 452,350 c 10,-14 17,-21 29,-21 z"
       transform="matrix(1,0,0,-1,0,1000)"
       id="path6"
       inkscape:connector-curvature="0" />
  </g>
</svg>
