<?xml version="1.0" encoding="UTF-8" standalone="no"?>
<svg
   xmlns:dc="http://purl.org/dc/elements/1.1/"
   xmlns:cc="http://creativecommons.org/ns#"
   xmlns:rdf="http://www.w3.org/1999/02/22-rdf-syntax-ns#"
   xmlns:svg="http://www.w3.org/2000/svg"
   xmlns="http://www.w3.org/2000/svg"
   xmlns:sodipodi="http://sodipodi.sourceforge.net/DTD/sodipodi-0.dtd"
   xmlns:inkscape="http://www.inkscape.org/namespaces/inkscape"
   viewBox="0 -200 822 823"
   id="svg2903"
   version="1.1"
   inkscape:version="0.92.5 (2060ec1f9f, 2020-04-08)"
   width="822"
   height="823"
   sodipodi:docname="twilight_8.svg">
  <metadata
     id="metadata2913">
    <rdf:RDF>
      <cc:Work
         rdf:about="">
        <dc:format>image/svg+xml</dc:format>
        <dc:type
           rdf:resource="http://purl.org/dc/dcmitype/StillImage" />
        <dc:title></dc:title>
      </cc:Work>
    </rdf:RDF>
  </metadata>
  <defs
     id="defs2911">
    <inkscape:perspective
       sodipodi:type="inkscape:persp3d"
       inkscape:vp_x="0 : 0.5 : 1"
       inkscape:vp_y="0 : 1 : 0"
       inkscape:vp_z="1 : 0.5 : 1"
       inkscape:persp3d-origin="0.5 : 0.33333333 : 1"
       id="perspective2915" />
  </defs>
  <sodipodi:namedview
     pagecolor="#ffffff"
     bordercolor="#666666"
     borderopacity="1"
     objecttolerance="10"
     gridtolerance="10"
     guidetolerance="10"
     inkscape:pageopacity="0"
     inkscape:pageshadow="2"
     inkscape:window-width="1600"
     inkscape:window-height="1174"
     id="namedview2909"
     showgrid="false"
     inkscape:zoom="0.41786427"
     inkscape:cx="488.79715"
     inkscape:cy="556.25916"
     inkscape:window-x="-4"
     inkscape:window-y="-4"
     inkscape:window-maximized="1"
     inkscape:current-layer="svg2903"
     fit-margin-top="50"
     fit-margin-left="50"
     fit-margin-right="50"
     fit-margin-bottom="50" />
  <g
     transform="matrix(1,0,0,-1,2,543)"
     id="g2905">
    <path
       d="M 409,307 C 309,307 224,342 153,413 82,484 48,569 48,669 c 0,100 35,185 105,255 71,71 156,106 256,106 100,0 185,-35 256,-106 C 735,854 770,769 770,669 770,569 736,484 665,413 594,342 509,307 409,307 Z m 5,73 c 102,0 174,55 174,142 0,62 -51,101 -98,123 67,34 120,81 120,170 0,86 -65,154 -207,154 -105,0 -197,-46 -197,-148 0,-71 48,-121 119,-148 -56,-30 -95,-74 -95,-136 0,-90 72,-157 184,-157 z"
       transform="matrix(1,0,0,-1,0,1000)"
       id="path2907"
       inkscape:connector-curvature="0" />
    <path
       d="m 418,73 c 39,0 74,30 74,83 0,71 -49,110 -124,145 -32,-32 -46,-67 -46,-117 0,-60 37,-111 96,-111 z"
       id="path2921"
       inkscape:connector-curvature="0" />
    <path
       d="m 412,579 c -41,0 -73,-35 -73,-84 0,-42 31,-80 105,-112 28,17 43,55 43,98 0,63 -39,98 -75,98 z"
       id="path2919"
       inkscape:connector-curvature="0" />
  </g>
</svg>
