<?xml version="1.0" encoding="UTF-8" standalone="no"?>
<svg
   xmlns:dc="http://purl.org/dc/elements/1.1/"
   xmlns:cc="http://creativecommons.org/ns#"
   xmlns:rdf="http://www.w3.org/1999/02/22-rdf-syntax-ns#"
   xmlns:svg="http://www.w3.org/2000/svg"
   xmlns="http://www.w3.org/2000/svg"
   xmlns:sodipodi="http://sodipodi.sourceforge.net/DTD/sodipodi-0.dtd"
   xmlns:inkscape="http://www.inkscape.org/namespaces/inkscape"
   width="891.46716"
   height="891.46716"
   viewBox="0 0 835.74991 835.74991"
   version="1.1"
   id="svg3"
   sodipodi:docname="0.svg"
   inkscape:version="0.92.5 (2060ec1f9f, 2020-04-08)">
  <metadata
     id="metadata9">
    <rdf:RDF>
      <cc:Work
         rdf:about="">
        <dc:format>image/svg+xml</dc:format>
        <dc:type
           rdf:resource="http://purl.org/dc/dcmitype/StillImage" />
        <dc:title></dc:title>
      </cc:Work>
    </rdf:RDF>
  </metadata>
  <defs
     id="defs7" />
  <sodipodi:namedview
     pagecolor="#ffffff"
     bordercolor="#666666"
     borderopacity="1"
     objecttolerance="10"
     gridtolerance="10"
     guidetolerance="10"
     inkscape:pageopacity="0"
     inkscape:pageshadow="2"
     inkscape:window-width="640"
     inkscape:window-height="480"
     id="namedview5"
     showgrid="false"
     fit-margin-top="50"
     fit-margin-left="50"
     fit-margin-right="50"
     fit-margin-bottom="50"
     units="px"
     inkscape:zoom="0.39207923"
     inkscape:cx="241.89725"
     inkscape:cy="400.86618"
     inkscape:current-layer="svg3" />
  <path
     id="circle copy"
     d="m 47.374969,418.37497 c 0,-103.33 36.33,-190.67 109.000001,-262 72.67,-72.670001 159.67,-109.000001 261,-109.000001 101.33,0 188.67,36.33 262,109.000001 72.67,72.67 109,160 109,262 0,102 -36.17,189.17 -108.5,261.5 -72.33,72.33 -159.83,108.5 -262.5,108.5 -102,0 -189.17,-36.17 -261.5,-108.5 -72.330001,-72.33 -108.500001,-159.5 -108.500001,-261.5 z M 402.37497,77.514969 c -19.04,3.05 -35.5,6.59 -53,15.12 -46.12,22.480001 -77.88,67.000001 -100.25,111.740001 -17.66,35.34 -28.39,80.92 -34.02,120 -10.51,72.88 -7.86,158.72 11.42,230 0,0 9.18,27 9.18,27 16.07,48.21 34.15,87.55 72.66,122.28 0,0 8.1,8.05 8.1,8.05 15.2,12.97 37.72,23.37 56.91,28.81 9.13,2.59 25.66,5.75 35,5.86 20.28,0.23 37.07,0.52 57,-4.73 28.07,-7.4 50.47,-19.66 72,-39.2 0,0 8.91,-8.08 8.91,-8.08 4.04,-4.25 6.67,-8.41 10.12,-12.99 0,0 13.28,-18 13.28,-18 13.99,-21.49 26.89,-50.61 35.02,-75 8.97,-26.9 12.2,-41.84 18.28,-69 0,0 4.97,-24 4.97,-24 0,0 4.51,-47 4.51,-47 0,0 0.91,-12 0.91,-12 0,0 0,-51 0,-51 0,0 -1.83,-26 -1.83,-26 -4.41,-45.49 -11.37,-83.55 -26.17,-127 -17.3,-50.79 -58.34,-110.86 -106,-136.690001 -18.23,-9.88 -46.2,-18.28 -67,-18.17 0,0 -12,0 -12,0 0,0 -18,0 -18,0 z m 21,28.430001 c 12.89,0.65 19.62,0.87 32,5.88 41.9,16.97 61.01,70.04 71.13,110.55 6.87,27.54 10.31,55.82 13.04,84 0,0 1.92,26 1.92,26 0,0 0.91,10 0.91,10 0,0 1,31 1,31 0,0 1,16 1,16 0,0 0,65 0,65 0,0 -1,17 -1,17 0,0 -2.18,34 -2.18,34 0,0 -1.64,8 -1.64,8 0,0 -3.46,32 -3.46,32 0,0 -7.32,42 -7.32,42 -11.06,54.96 -38.94,126.66 -105.4,126.66 -6.08,0 -16.1,-1.24 -22,-2.81 -53.61,-14.3 -71.82,-76.4 -83.44,-123.85 0,0 -2.95,-10 -2.95,-10 -5.52,-24.64 -11.57,-80.76 -11.61,-106 0,0 -1,-17 -1,-17 0,0 0,-44 0,-44 0,0 1,-15 1,-15 0,0 0,-32 0,-32 0,0 1,-16 1,-16 0,0 1.91,-30 1.91,-30 2.21,-32.18 6.38,-64.64 14.22,-96 10.04,-40.19 29.38,-92.73 70.87,-109.55 12.37,-5.01 19.12,-5.23 32,-5.88 z"
     style="fill:#000000;fill-opacity:1;stroke:#000000;stroke-width:1"
     inkscape:connector-curvature="0" />
</svg>
