<?xml version="1.0" encoding="UTF-8" standalone="no"?>
<svg
   xmlns:dc="http://purl.org/dc/elements/1.1/"
   xmlns:cc="http://creativecommons.org/ns#"
   xmlns:rdf="http://www.w3.org/1999/02/22-rdf-syntax-ns#"
   xmlns:svg="http://www.w3.org/2000/svg"
   xmlns="http://www.w3.org/2000/svg"
   xmlns:sodipodi="http://sodipodi.sourceforge.net/DTD/sodipodi-0.dtd"
   xmlns:inkscape="http://www.inkscape.org/namespaces/inkscape"
   viewBox="0 -200 822 823"
   id="svg2"
   version="1.1"
   inkscape:version="0.92.5 (2060ec1f9f, 2020-04-08)"
   width="822"
   height="823"
   sodipodi:docname="twilight_9.svg">
  <metadata
     id="metadata12">
    <rdf:RDF>
      <cc:Work
         rdf:about="">
        <dc:format>image/svg+xml</dc:format>
        <dc:type
           rdf:resource="http://purl.org/dc/dcmitype/StillImage" />
        <dc:title></dc:title>
      </cc:Work>
    </rdf:RDF>
  </metadata>
  <defs
     id="defs10">
    <inkscape:perspective
       sodipodi:type="inkscape:persp3d"
       inkscape:vp_x="0 : 0.5 : 1"
       inkscape:vp_y="0 : 1 : 0"
       inkscape:vp_z="1 : 0.5 : 1"
       inkscape:persp3d-origin="0.5 : 0.33333333 : 1"
       id="perspective14" />
    <inkscape:perspective
       id="perspective2850"
       inkscape:persp3d-origin="0.5 : 0.33333333 : 1"
       inkscape:vp_z="1 : 0.5 : 1"
       inkscape:vp_y="0 : 1 : 0"
       inkscape:vp_x="0 : 0.5 : 1"
       sodipodi:type="inkscape:persp3d" />
  </defs>
  <sodipodi:namedview
     pagecolor="#ffffff"
     bordercolor="#666666"
     borderopacity="1"
     objecttolerance="10"
     gridtolerance="10"
     guidetolerance="10"
     inkscape:pageopacity="0"
     inkscape:pageshadow="2"
     inkscape:window-width="1600"
     inkscape:window-height="1174"
     id="namedview8"
     showgrid="false"
     inkscape:zoom="0.56"
     inkscape:cx="-222.0766"
     inkscape:cy="544.23164"
     inkscape:window-x="-4"
     inkscape:window-y="-4"
     inkscape:window-maximized="1"
     inkscape:current-layer="svg2"
     fit-margin-top="50"
     fit-margin-left="50"
     fit-margin-right="50"
     fit-margin-bottom="50" />
  <g
     transform="matrix(1,0,0,-1,3,546)"
     id="g4">
    <path
       d="M 408,304 C 308,304 223,339 152,410 82,480 47,566 47,666 c 0,99 35,185 105,255 71,71 156,106 256,106 100,0 185,-35 256,-106 C 734,851 769,765 769,666 769,566 734,480 664,410 593,339 508,304 408,304 Z m 9.96875,36.125 c 56.4,0 103.34385,20.41875 140.84375,61.21875 37.5,40.8 56.25,98.10625 56.25,171.90625 0,84.00001 -24.8874,160.775 -74.6875,230.375 -22.1999,31.2 -48.00625,59.11875 -77.40625,83.71875 -29.3999,24.60001 -54.2875,42.7375 -74.6875,54.4375 -20.3999,11.7 -50.1249,27.45 -89.125,47.25 l -18,-31.5 83.71875,-59.84375 c 27.06,-19.34935 40.1875,-37.05624 43.1875,-48.15625 27,-37.2 51.91875,-95.39375 74.71875,-174.59375 -39.6,28.20001 -77.7125,42.3125 -114.3125,42.3125 -43.2,0 -79.0625,-15.75 -107.5625,-47.25 -28.4999,-31.5 -42.75,-72.16874 -42.75,-121.96875 0,-63.59999 19.66885,-114.15625 58.96875,-151.65625 39.3,-37.5 86.24385,-56.25 140.84375,-56.25 z m -11.6875,42.3125 c -20.3999,0 -38.125,9.44375 -53.125,28.34375 -14.9999,18.9 -22.5,49.34376 -22.5,91.34375 0,46.8 8.725,84.775 26.125,113.875 17.4001,29.10001 40.7876,43.625 70.1875,43.625 12.0001,0 23.3875,-2.525 34.1875,-7.625 10.8,-5.09999 18.60625,-10.07499 23.40625,-14.875 4.8001,-4.8 7.49385,-8.075 8.09375,-9.875 4.8001,-9.59999 7.21875,-33.90624 7.21875,-72.90625 0,-18 -1.4999,-36.16874 -4.5,-54.46875 -3,-18.3 -7.80615,-36.57501 -14.40625,-54.875 -6.6,-18.3 -16.3499,-33.3 -29.25,-45 -12.9,-11.7 -28.0374,-17.5625 -45.4375,-17.5625 z"
       transform="matrix(1,0,0,-1,0,1000)"
       id="path6"
       inkscape:connector-curvature="0" />
  </g>
  <g
     id="g2840"
     transform="matrix(-1,0,0,1,1828.8959,995.6816)" />
</svg>
