<?xml version="1.0" encoding="UTF-8" standalone="no"?>
<svg
   xmlns:dc="http://purl.org/dc/elements/1.1/"
   xmlns:cc="http://creativecommons.org/ns#"
   xmlns:rdf="http://www.w3.org/1999/02/22-rdf-syntax-ns#"
   xmlns:svg="http://www.w3.org/2000/svg"
   xmlns="http://www.w3.org/2000/svg"
   xmlns:sodipodi="http://sodipodi.sourceforge.net/DTD/sodipodi-0.dtd"
   xmlns:inkscape="http://www.inkscape.org/namespaces/inkscape"
   viewBox="0 -200 822 823"
   id="svg2"
   version="1.1"
   inkscape:version="0.92.5 (2060ec1f9f, 2020-04-08)"
   width="822"
   height="823"
   sodipodi:docname="twilight_5.svg">
  <metadata
     id="metadata12">
    <rdf:RDF>
      <cc:Work
         rdf:about="">
        <dc:format>image/svg+xml</dc:format>
        <dc:type
           rdf:resource="http://purl.org/dc/dcmitype/StillImage" />
        <dc:title></dc:title>
      </cc:Work>
    </rdf:RDF>
  </metadata>
  <defs
     id="defs10">
    <inkscape:perspective
       sodipodi:type="inkscape:persp3d"
       inkscape:vp_x="0 : 0.5 : 1"
       inkscape:vp_y="0 : 1 : 0"
       inkscape:vp_z="1 : 0.5 : 1"
       inkscape:persp3d-origin="0.5 : 0.33333333 : 1"
       id="perspective14" />
  </defs>
  <sodipodi:namedview
     pagecolor="#ffffff"
     bordercolor="#666666"
     borderopacity="1"
     objecttolerance="10"
     gridtolerance="10"
     guidetolerance="10"
     inkscape:pageopacity="0"
     inkscape:pageshadow="2"
     inkscape:window-width="1600"
     inkscape:window-height="1174"
     id="namedview8"
     showgrid="false"
     inkscape:zoom="0.8359833"
     inkscape:cx="261.36838"
     inkscape:cy="394.70712"
     inkscape:window-x="-4"
     inkscape:window-y="-4"
     inkscape:window-maximized="1"
     inkscape:current-layer="svg2"
     fit-margin-top="50"
     fit-margin-left="50"
     fit-margin-right="50"
     fit-margin-bottom="50" />
  <g
     transform="matrix(1,0,0,-1,3,546)"
     id="g4">
    <path
       d="M 408,304 C 308,304 223,339 152,410 82,480 47,566 47,666 c 0,99 35,185 105,255 71,71 156,106 256,106 100,0 185,-35 256,-106 C 734,851 769,765 769,666 769,566 734,480 664,410 593,339 508,304 408,304 Z m 152,53 c 7,0 9,4 9,10 -7,33 -25,68 -47,88 l -193,21 c -12,1 -16,11 -20,25 l -5,20 c -5,20 6,23 23,25 46,5 125,17 175,42 48,24 90,71 90,142 0,89 -52,147 -123,185 -71,39 -160,55 -231,57 -13,-6 -17,-33 -6,-41 62,-2 131,-14 171,-38 51,-30 80,-69 80,-116 0,-122 -128,-134 -214,-141 -27,-2 -30,-10 -25,-30 l 51,-196 c 6,-22 11,-23 38,-26 z"
       transform="matrix(1,0,0,-1,0,1000)"
       id="path6"
       inkscape:connector-curvature="0" />
  </g>
</svg>
