<?xml version="1.0" encoding="UTF-8" standalone="no"?>
<svg
   xmlns:dc="http://purl.org/dc/elements/1.1/"
   xmlns:cc="http://creativecommons.org/ns#"
   xmlns:rdf="http://www.w3.org/1999/02/22-rdf-syntax-ns#"
   xmlns:svg="http://www.w3.org/2000/svg"
   xmlns="http://www.w3.org/2000/svg"
   xmlns:sodipodi="http://sodipodi.sourceforge.net/DTD/sodipodi-0.dtd"
   xmlns:inkscape="http://www.inkscape.org/namespaces/inkscape"
   viewBox="0 -200 822 822"
   version="1.1"
   id="svg6"
   sodipodi:docname="twilight_3.svg"
   width="822"
   height="822"
   inkscape:version="0.92.5 (2060ec1f9f, 2020-04-08)">
  <metadata
     id="metadata12">
    <rdf:RDF>
      <cc:Work
         rdf:about="">
        <dc:format>image/svg+xml</dc:format>
        <dc:type
           rdf:resource="http://purl.org/dc/dcmitype/StillImage" />
        <dc:title></dc:title>
      </cc:Work>
    </rdf:RDF>
  </metadata>
  <defs
     id="defs10" />
  <sodipodi:namedview
     pagecolor="#ffffff"
     bordercolor="#666666"
     borderopacity="1"
     objecttolerance="10"
     gridtolerance="10"
     guidetolerance="10"
     inkscape:pageopacity="0"
     inkscape:pageshadow="2"
     inkscape:window-width="640"
     inkscape:window-height="480"
     id="namedview8"
     showgrid="false"
     fit-margin-top="50"
     fit-margin-left="50"
     fit-margin-right="50"
     fit-margin-bottom="50"
     inkscape:zoom="0.629"
     inkscape:cx="-148.26391"
     inkscape:cy="587"
     inkscape:current-layer="svg6" />
  <g
     transform="matrix(1,0,0,-1,-2,535)"
     id="g4">
    <path
       d="m 396,585 q 33,0 53.5,-20 Q 470,545 470,520 470,489 457,469 444,449 432,439 419,428 399.5,417 380,406 359.5,396 339,386 320,378.5 301,371 287,366 281,350 287.5,337.5 294,325 308,323 q 17,15 39,26 22,11 50,11 48,0 76.5,-38.5 Q 502,283 502,223 502,181 488.5,150.5 475,120 456,100 437,80 416.5,70.5 396,61 382,61 372,61 361.5,65 351,69 343,81 l -8,13 q 0,0 -12.5,15.5 Q 310,125 305,123 q -5,-2 -22,6 -27,0 -40.5,-15.5 Q 229,98 229,80 229,63 237.5,50.5 246,38 259.5,30.5 273,23 290.5,19.5 308,16 326,16 q 18,0 42,3 24,3 51,11.5 27,8.5 56.5,22.5 29.5,14 58.5,35 54,39 78.5,86.5 24.5,47.5 24.5,96.5 0,33 -12,59 -12,26 -33,44.5 -21,18.5 -48.5,28 -27.5,9.5 -57.5,8.5 -9,0 -12.5,4 -3.5,4 4.5,7 37,16 59,31 22,15 34,29.5 12,14.5 16,28.5 4,14 4,28 0,45 -38.5,74 Q 514,642 448,642 387,642 337,612.5 287,583 260,528 q 0,-8 8,-14 8,-6 17,-3 20,30 49.5,52 29.5,22 61.5,22 z M 52,324 Q 52,475 157,580 262,685 413,685 564,685 669,580 774,475 774,324 774,173 669,68 564,-37 413,-37 262,-37 157,68 52,173 52,324 Z"
       id="path2"
       inkscape:connector-curvature="0"
       style="fill:currentColor" />
  </g>
</svg>
