<?xml version="1.0" encoding="UTF-8" standalone="no"?>
<svg
   xmlns:dc="http://purl.org/dc/elements/1.1/"
   xmlns:cc="http://creativecommons.org/ns#"
   xmlns:rdf="http://www.w3.org/1999/02/22-rdf-syntax-ns#"
   xmlns:svg="http://www.w3.org/2000/svg"
   xmlns="http://www.w3.org/2000/svg"
   xmlns:sodipodi="http://sodipodi.sourceforge.net/DTD/sodipodi-0.dtd"
   xmlns:inkscape="http://www.inkscape.org/namespaces/inkscape"
   width="891.46716"
   height="891.46716"
   viewBox="0 0 835.74993 835.74993"
   version="1.1"
   id="svg3"
   sodipodi:docname="twilight_7.svg"
   inkscape:version="0.92.5 (2060ec1f9f, 2020-04-08)">
  <metadata
     id="metadata9">
    <rdf:RDF>
      <cc:Work
         rdf:about="">
        <dc:format>image/svg+xml</dc:format>
        <dc:type
           rdf:resource="http://purl.org/dc/dcmitype/StillImage" />
        <dc:title></dc:title>
      </cc:Work>
    </rdf:RDF>
  </metadata>
  <defs
     id="defs7" />
  <sodipodi:namedview
     pagecolor="#ffffff"
     bordercolor="#666666"
     borderopacity="1"
     objecttolerance="10"
     gridtolerance="10"
     guidetolerance="10"
     inkscape:pageopacity="0"
     inkscape:pageshadow="2"
     inkscape:window-width="640"
     inkscape:window-height="480"
     id="namedview5"
     showgrid="false"
     fit-margin-top="50"
     fit-margin-left="50"
     fit-margin-right="50"
     fit-margin-bottom="50"
     units="px"
     inkscape:zoom="0.39207923"
     inkscape:cx="390.54289"
     inkscape:cy="510.18342"
     inkscape:current-layer="svg3" />
  <path
     id="circle #1"
     d="m 47.37497,418.37497 c 0,-103.33 36.33,-190.67 109,-262 72.67,-72.67 159.67,-109 261,-109 101.33,0 188.67,36.33 262,109 72.67,72.67 109,160 109,262 0,102 -36.17,189.17 -108.5,261.5 -72.33,72.33 -159.83,108.5 -262.5,108.5 -102,0 -189.17,-36.17 -261.5,-108.5 -72.33,-72.33 -108.5,-159.5 -108.5,-261.5 z m 187.39,-273 c -4.04,24 -13.8,66 -29.28,126 3.37,8 9.42,10.33 18.17,7 4.04,-10 15.15,-18.67 33.32,-26 11.44,-4.67 40.05,-7 85.81,-7 0,0 130.24,0 130.24,0 4.03,0 6.56,0.17 7.57,0.5 1.01,0.33 1.68,1.17 2.02,2.5 0.33,1.33 0.5,2.33 0.5,3 0.67,1.33 -1.01,6.33 -5.05,15 0,0 -213.01,439 -213.01,439 0,1.33 1.51,2.83 4.54,4.5 3.03,1.67 11.1,3.33 24.23,5 13.12,1.67 20.02,2.5 20.69,2.5 6.73,3.33 15.15,4.33 25.24,3 0,0 214.03,-425 214.03,-425 31.63,-62.67 57.88,-110 78.75,-142 0,-4 -2.02,-6.67 -6.06,-8 -10.1,2 -55.86,3 -137.3,3 0,0 -136.29,0 -136.29,0 -58.56,0 -97.93,-1 -118.12,-3 z"
     inkscape:connector-curvature="0"
     style="fill:#000000;fill-opacity:1;stroke:#000000;stroke-width:1" />
</svg>
