<?xml version="1.0" encoding="UTF-8" standalone="no"?>
<svg
   xmlns:dc="http://purl.org/dc/elements/1.1/"
   xmlns:cc="http://creativecommons.org/ns#"
   xmlns:rdf="http://www.w3.org/1999/02/22-rdf-syntax-ns#"
   xmlns:svg="http://www.w3.org/2000/svg"
   xmlns="http://www.w3.org/2000/svg"
   xmlns:sodipodi="http://sodipodi.sourceforge.net/DTD/sodipodi-0.dtd"
   xmlns:inkscape="http://www.inkscape.org/namespaces/inkscape"
   viewBox="0 -200 823 823"
   id="svg2"
   version="1.1"
   inkscape:version="0.92.5 (2060ec1f9f, 2020-04-08)"
   width="823"
   height="823"
   sodipodi:docname="twilight_x.svg">
  <metadata
     id="metadata12">
    <rdf:RDF>
      <cc:Work
         rdf:about="">
        <dc:format>image/svg+xml</dc:format>
        <dc:type
           rdf:resource="http://purl.org/dc/dcmitype/StillImage" />
        <dc:title></dc:title>
      </cc:Work>
    </rdf:RDF>
  </metadata>
  <defs
     id="defs10">
    <inkscape:perspective
       sodipodi:type="inkscape:persp3d"
       inkscape:vp_x="0 : 0.5 : 1"
       inkscape:vp_y="0 : 1 : 0"
       inkscape:vp_z="1 : 0.5 : 1"
       inkscape:persp3d-origin="0.5 : 0.33333333 : 1"
       id="perspective14" />
  </defs>
  <sodipodi:namedview
     pagecolor="#ffffff"
     bordercolor="#666666"
     borderopacity="1"
     objecttolerance="10"
     gridtolerance="10"
     guidetolerance="10"
     inkscape:pageopacity="0"
     inkscape:pageshadow="2"
     inkscape:window-width="640"
     inkscape:window-height="481"
     id="namedview8"
     showgrid="false"
     inkscape:zoom="0.236"
     inkscape:cx="-644.0678"
     inkscape:cy="578"
     inkscape:window-x="0"
     inkscape:window-y="0"
     inkscape:window-maximized="0"
     inkscape:current-layer="svg2"
     fit-margin-top="50"
     fit-margin-left="50"
     fit-margin-right="50"
     fit-margin-bottom="50" />
  <g
     transform="matrix(1,0,0,-1,0,545)"
     id="g4">
    <path
       d="M 412,305 C 312,305 226,341 156,411 86,481 50,567 50,667 c 0,100 36,185 106,255 70,71 156,106 256,106 100,0 184,-35 255,-106 C 738,851 773,767 773,667 773,567 738,481 667,411 597,341 512,305 412,305 Z M 160,425 c 24,1 70,2 114,2 60,0 89,-1 111,-2 8,3 8,20 3,25 l -16,3 c -12,2 -25,6 -25,11 0,7 3,14 12,29 20,34 42,68 64,101 27,-41 50,-72 73,-111 8,-13 8,-18 8,-22 0,-2 -5,-5 -15,-7 l -23,-4 c -6,-5 -6,-22 2,-25 23,1 50,2 84,2 35,0 62,-1 85,-2 7,3 8,19 3,25 l -24,3 c -15,2 -28,5 -41,19 -35,35 -75,85 -109,132 -8,10 -15,21 -15,25 0,3 3,11 10,22 l 117,180 c 26,38 44,48 72,52 l 23,3 c 5,5 5,21 -2,26 -33,-2 -55,-3 -115,-3 -50,0 -83,1 -122,3 -7,-3 -10,-22 -3,-26 l 20,-2 c 19,-2 27,-6 27,-10 0,-6 -3,-13 -21,-43 -11,-20 -64,-102 -74,-116 -29,42 -62,94 -86,140 -5,10 -7,15 -7,19 0,5 8,8 24,10 l 19,2 c 6,5 6,23 -2,26 -33,-2 -70,-3 -101,-3 -24,0 -54,1 -76,3 -8,-4 -10,-20 -3,-24 l 17,-3 c 44,-8 60,-28 84,-61 21,-28 59,-82 91,-129 7,-9 10,-18 10,-22 0,-3 -2,-10 -11,-24 C 317,614 271,541 237,492 220,468 205,458 172,453 l -12,-3 c -7,-5 -7,-21 0,-25 z"
       transform="matrix(1,0,0,-1,0,1000)"
       id="path2822"
       inkscape:connector-curvature="0" />
  </g>
</svg>
