<?xml version="1.0" encoding="UTF-8" standalone="no"?>
<svg
   xmlns:dc="http://purl.org/dc/elements/1.1/"
   xmlns:cc="http://creativecommons.org/ns#"
   xmlns:rdf="http://www.w3.org/1999/02/22-rdf-syntax-ns#"
   xmlns:svg="http://www.w3.org/2000/svg"
   xmlns="http://www.w3.org/2000/svg"
   xmlns:sodipodi="http://sodipodi.sourceforge.net/DTD/sodipodi-0.dtd"
   xmlns:inkscape="http://www.inkscape.org/namespaces/inkscape"
   version="1.1"
   viewBox="0 -205 1112.1926 910.90778"
   id="svg6"
   sodipodi:docname="uruk.svg"
   width="1112.1926"
   height="910.90778"
   inkscape:version="0.92.5 (2060ec1f9f, 2020-04-08)">
  <metadata
     id="metadata12">
    <rdf:RDF>
      <cc:Work
         rdf:about="">
        <dc:format>image/svg+xml</dc:format>
        <dc:type
           rdf:resource="http://purl.org/dc/dcmitype/StillImage" />
        <dc:title></dc:title>
      </cc:Work>
    </rdf:RDF>
  </metadata>
  <defs
     id="defs10" />
  <sodipodi:namedview
     pagecolor="#ffffff"
     bordercolor="#666666"
     borderopacity="1"
     objecttolerance="10"
     gridtolerance="10"
     guidetolerance="10"
     inkscape:pageopacity="0"
     inkscape:pageshadow="2"
     inkscape:window-width="640"
     inkscape:window-height="480"
     id="namedview8"
     showgrid="false"
     fit-margin-top="50"
     fit-margin-left="50"
     fit-margin-right="50"
     fit-margin-bottom="50"
     inkscape:zoom="0.61425781"
     inkscape:cx="442.26932"
     inkscape:cy="480.09764"
     inkscape:current-layer="svg6" />
  <g
     transform="matrix(1,0,0,-1,42.6,540.82443)"
     id="g4">
    <path
       d="m 607,684 q 82,-20 120,-36 27,-11 56,-27 2,-1 7.5,-4.5 5.5,-3.5 9.5,-6.5 4,-3 4,-5 l 1,-1 q 2,0 2,-1 5,-2 7,-3 18,-11 21,-18 l 1,-1 2,-2 h 2 q 0,-1 22,-19.5 22,-18.5 24,-21.5 11,-5 21.5,-13 10.5,-8 20,-19.5 9.5,-11.5 15,-19 5.5,-7.5 16.5,-24 11,-16.5 15,-21.5 18,-29 26,-43 23,-39 19,-46 -35,-14 -90,-23 -26,-5 -30,-6 h -9 q -9,2 -12,-1 -1,2 -13,-1.5 -12,-3.5 -15,-4.5 -2,0 -10.5,-2.5 -8.5,-2.5 -14,-3.5 -5.5,-1 -8.5,1 l -10,20 -27,52 q -8,16 -16,29 -8,15 -16,24 -11,0 -23,-8 -1,-1 -3.5,-2.5 -2.5,-1.5 -3,-2.5 l -1,-2 q 0,0 -0.5,-3 -0.5,-3 1,-5 4,-19 7,-32 2,-5 5.5,-18 3.5,-13 5.5,-20 5,-17 7,-53 0,-1 -1,-17.5 -1,-16.5 -0.5,-28.5 0.5,-12 2.5,-13 15,-6 26,-11 11,-5 22,-17 11,-12 9,-24 0,-16 -33,-35 -31,-19 -32,-5 -5,-4 -7,-15 -2,-11 -3,-26.5 Q 725,82 725,79 715,12 702,-22 693,-47 669,-78 l -25,-33 q -5,-7 -10,-2 -2,2 -4,2 -3,3 2.5,32 5.5,29 9.5,38 8,24 2,68 -4,25 -6,73 -2,25 -13,33 -12,9 -29,14 -87,32 -136,-7 -9,-7 -24,-25 -2,-27 -2,-39 -1,-12 4,-79 v -16 q 2,-3 7,-35 5,-29 7,-54 -2,-3 -34,32 -32,35 -38,43 -32,45 -54,106 -3,7 -12,53 v 6 q 0,0 -0.5,5 -0.5,5 -2.5,2.5 -2,-2.5 -6,1.5 l -27,11 q -10,5 -15.5,7.5 -5.5,2.5 -11,9 -5.5,6.5 -5.5,13.5 1,11 11.5,19.5 10.5,8.5 12.5,11.5 5,0 18.5,6 13.5,6 19.5,6 2,2 0.5,17 -1.5,15 -1.5,17 0,30 -1,45 0,2 1,6.5 1,4.5 2.5,10.5 1.5,6 1.5,8 2,10 2,17 2,27 4,41 0,3 2,9.5 2,6.5 2.5,11 0.5,4.5 -1.5,9 -2,4.5 -6,6.5 -10,6 -15,8 -2,1 -4.5,3 -2.5,2 -4,3 -1.5,1 -3.5,1 -2,0 -3.5,-1.5 Q 282,435 280,432 268,412 260,401 l -5,-6 q -1,-2 -4,-7 -3,-5 -4,-7 l -3,-5 q -18,-33 -23,-32 -12,4 -18,7 -10,3 -69,24 -13,4 -87,29 -11,4 -36,13 -3,1 -3.5,3.5 -0.5,2.5 1.5,6 l 4,7 q 0,0 5.5,7 5.5,7 4.5,5.5 43,66 55,78 16,16 39.5,32 23.5,16 35.5,23 12,7 48,25 l 40,20 q 188,97 351,63 z M 467,334 v 1 q 3,17 -6,26 l -4,3 -10,3 q -28,5 -34,-5 -12,-9 -10,-24 0,-17 5,-21 12,-5 24,-5 h 1 q 9,0 18,3 15,7 16,19 z m 134,15 v -2 q -3,-8 -1,-14 0,-3 3,-9 l 3,-6 q 3,-7 19,-12 h 1 q 7,-3 14,0 2,1 4.5,4.5 2.5,3.5 3.5,4.5 1,2 4.5,11.5 3.5,9.5 3,12 -0.5,2.5 -3.5,10.5 -9,13 -20,18 -6,2 -20,-6 l -2,-2 q -3,-2 -5.5,-5 -2.5,-3 -3.5,-5 z"
       id="path2"
       inkscape:connector-curvature="0"
       style="fill:currentColor" />
  </g>
</svg>
